%TF.GenerationSoftware,KiCad,Pcbnew,8.0.1*%
%TF.CreationDate,2024-05-17T17:30:13+02:00*%
%TF.ProjectId,modul_MH106,6d6f6475-6c5f-44d4-9831-30362e6b6963,rev?*%
%TF.SameCoordinates,Original*%
%TF.FileFunction,Legend,Top*%
%TF.FilePolarity,Positive*%
%FSLAX46Y46*%
G04 Gerber Fmt 4.6, Leading zero omitted, Abs format (unit mm)*
G04 Created by KiCad (PCBNEW 8.0.1) date 2024-05-17 17:30:13*
%MOMM*%
%LPD*%
G01*
G04 APERTURE LIST*
%ADD10C,0.000000*%
%ADD11C,0.200000*%
%ADD12C,0.150000*%
%ADD13C,0.120000*%
G04 APERTURE END LIST*
D10*
G36*
X101598011Y-58197693D02*
G01*
X101608279Y-58202525D01*
X101613101Y-58205484D01*
X101617602Y-58208550D01*
X101621780Y-58211721D01*
X101625637Y-58214996D01*
X101629171Y-58218371D01*
X101632384Y-58221846D01*
X101635275Y-58225418D01*
X101637844Y-58229086D01*
X101640091Y-58232848D01*
X101642017Y-58236702D01*
X101643621Y-58240647D01*
X101644904Y-58244680D01*
X101645865Y-58248799D01*
X101646505Y-58253004D01*
X101646824Y-58257291D01*
X101646822Y-58261659D01*
X101646498Y-58266107D01*
X101645854Y-58270632D01*
X101644888Y-58275233D01*
X101643601Y-58279908D01*
X101641994Y-58284655D01*
X101640066Y-58289472D01*
X101637817Y-58294357D01*
X101635247Y-58299309D01*
X101632357Y-58304325D01*
X101629146Y-58309405D01*
X101625615Y-58314545D01*
X101621763Y-58319745D01*
X101617592Y-58325002D01*
X101613099Y-58330315D01*
X101608287Y-58335682D01*
X101603155Y-58341100D01*
X101566960Y-58378330D01*
X102942988Y-58382574D01*
X104319017Y-58386818D01*
X104339538Y-58410633D01*
X104341920Y-58413502D01*
X104344148Y-58416400D01*
X104346223Y-58419326D01*
X104348144Y-58422277D01*
X104349911Y-58425252D01*
X104351525Y-58428248D01*
X104352985Y-58431264D01*
X104354291Y-58434298D01*
X104355443Y-58437347D01*
X104356442Y-58440410D01*
X104357288Y-58443484D01*
X104357979Y-58446569D01*
X104358517Y-58449661D01*
X104358901Y-58452759D01*
X104359132Y-58455861D01*
X104359209Y-58458965D01*
X104359132Y-58462069D01*
X104358901Y-58465171D01*
X104358517Y-58468269D01*
X104357979Y-58471362D01*
X104357288Y-58474446D01*
X104356442Y-58477521D01*
X104355443Y-58480584D01*
X104354291Y-58483633D01*
X104352985Y-58486666D01*
X104351525Y-58489682D01*
X104349911Y-58492679D01*
X104348144Y-58495653D01*
X104346223Y-58498605D01*
X104344148Y-58501530D01*
X104341920Y-58504429D01*
X104339538Y-58507298D01*
X104319017Y-58531113D01*
X102845132Y-58533341D01*
X101691017Y-58532929D01*
X101434479Y-58530283D01*
X101347463Y-58525779D01*
X101344792Y-58524588D01*
X101342159Y-58523235D01*
X101339567Y-58521726D01*
X101337021Y-58520070D01*
X101334526Y-58518275D01*
X101332086Y-58516348D01*
X101329706Y-58514298D01*
X101327389Y-58512132D01*
X101325141Y-58509859D01*
X101322966Y-58507486D01*
X101320868Y-58505020D01*
X101318852Y-58502471D01*
X101316922Y-58499845D01*
X101315083Y-58497151D01*
X101313339Y-58494397D01*
X101311694Y-58491590D01*
X101310153Y-58488739D01*
X101308720Y-58485851D01*
X101307400Y-58482933D01*
X101306198Y-58479995D01*
X101305117Y-58477044D01*
X101304162Y-58474088D01*
X101303338Y-58471134D01*
X101302649Y-58468191D01*
X101302099Y-58465266D01*
X101301693Y-58462367D01*
X101301436Y-58459503D01*
X101301331Y-58456681D01*
X101301384Y-58453909D01*
X101301598Y-58451194D01*
X101301978Y-58448546D01*
X101302529Y-58445971D01*
X101303147Y-58443832D01*
X101303975Y-58441485D01*
X101304998Y-58438953D01*
X101306201Y-58436260D01*
X101307572Y-58433428D01*
X101309096Y-58430483D01*
X101310760Y-58427448D01*
X101312549Y-58424345D01*
X101314449Y-58421199D01*
X101316447Y-58418033D01*
X101318528Y-58414871D01*
X101320679Y-58411737D01*
X101322886Y-58408654D01*
X101325134Y-58405645D01*
X101327411Y-58402735D01*
X101329701Y-58399946D01*
X101351932Y-58373573D01*
X101319074Y-58378301D01*
X101192684Y-58396219D01*
X100661245Y-58471711D01*
X100390484Y-58509876D01*
X100346115Y-58516304D01*
X100309176Y-58522170D01*
X100283522Y-58526828D01*
X100276132Y-58528501D01*
X100274007Y-58529137D01*
X100273009Y-58529628D01*
X100212763Y-58673345D01*
X100089447Y-58981393D01*
X99967904Y-59290370D01*
X99912980Y-59436872D01*
X99914897Y-59449626D01*
X99920392Y-59480010D01*
X99940574Y-59585724D01*
X99970444Y-59738118D01*
X100006918Y-59921297D01*
X100043055Y-60104567D01*
X100072003Y-60257211D01*
X100090822Y-60363293D01*
X100095513Y-60393895D01*
X100096569Y-60406882D01*
X100095374Y-60411148D01*
X100093973Y-60415278D01*
X100092374Y-60419267D01*
X100090583Y-60423112D01*
X100088609Y-60426810D01*
X100086458Y-60430357D01*
X100084138Y-60433749D01*
X100081656Y-60436984D01*
X100079019Y-60440056D01*
X100076235Y-60442963D01*
X100073311Y-60445701D01*
X100070254Y-60448267D01*
X100067071Y-60450657D01*
X100063770Y-60452867D01*
X100060358Y-60454895D01*
X100056842Y-60456735D01*
X100053229Y-60458386D01*
X100049528Y-60459842D01*
X100045744Y-60461101D01*
X100041886Y-60462160D01*
X100037960Y-60463013D01*
X100033974Y-60463659D01*
X100029936Y-60464093D01*
X100025852Y-60464312D01*
X100021729Y-60464313D01*
X100017576Y-60464091D01*
X100013398Y-60463643D01*
X100009205Y-60462965D01*
X100005002Y-60462055D01*
X100000797Y-60460908D01*
X99996598Y-60459521D01*
X99992411Y-60457891D01*
X99992411Y-60457893D01*
X99989731Y-60456666D01*
X99987034Y-60455231D01*
X99984336Y-60453606D01*
X99981654Y-60451807D01*
X99979006Y-60449852D01*
X99976408Y-60447757D01*
X99973878Y-60445539D01*
X99971432Y-60443215D01*
X99969087Y-60440801D01*
X99966861Y-60438316D01*
X99964771Y-60435775D01*
X99962833Y-60433195D01*
X99961065Y-60430594D01*
X99959484Y-60427987D01*
X99958107Y-60425393D01*
X99956950Y-60422827D01*
X99952966Y-60408005D01*
X99945412Y-60374984D01*
X99921357Y-60262729D01*
X99888303Y-60102823D01*
X99849766Y-59912025D01*
X99795932Y-59640580D01*
X99779231Y-59553019D01*
X99768204Y-59490671D01*
X99762002Y-59448367D01*
X99759773Y-59420936D01*
X99760666Y-59403209D01*
X99763829Y-59390015D01*
X99782984Y-59339445D01*
X99826790Y-59228046D01*
X99962311Y-58888581D01*
X100044116Y-58686977D01*
X100106583Y-58537381D01*
X100148689Y-58442181D01*
X100161788Y-58415726D01*
X100169415Y-58403766D01*
X100171264Y-58402162D01*
X100173471Y-58400584D01*
X100176130Y-58399014D01*
X100179339Y-58397439D01*
X100183194Y-58395840D01*
X100187794Y-58394204D01*
X100193233Y-58392512D01*
X100199610Y-58390751D01*
X100207021Y-58388903D01*
X100215562Y-58386953D01*
X100236426Y-58382683D01*
X100262974Y-58377812D01*
X100295983Y-58372215D01*
X100336226Y-58365762D01*
X100384478Y-58358327D01*
X100441515Y-58349783D01*
X100508110Y-58340001D01*
X100673074Y-58316217D01*
X100885569Y-58285955D01*
X101286131Y-58229400D01*
X101496039Y-58201730D01*
X101550153Y-58196342D01*
X101581390Y-58195315D01*
X101598011Y-58197693D01*
G37*
G36*
X104091945Y-58771857D02*
G01*
X104097167Y-58772352D01*
X104102359Y-58773194D01*
X104107497Y-58774375D01*
X104112558Y-58775886D01*
X104117520Y-58777716D01*
X104122357Y-58779855D01*
X104127046Y-58782295D01*
X104131565Y-58785026D01*
X104135889Y-58788039D01*
X104139995Y-58791323D01*
X104143860Y-58794869D01*
X104147459Y-58798668D01*
X104150769Y-58802711D01*
X104153767Y-58806987D01*
X104156430Y-58811487D01*
X104158733Y-58816202D01*
X104160653Y-58821121D01*
X104162167Y-58826237D01*
X104163251Y-58831538D01*
X104163881Y-58837015D01*
X104164034Y-58842660D01*
X104162540Y-58849023D01*
X104158147Y-58860907D01*
X104140481Y-58901615D01*
X104110669Y-58965539D01*
X104068341Y-59053436D01*
X104013130Y-59166063D01*
X103944668Y-59304176D01*
X103766518Y-59659883D01*
X103550564Y-60087993D01*
X103427796Y-60326638D01*
X103392149Y-60392310D01*
X103368748Y-60431494D01*
X103353908Y-60451149D01*
X103343948Y-60458236D01*
X103341256Y-60459147D01*
X103338455Y-60460002D01*
X103335568Y-60460796D01*
X103332617Y-60461528D01*
X103329625Y-60462194D01*
X103326613Y-60462791D01*
X103323605Y-60463316D01*
X103320622Y-60463765D01*
X103317688Y-60464136D01*
X103314823Y-60464426D01*
X103312051Y-60464631D01*
X103309395Y-60464748D01*
X103306875Y-60464775D01*
X103304515Y-60464707D01*
X103302337Y-60464543D01*
X103300364Y-60464279D01*
X103300363Y-60464279D01*
X103296213Y-60463550D01*
X103292283Y-60462712D01*
X103288528Y-60461614D01*
X103286702Y-60460921D01*
X103284902Y-60460106D01*
X103283123Y-60459152D01*
X103281359Y-60458038D01*
X103279604Y-60456748D01*
X103277853Y-60455261D01*
X103276101Y-60453559D01*
X103274340Y-60451623D01*
X103272567Y-60449435D01*
X103270774Y-60446976D01*
X103268957Y-60444227D01*
X103267109Y-60441169D01*
X103265225Y-60437784D01*
X103263299Y-60434052D01*
X103261325Y-60429956D01*
X103259299Y-60425476D01*
X103257213Y-60420594D01*
X103255063Y-60415290D01*
X103250546Y-60403344D01*
X103245703Y-60389489D01*
X103240487Y-60373574D01*
X103234853Y-60355449D01*
X103228755Y-60334965D01*
X103222149Y-60311971D01*
X103214987Y-60286317D01*
X103207226Y-60257854D01*
X103198819Y-60226432D01*
X103189720Y-60191900D01*
X103179885Y-60154108D01*
X103169266Y-60112907D01*
X103145500Y-60019677D01*
X103118057Y-59911009D01*
X103050682Y-59642561D01*
X102912523Y-59084421D01*
X102870489Y-58909209D01*
X102855045Y-58838416D01*
X102855286Y-58833107D01*
X102856006Y-58827961D01*
X102857179Y-58822985D01*
X102858782Y-58818189D01*
X102860791Y-58813581D01*
X102863183Y-58809170D01*
X102865932Y-58804965D01*
X102869016Y-58800975D01*
X102872410Y-58797208D01*
X102876090Y-58793673D01*
X102880031Y-58790379D01*
X102884211Y-58787335D01*
X102888606Y-58784550D01*
X102893190Y-58782032D01*
X102897940Y-58779790D01*
X102902832Y-58777832D01*
X102907843Y-58776169D01*
X102912947Y-58774808D01*
X102918122Y-58773757D01*
X102923343Y-58773027D01*
X102928585Y-58772626D01*
X102933826Y-58772562D01*
X102939041Y-58772844D01*
X102944206Y-58773481D01*
X102949297Y-58774482D01*
X102954291Y-58775856D01*
X102959162Y-58777611D01*
X102963887Y-58779756D01*
X102968443Y-58782300D01*
X102972805Y-58785252D01*
X102976948Y-58788620D01*
X102980850Y-58792413D01*
X102983850Y-58796909D01*
X102987566Y-58804947D01*
X102992092Y-58816875D01*
X102997522Y-58833042D01*
X103003949Y-58853794D01*
X103011467Y-58879480D01*
X103030152Y-58947041D01*
X103054326Y-59038507D01*
X103084737Y-59156659D01*
X103122136Y-59304277D01*
X103167273Y-59484143D01*
X103287914Y-59958992D01*
X103326069Y-60103452D01*
X103341811Y-60156518D01*
X103349963Y-60142798D01*
X103370853Y-60103458D01*
X103445222Y-59958951D01*
X103553660Y-59745070D01*
X103684908Y-59483887D01*
X103927905Y-59003203D01*
X104005858Y-58852611D01*
X104039276Y-58792118D01*
X104043272Y-58788154D01*
X104047496Y-58784643D01*
X104051926Y-58781576D01*
X104056539Y-58778942D01*
X104061309Y-58776733D01*
X104066215Y-58774939D01*
X104071232Y-58773550D01*
X104076338Y-58772557D01*
X104081507Y-58771950D01*
X104086718Y-58771720D01*
X104091945Y-58771857D01*
G37*
G36*
X100801906Y-58773043D02*
G01*
X100806506Y-58773505D01*
X100811083Y-58774231D01*
X100815620Y-58775217D01*
X100820100Y-58776459D01*
X100824507Y-58777954D01*
X100828825Y-58779696D01*
X100833037Y-58781682D01*
X100837126Y-58783907D01*
X100841075Y-58786369D01*
X100844870Y-58789062D01*
X100848491Y-58791982D01*
X100851924Y-58795126D01*
X100855152Y-58798489D01*
X100858158Y-58802067D01*
X100860926Y-58805857D01*
X100863438Y-58809853D01*
X100865679Y-58814053D01*
X100867633Y-58818451D01*
X100869281Y-58823044D01*
X100869920Y-58827493D01*
X100870140Y-58835258D01*
X100869421Y-58859589D01*
X100867318Y-58893746D01*
X100864028Y-58935433D01*
X100859747Y-58982359D01*
X100854671Y-59032231D01*
X100848995Y-59082754D01*
X100842916Y-59131637D01*
X100842004Y-59139732D01*
X100841448Y-59147274D01*
X100841239Y-59154099D01*
X100841262Y-59157191D01*
X100841369Y-59160043D01*
X100841558Y-59162633D01*
X100841828Y-59164942D01*
X100842178Y-59166948D01*
X100842607Y-59168631D01*
X100843114Y-59169970D01*
X100843697Y-59170945D01*
X100844017Y-59171290D01*
X100844356Y-59171536D01*
X100844714Y-59171680D01*
X100845090Y-59171721D01*
X100845518Y-59171643D01*
X100846028Y-59171432D01*
X100846618Y-59171092D01*
X100847285Y-59170627D01*
X100848842Y-59169332D01*
X100850675Y-59167575D01*
X100852765Y-59165381D01*
X100855090Y-59162778D01*
X100857628Y-59159792D01*
X100860359Y-59156449D01*
X100863260Y-59152775D01*
X100866312Y-59148798D01*
X100869492Y-59144544D01*
X100872779Y-59140040D01*
X100876152Y-59135311D01*
X100879590Y-59130385D01*
X100883071Y-59125289D01*
X100886575Y-59120047D01*
X100894593Y-59108541D01*
X100903891Y-59096293D01*
X100914344Y-59083423D01*
X100925826Y-59070056D01*
X100938210Y-59056312D01*
X100951370Y-59042314D01*
X100965180Y-59028185D01*
X100979513Y-59014047D01*
X100994244Y-59000023D01*
X101009246Y-58986233D01*
X101024393Y-58972802D01*
X101039559Y-58959851D01*
X101054617Y-58947502D01*
X101069441Y-58935878D01*
X101083905Y-58925101D01*
X101097884Y-58915293D01*
X101111077Y-58906634D01*
X101125133Y-58897945D01*
X101139958Y-58889269D01*
X101155459Y-58880647D01*
X101188113Y-58863736D01*
X101222346Y-58847551D01*
X101257409Y-58832430D01*
X101292553Y-58818712D01*
X101309921Y-58812485D01*
X101327029Y-58806735D01*
X101343782Y-58801506D01*
X101360087Y-58796838D01*
X101381649Y-58791272D01*
X101391831Y-58788933D01*
X101401853Y-58786868D01*
X101411897Y-58785061D01*
X101422142Y-58783497D01*
X101432768Y-58782158D01*
X101443956Y-58781030D01*
X101455887Y-58780096D01*
X101468739Y-58779339D01*
X101482694Y-58778744D01*
X101497933Y-58778295D01*
X101532979Y-58777770D01*
X101575319Y-58777634D01*
X101630430Y-58778229D01*
X101655016Y-58779022D01*
X101677954Y-58780208D01*
X101699494Y-58781835D01*
X101719883Y-58783952D01*
X101739373Y-58786605D01*
X101758211Y-58789842D01*
X101776647Y-58793710D01*
X101794929Y-58798258D01*
X101813308Y-58803533D01*
X101832032Y-58809582D01*
X101851349Y-58816453D01*
X101871510Y-58824194D01*
X101915358Y-58842476D01*
X101947704Y-58857556D01*
X101979900Y-58874640D01*
X102011811Y-58893598D01*
X102043304Y-58914301D01*
X102074245Y-58936619D01*
X102104500Y-58960425D01*
X102133935Y-58985588D01*
X102162415Y-59011979D01*
X102189808Y-59039469D01*
X102215978Y-59067929D01*
X102240792Y-59097230D01*
X102264116Y-59127242D01*
X102285816Y-59157837D01*
X102305758Y-59188884D01*
X102323807Y-59220255D01*
X102339831Y-59251821D01*
X102351397Y-59277470D01*
X102362200Y-59303888D01*
X102372219Y-59330951D01*
X102381429Y-59358536D01*
X102389809Y-59386520D01*
X102397335Y-59414780D01*
X102403984Y-59443192D01*
X102409734Y-59471635D01*
X102414561Y-59499984D01*
X102418442Y-59528116D01*
X102421356Y-59555910D01*
X102423278Y-59583240D01*
X102424185Y-59609986D01*
X102424056Y-59636022D01*
X102422866Y-59661227D01*
X102420594Y-59685477D01*
X102415128Y-59725890D01*
X102408476Y-59765097D01*
X102400617Y-59803139D01*
X102391534Y-59840055D01*
X102381208Y-59875888D01*
X102369619Y-59910678D01*
X102356750Y-59944467D01*
X102342582Y-59977294D01*
X102327095Y-60009202D01*
X102310271Y-60040230D01*
X102292091Y-60070421D01*
X102272536Y-60099814D01*
X102251588Y-60128451D01*
X102229229Y-60156373D01*
X102205438Y-60183620D01*
X102180198Y-60210234D01*
X102152960Y-60236647D01*
X102124816Y-60261647D01*
X102095815Y-60285229D01*
X102066007Y-60307386D01*
X102035444Y-60328114D01*
X102004175Y-60347407D01*
X101972249Y-60365259D01*
X101939718Y-60381665D01*
X101906632Y-60396620D01*
X101873040Y-60410118D01*
X101838992Y-60422154D01*
X101804540Y-60432722D01*
X101769732Y-60441816D01*
X101734620Y-60449431D01*
X101699253Y-60455562D01*
X101663682Y-60460204D01*
X101627956Y-60463350D01*
X101592126Y-60464995D01*
X101556242Y-60465134D01*
X101520355Y-60463762D01*
X101484513Y-60460872D01*
X101448768Y-60456459D01*
X101413169Y-60450519D01*
X101377767Y-60443045D01*
X101342612Y-60434031D01*
X101307755Y-60423473D01*
X101273244Y-60411365D01*
X101239130Y-60397702D01*
X101205465Y-60382477D01*
X101172296Y-60365686D01*
X101139676Y-60347323D01*
X101107653Y-60327383D01*
X101092716Y-60317153D01*
X101076993Y-60305520D01*
X101060646Y-60292642D01*
X101043832Y-60278679D01*
X101026713Y-60263790D01*
X101009447Y-60248134D01*
X100992195Y-60231870D01*
X100975116Y-60215158D01*
X100958370Y-60198157D01*
X100942116Y-60181025D01*
X100926515Y-60163922D01*
X100911725Y-60147007D01*
X100897907Y-60130439D01*
X100885220Y-60114378D01*
X100873824Y-60098983D01*
X100863878Y-60084412D01*
X100848924Y-60060099D01*
X100833330Y-60032491D01*
X100817907Y-60003281D01*
X100803468Y-59974162D01*
X100790824Y-59946825D01*
X100780788Y-59922963D01*
X100777001Y-59912864D01*
X100774170Y-59904268D01*
X100772398Y-59897388D01*
X100771784Y-59892434D01*
X100771776Y-59891814D01*
X100771750Y-59891228D01*
X100771708Y-59890675D01*
X100771650Y-59890156D01*
X100771575Y-59889672D01*
X100771483Y-59889221D01*
X100771376Y-59888803D01*
X100771253Y-59888420D01*
X100771114Y-59888072D01*
X100770960Y-59887757D01*
X100770791Y-59887476D01*
X100770607Y-59887230D01*
X100770407Y-59887018D01*
X100770193Y-59886841D01*
X100769965Y-59886698D01*
X100769722Y-59886590D01*
X100769465Y-59886516D01*
X100769194Y-59886477D01*
X100768909Y-59886473D01*
X100768610Y-59886504D01*
X100768298Y-59886570D01*
X100767973Y-59886670D01*
X100767635Y-59886806D01*
X100767284Y-59886976D01*
X100766920Y-59887182D01*
X100766543Y-59887423D01*
X100766155Y-59887700D01*
X100765754Y-59888012D01*
X100765341Y-59888359D01*
X100764916Y-59888742D01*
X100764480Y-59889160D01*
X100764032Y-59889614D01*
X100763617Y-59890199D01*
X100763171Y-59891118D01*
X100762195Y-59893919D01*
X100761114Y-59897945D01*
X100759939Y-59903126D01*
X100757354Y-59916662D01*
X100754527Y-59933955D01*
X100751546Y-59954432D01*
X100748499Y-59977521D01*
X100745475Y-60002648D01*
X100742560Y-60029241D01*
X100728001Y-60164544D01*
X100712262Y-60305099D01*
X100682534Y-60567348D01*
X100653012Y-60835597D01*
X100584600Y-61450974D01*
X100552688Y-61733937D01*
X100524728Y-61989960D01*
X100506638Y-62153096D01*
X100492769Y-62265404D01*
X100487144Y-62304518D01*
X100482247Y-62333350D01*
X100477967Y-62352707D01*
X100474195Y-62363399D01*
X100472115Y-62366968D01*
X100469812Y-62370347D01*
X100467297Y-62373536D01*
X100464584Y-62376532D01*
X100461684Y-62379335D01*
X100458612Y-62381942D01*
X100455378Y-62384353D01*
X100451996Y-62386566D01*
X100448478Y-62388580D01*
X100444838Y-62390392D01*
X100441086Y-62392003D01*
X100437236Y-62393409D01*
X100433301Y-62394611D01*
X100429293Y-62395606D01*
X100425225Y-62396392D01*
X100421109Y-62396970D01*
X100416958Y-62397336D01*
X100412783Y-62397490D01*
X100408599Y-62397430D01*
X100404418Y-62397155D01*
X100400251Y-62396664D01*
X100396112Y-62395954D01*
X100392013Y-62395025D01*
X100387967Y-62393875D01*
X100383986Y-62392502D01*
X100380082Y-62390906D01*
X100376270Y-62389084D01*
X100372560Y-62387036D01*
X100368966Y-62384759D01*
X100365499Y-62382254D01*
X100362174Y-62379517D01*
X100359002Y-62376547D01*
X100359001Y-62376545D01*
X100356504Y-62373941D01*
X100354163Y-62371268D01*
X100351978Y-62368529D01*
X100349949Y-62365725D01*
X100348079Y-62362859D01*
X100346367Y-62359932D01*
X100344815Y-62356946D01*
X100343423Y-62353904D01*
X100342192Y-62350806D01*
X100341122Y-62347655D01*
X100340216Y-62344453D01*
X100339473Y-62341201D01*
X100338894Y-62337903D01*
X100338481Y-62334558D01*
X100338233Y-62331170D01*
X100338152Y-62327740D01*
X100339665Y-62302532D01*
X100344085Y-62253133D01*
X100361047Y-62087376D01*
X100387843Y-61841707D01*
X100423278Y-61527364D01*
X100453883Y-61256236D01*
X100482412Y-60996866D01*
X100550824Y-60381489D01*
X100581428Y-60110361D01*
X100609957Y-59850992D01*
X100636731Y-59607163D01*
X100876712Y-59607163D01*
X100876839Y-59638403D01*
X100878366Y-59669534D01*
X100885572Y-59731273D01*
X100898231Y-59791995D01*
X100916246Y-59851314D01*
X100939518Y-59908844D01*
X100953094Y-59936817D01*
X100967947Y-59964197D01*
X100984065Y-59990938D01*
X101001435Y-60016989D01*
X101020045Y-60042303D01*
X101039884Y-60066832D01*
X101060937Y-60090528D01*
X101083194Y-60113341D01*
X101106641Y-60135224D01*
X101131267Y-60156129D01*
X101157059Y-60176007D01*
X101184005Y-60194810D01*
X101203103Y-60207207D01*
X101221607Y-60218636D01*
X101239699Y-60229160D01*
X101257561Y-60238843D01*
X101275375Y-60247749D01*
X101293321Y-60255941D01*
X101311581Y-60263483D01*
X101330338Y-60270439D01*
X101349773Y-60276873D01*
X101370067Y-60282848D01*
X101391402Y-60288427D01*
X101413959Y-60293675D01*
X101437921Y-60298655D01*
X101463469Y-60303431D01*
X101490785Y-60308067D01*
X101520050Y-60312626D01*
X101526187Y-60313295D01*
X101533839Y-60313716D01*
X101553054Y-60313851D01*
X101576417Y-60313121D01*
X101602653Y-60311611D01*
X101630485Y-60309409D01*
X101658635Y-60306604D01*
X101685827Y-60303283D01*
X101710786Y-60299534D01*
X101754624Y-60290374D01*
X101797761Y-60277821D01*
X101840038Y-60262018D01*
X101881297Y-60243107D01*
X101921379Y-60221230D01*
X101960126Y-60196529D01*
X101997379Y-60169147D01*
X102032978Y-60139226D01*
X102066767Y-60106909D01*
X102098585Y-60072336D01*
X102128275Y-60035652D01*
X102155678Y-59996998D01*
X102180634Y-59956516D01*
X102202987Y-59914349D01*
X102222576Y-59870638D01*
X102239243Y-59825527D01*
X102246566Y-59802718D01*
X102249595Y-59792489D01*
X102252237Y-59782744D01*
X102254520Y-59773260D01*
X102256470Y-59763810D01*
X102258115Y-59754171D01*
X102259481Y-59744118D01*
X102260596Y-59733425D01*
X102261485Y-59721869D01*
X102262176Y-59709225D01*
X102262696Y-59695268D01*
X102263329Y-59662516D01*
X102263599Y-59621816D01*
X102263594Y-59582660D01*
X102263182Y-59550586D01*
X102262217Y-59524166D01*
X102260559Y-59501973D01*
X102259425Y-59492014D01*
X102258064Y-59482577D01*
X102256458Y-59473482D01*
X102254590Y-59464550D01*
X102249994Y-59446465D01*
X102244133Y-59426892D01*
X102230374Y-59386727D01*
X102214822Y-59347977D01*
X102197501Y-59310667D01*
X102178434Y-59274823D01*
X102157645Y-59240471D01*
X102135158Y-59207638D01*
X102110996Y-59176347D01*
X102085183Y-59146626D01*
X102057743Y-59118499D01*
X102028700Y-59091993D01*
X101998076Y-59067134D01*
X101965897Y-59043947D01*
X101932184Y-59022457D01*
X101896963Y-59002691D01*
X101860257Y-58984673D01*
X101822089Y-58968431D01*
X101805682Y-58962187D01*
X101789468Y-58956490D01*
X101773362Y-58951331D01*
X101757282Y-58946697D01*
X101741144Y-58942575D01*
X101724864Y-58938955D01*
X101708359Y-58935824D01*
X101691546Y-58933170D01*
X101674341Y-58930982D01*
X101656660Y-58929247D01*
X101638420Y-58927954D01*
X101619538Y-58927091D01*
X101599929Y-58926645D01*
X101579512Y-58926606D01*
X101558201Y-58926961D01*
X101535915Y-58927698D01*
X101506698Y-58929354D01*
X101478337Y-58931931D01*
X101450765Y-58935456D01*
X101423918Y-58939952D01*
X101397731Y-58945444D01*
X101372137Y-58951956D01*
X101347072Y-58959514D01*
X101322470Y-58968140D01*
X101298266Y-58977862D01*
X101274395Y-58988701D01*
X101250792Y-59000684D01*
X101227390Y-59013835D01*
X101204125Y-59028178D01*
X101180932Y-59043738D01*
X101157745Y-59060540D01*
X101134499Y-59078607D01*
X101119971Y-59090533D01*
X101106062Y-59102491D01*
X101092735Y-59114527D01*
X101079953Y-59126688D01*
X101067676Y-59139021D01*
X101055867Y-59151572D01*
X101044489Y-59164389D01*
X101033503Y-59177517D01*
X101022872Y-59191003D01*
X101012556Y-59204895D01*
X101002520Y-59219238D01*
X100992724Y-59234080D01*
X100983131Y-59249467D01*
X100973702Y-59265446D01*
X100964401Y-59282064D01*
X100955188Y-59299367D01*
X100940631Y-59329046D01*
X100927598Y-59359098D01*
X100916077Y-59389475D01*
X100906054Y-59420130D01*
X100897519Y-59451012D01*
X100890458Y-59482075D01*
X100884859Y-59513270D01*
X100880710Y-59544548D01*
X100877999Y-59575862D01*
X100876712Y-59607163D01*
X100636731Y-59607163D01*
X100649125Y-59494298D01*
X100673929Y-59278055D01*
X100686517Y-59167472D01*
X100699564Y-59044636D01*
X100706371Y-58979401D01*
X100712304Y-58927178D01*
X100717684Y-58886284D01*
X100722832Y-58855041D01*
X100728066Y-58831766D01*
X100730816Y-58822591D01*
X100733708Y-58814779D01*
X100736782Y-58808118D01*
X100740077Y-58802399D01*
X100743635Y-58797412D01*
X100747494Y-58792946D01*
X100750894Y-58789601D01*
X100754486Y-58786573D01*
X100758252Y-58783858D01*
X100762178Y-58781453D01*
X100766245Y-58779352D01*
X100770437Y-58777553D01*
X100774738Y-58776051D01*
X100779132Y-58774841D01*
X100783601Y-58773920D01*
X100788130Y-58773284D01*
X100792701Y-58772929D01*
X100797299Y-58772850D01*
X100801906Y-58773043D01*
G37*
G36*
X104872313Y-56840499D02*
G01*
X104876743Y-56841010D01*
X104881166Y-56841786D01*
X104885570Y-56842828D01*
X104889944Y-56844138D01*
X104894276Y-56845717D01*
X104898556Y-56847567D01*
X104902771Y-56849690D01*
X104906910Y-56852087D01*
X104910963Y-56854761D01*
X104914917Y-56857712D01*
X104918763Y-56860943D01*
X104922487Y-56864456D01*
X104924440Y-56866515D01*
X104926257Y-56868690D01*
X104927938Y-56871025D01*
X104929480Y-56873565D01*
X104930882Y-56876357D01*
X104932141Y-56879444D01*
X104933257Y-56882872D01*
X104934228Y-56886686D01*
X104935052Y-56890931D01*
X104935727Y-56895653D01*
X104936251Y-56900895D01*
X104936624Y-56906704D01*
X104936842Y-56913124D01*
X104936906Y-56920201D01*
X104936812Y-56927979D01*
X104936559Y-56936504D01*
X104936146Y-56945821D01*
X104935571Y-56955975D01*
X104933927Y-56978972D01*
X104931615Y-57005858D01*
X104928620Y-57036993D01*
X104924929Y-57072738D01*
X104920529Y-57113452D01*
X104909548Y-57211235D01*
X104866536Y-57593193D01*
X104823792Y-57977278D01*
X104780821Y-58363480D01*
X104738147Y-58747556D01*
X104700740Y-59082795D01*
X104694643Y-59139009D01*
X104690032Y-59185425D01*
X104687356Y-59217226D01*
X104686884Y-59226141D01*
X104687064Y-59229596D01*
X104687226Y-59229673D01*
X104687447Y-59229644D01*
X104687725Y-59229511D01*
X104688060Y-59229276D01*
X104688450Y-59228943D01*
X104688892Y-59228512D01*
X104689927Y-59227372D01*
X104691153Y-59225874D01*
X104692556Y-59224039D01*
X104694123Y-59221886D01*
X104695840Y-59219435D01*
X104697693Y-59216705D01*
X104699670Y-59213716D01*
X104701757Y-59210487D01*
X104703940Y-59207039D01*
X104706205Y-59203390D01*
X104708540Y-59199560D01*
X104710931Y-59195568D01*
X104713364Y-59191435D01*
X104724270Y-59173466D01*
X104736113Y-59155297D01*
X104748824Y-59137005D01*
X104762332Y-59118665D01*
X104776566Y-59100355D01*
X104791455Y-59082151D01*
X104806930Y-59064128D01*
X104822921Y-59046365D01*
X104839355Y-59028936D01*
X104856164Y-59011919D01*
X104873277Y-58995389D01*
X104890624Y-58979424D01*
X104908133Y-58964099D01*
X104925736Y-58949492D01*
X104943360Y-58935678D01*
X104960936Y-58922734D01*
X104973183Y-58914387D01*
X104986831Y-58905767D01*
X105001720Y-58896947D01*
X105017691Y-58887998D01*
X105052246Y-58870009D01*
X105089220Y-58852380D01*
X105127343Y-58835694D01*
X105165341Y-58820531D01*
X105183895Y-58813704D01*
X105201940Y-58807475D01*
X105219318Y-58801918D01*
X105235868Y-58797106D01*
X105257949Y-58791336D01*
X105268277Y-58788917D01*
X105278374Y-58786785D01*
X105288425Y-58784923D01*
X105298612Y-58783315D01*
X105309121Y-58781944D01*
X105320133Y-58780792D01*
X105331835Y-58779842D01*
X105344408Y-58779078D01*
X105358036Y-58778483D01*
X105372904Y-58778039D01*
X105407093Y-58777537D01*
X105448444Y-58777438D01*
X105489392Y-58777648D01*
X105523454Y-58778245D01*
X105552020Y-58779358D01*
X105576479Y-58781117D01*
X105598219Y-58783650D01*
X105618630Y-58787088D01*
X105639100Y-58791560D01*
X105661019Y-58797195D01*
X105706616Y-58810869D01*
X105750858Y-58826767D01*
X105793703Y-58844808D01*
X105835109Y-58864908D01*
X105875032Y-58886983D01*
X105913432Y-58910952D01*
X105950264Y-58936730D01*
X105985488Y-58964235D01*
X106019059Y-58993384D01*
X106050938Y-59024094D01*
X106081079Y-59056282D01*
X106109442Y-59089865D01*
X106135984Y-59124760D01*
X106160663Y-59160883D01*
X106183435Y-59198153D01*
X106204259Y-59236485D01*
X106223093Y-59275796D01*
X106239893Y-59316005D01*
X106254618Y-59357028D01*
X106267225Y-59398781D01*
X106277672Y-59441182D01*
X106285916Y-59484147D01*
X106291915Y-59527595D01*
X106295626Y-59571441D01*
X106297007Y-59615602D01*
X106296017Y-59659997D01*
X106292611Y-59704541D01*
X106286748Y-59749152D01*
X106278386Y-59793746D01*
X106267482Y-59838241D01*
X106253994Y-59882554D01*
X106237879Y-59926601D01*
X106226198Y-59954564D01*
X106213620Y-59981951D01*
X106200166Y-60008748D01*
X106185855Y-60034939D01*
X106170709Y-60060510D01*
X106154746Y-60085444D01*
X106137988Y-60109729D01*
X106120454Y-60133347D01*
X106083139Y-60178527D01*
X106042964Y-60220865D01*
X106000089Y-60260239D01*
X105954676Y-60296531D01*
X105906887Y-60329620D01*
X105856882Y-60359386D01*
X105804823Y-60385708D01*
X105750871Y-60408468D01*
X105723236Y-60418474D01*
X105695188Y-60427544D01*
X105666747Y-60435663D01*
X105637934Y-60442817D01*
X105608769Y-60448989D01*
X105579272Y-60454166D01*
X105549462Y-60458332D01*
X105519361Y-60461472D01*
X105453553Y-60464634D01*
X105388446Y-60462748D01*
X105324270Y-60455947D01*
X105261257Y-60444362D01*
X105199636Y-60428125D01*
X105139639Y-60407369D01*
X105081494Y-60382225D01*
X105025433Y-60352825D01*
X104971686Y-60319301D01*
X104920483Y-60281786D01*
X104872055Y-60240411D01*
X104826631Y-60195308D01*
X104784443Y-60146609D01*
X104745720Y-60094447D01*
X104710694Y-60038953D01*
X104679593Y-59980259D01*
X104673832Y-59967957D01*
X104668019Y-59954882D01*
X104662313Y-59941432D01*
X104656872Y-59928010D01*
X104651855Y-59915016D01*
X104647420Y-59902849D01*
X104643726Y-59891911D01*
X104640932Y-59882602D01*
X104638928Y-59875659D01*
X104636837Y-59869094D01*
X104634689Y-59862956D01*
X104632514Y-59857288D01*
X104630341Y-59852139D01*
X104628201Y-59847552D01*
X104626124Y-59843576D01*
X104624138Y-59840254D01*
X104622274Y-59837634D01*
X104620563Y-59835762D01*
X104619773Y-59835121D01*
X104619032Y-59834684D01*
X104618344Y-59834456D01*
X104617713Y-59834444D01*
X104617142Y-59834654D01*
X104616636Y-59835091D01*
X104616196Y-59835761D01*
X104615829Y-59836669D01*
X104615536Y-59837822D01*
X104615323Y-59839225D01*
X104615148Y-59842804D01*
X104605752Y-59937166D01*
X104584771Y-60126331D01*
X104563017Y-60314770D01*
X104551301Y-60406952D01*
X104550108Y-60411182D01*
X104548711Y-60415278D01*
X104547116Y-60419236D01*
X104545332Y-60423053D01*
X104543365Y-60426725D01*
X104541222Y-60430248D01*
X104538912Y-60433620D01*
X104536440Y-60436835D01*
X104533816Y-60439891D01*
X104531046Y-60442785D01*
X104528136Y-60445511D01*
X104525096Y-60448068D01*
X104521931Y-60450450D01*
X104518650Y-60452656D01*
X104515260Y-60454680D01*
X104511767Y-60456519D01*
X104508180Y-60458171D01*
X104504506Y-60459630D01*
X104500751Y-60460894D01*
X104496924Y-60461959D01*
X104493031Y-60462821D01*
X104489080Y-60463477D01*
X104485079Y-60463923D01*
X104481034Y-60464155D01*
X104476953Y-60464171D01*
X104472843Y-60463965D01*
X104468712Y-60463535D01*
X104464567Y-60462877D01*
X104460415Y-60461988D01*
X104456263Y-60460863D01*
X104452120Y-60459499D01*
X104447991Y-60457893D01*
X104447992Y-60457893D01*
X104443956Y-60456121D01*
X104440146Y-60454277D01*
X104436558Y-60452342D01*
X104433190Y-60450300D01*
X104430037Y-60448132D01*
X104427096Y-60445821D01*
X104424365Y-60443349D01*
X104421840Y-60440699D01*
X104419517Y-60437852D01*
X104417394Y-60434792D01*
X104415466Y-60431500D01*
X104413732Y-60427959D01*
X104412187Y-60424151D01*
X104410828Y-60420058D01*
X104409652Y-60415663D01*
X104408655Y-60410948D01*
X104407835Y-60405896D01*
X104407188Y-60400488D01*
X104406711Y-60394708D01*
X104406400Y-60388536D01*
X104406252Y-60381957D01*
X104406265Y-60374951D01*
X104406433Y-60367502D01*
X104406756Y-60359591D01*
X104407228Y-60351201D01*
X104407847Y-60342315D01*
X104409511Y-60322981D01*
X104411724Y-60301449D01*
X104414457Y-60277576D01*
X104442516Y-60033103D01*
X104478929Y-59702452D01*
X104488859Y-59612089D01*
X104750712Y-59612089D01*
X104751369Y-59650223D01*
X104754154Y-59688532D01*
X104759107Y-59726941D01*
X104766270Y-59765375D01*
X104775682Y-59803756D01*
X104787385Y-59842011D01*
X104801418Y-59880063D01*
X104808173Y-59896369D01*
X104815160Y-59912161D01*
X104822416Y-59927495D01*
X104829980Y-59942426D01*
X104837892Y-59957012D01*
X104846188Y-59971308D01*
X104854908Y-59985370D01*
X104864089Y-59999256D01*
X104873771Y-60013020D01*
X104883991Y-60026720D01*
X104894788Y-60040412D01*
X104906201Y-60054152D01*
X104918267Y-60067995D01*
X104931026Y-60082000D01*
X104944515Y-60096220D01*
X104958772Y-60110714D01*
X104990664Y-60140858D01*
X105023592Y-60168569D01*
X105057545Y-60193846D01*
X105092514Y-60216685D01*
X105128490Y-60237083D01*
X105165463Y-60255038D01*
X105203423Y-60270547D01*
X105242362Y-60283607D01*
X105282270Y-60294215D01*
X105323136Y-60302367D01*
X105364952Y-60308063D01*
X105407709Y-60311297D01*
X105451395Y-60312069D01*
X105496003Y-60310374D01*
X105541522Y-60306210D01*
X105587944Y-60299574D01*
X105598636Y-60297553D01*
X105610192Y-60294955D01*
X105622487Y-60291827D01*
X105635397Y-60288212D01*
X105662563Y-60279712D01*
X105690696Y-60269823D01*
X105718802Y-60258914D01*
X105745884Y-60247351D01*
X105770948Y-60235503D01*
X105782412Y-60229587D01*
X105792999Y-60223738D01*
X105815387Y-60210330D01*
X105837145Y-60196177D01*
X105858259Y-60181302D01*
X105878719Y-60165728D01*
X105898513Y-60149479D01*
X105917630Y-60132576D01*
X105936058Y-60115043D01*
X105953785Y-60096902D01*
X105970800Y-60078177D01*
X105987091Y-60058890D01*
X106002647Y-60039064D01*
X106017457Y-60018722D01*
X106031508Y-59997887D01*
X106044789Y-59976581D01*
X106057289Y-59954828D01*
X106068996Y-59932650D01*
X106079898Y-59910071D01*
X106089984Y-59887112D01*
X106099243Y-59863798D01*
X106107663Y-59840150D01*
X106115232Y-59816191D01*
X106121939Y-59791946D01*
X106127772Y-59767435D01*
X106132720Y-59742683D01*
X106136771Y-59717711D01*
X106139914Y-59692544D01*
X106142137Y-59667203D01*
X106143428Y-59641712D01*
X106143777Y-59616093D01*
X106143170Y-59590369D01*
X106141598Y-59564564D01*
X106139048Y-59538699D01*
X106131285Y-59488022D01*
X106120122Y-59438713D01*
X106105652Y-59390887D01*
X106087969Y-59344657D01*
X106067165Y-59300135D01*
X106043334Y-59257434D01*
X106016570Y-59216669D01*
X105986964Y-59177952D01*
X105954611Y-59141396D01*
X105919603Y-59107115D01*
X105882034Y-59075222D01*
X105841997Y-59045829D01*
X105799585Y-59019051D01*
X105754891Y-58995000D01*
X105708008Y-58973789D01*
X105659030Y-58955532D01*
X105640975Y-58949997D01*
X105621595Y-58945008D01*
X105601060Y-58940572D01*
X105579542Y-58936700D01*
X105557213Y-58933401D01*
X105534243Y-58930682D01*
X105510805Y-58928553D01*
X105487070Y-58927022D01*
X105463208Y-58926099D01*
X105439392Y-58925792D01*
X105415793Y-58926110D01*
X105392582Y-58927062D01*
X105369930Y-58928657D01*
X105348010Y-58930904D01*
X105326992Y-58933810D01*
X105307048Y-58937387D01*
X105267709Y-58946513D01*
X105229483Y-58957709D01*
X105192409Y-58970898D01*
X105156529Y-58986005D01*
X105121883Y-59002953D01*
X105088512Y-59021668D01*
X105056456Y-59042073D01*
X105025757Y-59064093D01*
X104996454Y-59087652D01*
X104968589Y-59112674D01*
X104942201Y-59139083D01*
X104917332Y-59166804D01*
X104894023Y-59195761D01*
X104872313Y-59225879D01*
X104852244Y-59257081D01*
X104833855Y-59289292D01*
X104817189Y-59322436D01*
X104802285Y-59356437D01*
X104789183Y-59391220D01*
X104777926Y-59426709D01*
X104768552Y-59462828D01*
X104761103Y-59499501D01*
X104755620Y-59536653D01*
X104752143Y-59574207D01*
X104750712Y-59612089D01*
X104488859Y-59612089D01*
X104507681Y-59440810D01*
X104538504Y-59167710D01*
X104606916Y-58552333D01*
X104635444Y-58292963D01*
X104666049Y-58021835D01*
X104734430Y-57406458D01*
X104749438Y-57270386D01*
X104762911Y-57151819D01*
X104773384Y-57056940D01*
X104777917Y-57012554D01*
X104781182Y-56977816D01*
X104782619Y-56963629D01*
X104784450Y-56949336D01*
X104786599Y-56935325D01*
X104788991Y-56921986D01*
X104791552Y-56909706D01*
X104794206Y-56898875D01*
X104796878Y-56889880D01*
X104798197Y-56886192D01*
X104799493Y-56883110D01*
X104801703Y-56878697D01*
X104804132Y-56874514D01*
X104806768Y-56870563D01*
X104809600Y-56866846D01*
X104812616Y-56863363D01*
X104815806Y-56860117D01*
X104819157Y-56857110D01*
X104822659Y-56854343D01*
X104826300Y-56851817D01*
X104830070Y-56849536D01*
X104833955Y-56847500D01*
X104837947Y-56845711D01*
X104842032Y-56844170D01*
X104846200Y-56842881D01*
X104850439Y-56841843D01*
X104854739Y-56841059D01*
X104859087Y-56840531D01*
X104863473Y-56840261D01*
X104867885Y-56840249D01*
X104872313Y-56840499D01*
G37*
G36*
X107402229Y-58386798D02*
G01*
X107405233Y-58387592D01*
X107408166Y-58388496D01*
X107411026Y-58389511D01*
X107413811Y-58390632D01*
X107416521Y-58391858D01*
X107419152Y-58393187D01*
X107421704Y-58394616D01*
X107424176Y-58396144D01*
X107426564Y-58397769D01*
X107428869Y-58399488D01*
X107431088Y-58401299D01*
X107433219Y-58403200D01*
X107435261Y-58405188D01*
X107437213Y-58407263D01*
X107439073Y-58409421D01*
X107440839Y-58411661D01*
X107442509Y-58413980D01*
X107444083Y-58416376D01*
X107445557Y-58418847D01*
X107446932Y-58421392D01*
X107448205Y-58424007D01*
X107449374Y-58426691D01*
X107450439Y-58429441D01*
X107451396Y-58432256D01*
X107452246Y-58435134D01*
X107452985Y-58438071D01*
X107453614Y-58441067D01*
X107454129Y-58444118D01*
X107454529Y-58447224D01*
X107454814Y-58450381D01*
X107454980Y-58453587D01*
X107455027Y-58456841D01*
X107454952Y-58463311D01*
X107454752Y-58469176D01*
X107454395Y-58474495D01*
X107453850Y-58479326D01*
X107453087Y-58483731D01*
X107452075Y-58487768D01*
X107451465Y-58489667D01*
X107450781Y-58491496D01*
X107450020Y-58493264D01*
X107449176Y-58494976D01*
X107448247Y-58496641D01*
X107447228Y-58498266D01*
X107446115Y-58499859D01*
X107444905Y-58501427D01*
X107442178Y-58504517D01*
X107439015Y-58507596D01*
X107435384Y-58510724D01*
X107431255Y-58513959D01*
X107426597Y-58517363D01*
X107421378Y-58520993D01*
X107419325Y-58522206D01*
X107416709Y-58523349D01*
X107413359Y-58524425D01*
X107409103Y-58525434D01*
X107403771Y-58526379D01*
X107397190Y-58527262D01*
X107379598Y-58528849D01*
X107354957Y-58530213D01*
X107321896Y-58531368D01*
X107279046Y-58532332D01*
X107225035Y-58533120D01*
X107158494Y-58533748D01*
X107078050Y-58534232D01*
X106869976Y-58534834D01*
X106589849Y-58535054D01*
X106226704Y-58535022D01*
X105272623Y-58532574D01*
X105087518Y-58529020D01*
X105044867Y-58526438D01*
X105026692Y-58523234D01*
X105026692Y-58523237D01*
X105023978Y-58521995D01*
X105021284Y-58520642D01*
X105018626Y-58519191D01*
X105016020Y-58517655D01*
X105013484Y-58516047D01*
X105011033Y-58514380D01*
X105008683Y-58512669D01*
X105006451Y-58510925D01*
X105004354Y-58509162D01*
X105002407Y-58507394D01*
X105000627Y-58505634D01*
X104999031Y-58503894D01*
X104997634Y-58502189D01*
X104996454Y-58500531D01*
X104995505Y-58498934D01*
X104994806Y-58497411D01*
X104993010Y-58492090D01*
X104991575Y-58486457D01*
X104990493Y-58480570D01*
X104989758Y-58474485D01*
X104989364Y-58468260D01*
X104989303Y-58461952D01*
X104989568Y-58455618D01*
X104990153Y-58449314D01*
X104991051Y-58443099D01*
X104992256Y-58437028D01*
X104993760Y-58431161D01*
X104995557Y-58425552D01*
X104997639Y-58420260D01*
X105000001Y-58415342D01*
X105002636Y-58410855D01*
X105005536Y-58406856D01*
X105021789Y-58386818D01*
X106202335Y-58384462D01*
X107041779Y-58384178D01*
X107402229Y-58386798D01*
G37*
D11*
X189575238Y-89461004D02*
X189575238Y-90389576D01*
X189575238Y-90389576D02*
X189513333Y-90575290D01*
X189513333Y-90575290D02*
X189389524Y-90699100D01*
X189389524Y-90699100D02*
X189203809Y-90761004D01*
X189203809Y-90761004D02*
X189080000Y-90761004D01*
X190813333Y-90761004D02*
X190194285Y-90761004D01*
X190194285Y-90761004D02*
X190194285Y-89461004D01*
X191989523Y-90637195D02*
X191927619Y-90699100D01*
X191927619Y-90699100D02*
X191741904Y-90761004D01*
X191741904Y-90761004D02*
X191618095Y-90761004D01*
X191618095Y-90761004D02*
X191432381Y-90699100D01*
X191432381Y-90699100D02*
X191308571Y-90575290D01*
X191308571Y-90575290D02*
X191246666Y-90451480D01*
X191246666Y-90451480D02*
X191184762Y-90203861D01*
X191184762Y-90203861D02*
X191184762Y-90018147D01*
X191184762Y-90018147D02*
X191246666Y-89770528D01*
X191246666Y-89770528D02*
X191308571Y-89646719D01*
X191308571Y-89646719D02*
X191432381Y-89522909D01*
X191432381Y-89522909D02*
X191618095Y-89461004D01*
X191618095Y-89461004D02*
X191741904Y-89461004D01*
X191741904Y-89461004D02*
X191927619Y-89522909D01*
X191927619Y-89522909D02*
X191989523Y-89584814D01*
X192918095Y-89461004D02*
X192918095Y-90389576D01*
X192918095Y-90389576D02*
X192856190Y-90575290D01*
X192856190Y-90575290D02*
X192732381Y-90699100D01*
X192732381Y-90699100D02*
X192546666Y-90761004D01*
X192546666Y-90761004D02*
X192422857Y-90761004D01*
X194156190Y-90761004D02*
X193537142Y-90761004D01*
X193537142Y-90761004D02*
X193537142Y-89461004D01*
X195332380Y-90637195D02*
X195270476Y-90699100D01*
X195270476Y-90699100D02*
X195084761Y-90761004D01*
X195084761Y-90761004D02*
X194960952Y-90761004D01*
X194960952Y-90761004D02*
X194775238Y-90699100D01*
X194775238Y-90699100D02*
X194651428Y-90575290D01*
X194651428Y-90575290D02*
X194589523Y-90451480D01*
X194589523Y-90451480D02*
X194527619Y-90203861D01*
X194527619Y-90203861D02*
X194527619Y-90018147D01*
X194527619Y-90018147D02*
X194589523Y-89770528D01*
X194589523Y-89770528D02*
X194651428Y-89646719D01*
X194651428Y-89646719D02*
X194775238Y-89522909D01*
X194775238Y-89522909D02*
X194960952Y-89461004D01*
X194960952Y-89461004D02*
X195084761Y-89461004D01*
X195084761Y-89461004D02*
X195270476Y-89522909D01*
X195270476Y-89522909D02*
X195332380Y-89584814D01*
X196260952Y-89461004D02*
X196260952Y-90389576D01*
X196260952Y-90389576D02*
X196199047Y-90575290D01*
X196199047Y-90575290D02*
X196075238Y-90699100D01*
X196075238Y-90699100D02*
X195889523Y-90761004D01*
X195889523Y-90761004D02*
X195765714Y-90761004D01*
X197499047Y-90761004D02*
X196879999Y-90761004D01*
X196879999Y-90761004D02*
X196879999Y-89461004D01*
X198675237Y-90637195D02*
X198613333Y-90699100D01*
X198613333Y-90699100D02*
X198427618Y-90761004D01*
X198427618Y-90761004D02*
X198303809Y-90761004D01*
X198303809Y-90761004D02*
X198118095Y-90699100D01*
X198118095Y-90699100D02*
X197994285Y-90575290D01*
X197994285Y-90575290D02*
X197932380Y-90451480D01*
X197932380Y-90451480D02*
X197870476Y-90203861D01*
X197870476Y-90203861D02*
X197870476Y-90018147D01*
X197870476Y-90018147D02*
X197932380Y-89770528D01*
X197932380Y-89770528D02*
X197994285Y-89646719D01*
X197994285Y-89646719D02*
X198118095Y-89522909D01*
X198118095Y-89522909D02*
X198303809Y-89461004D01*
X198303809Y-89461004D02*
X198427618Y-89461004D01*
X198427618Y-89461004D02*
X198613333Y-89522909D01*
X198613333Y-89522909D02*
X198675237Y-89584814D01*
X199603809Y-89461004D02*
X199603809Y-90389576D01*
X199603809Y-90389576D02*
X199541904Y-90575290D01*
X199541904Y-90575290D02*
X199418095Y-90699100D01*
X199418095Y-90699100D02*
X199232380Y-90761004D01*
X199232380Y-90761004D02*
X199108571Y-90761004D01*
X200841904Y-90761004D02*
X200222856Y-90761004D01*
X200222856Y-90761004D02*
X200222856Y-89461004D01*
X202018094Y-90637195D02*
X201956190Y-90699100D01*
X201956190Y-90699100D02*
X201770475Y-90761004D01*
X201770475Y-90761004D02*
X201646666Y-90761004D01*
X201646666Y-90761004D02*
X201460952Y-90699100D01*
X201460952Y-90699100D02*
X201337142Y-90575290D01*
X201337142Y-90575290D02*
X201275237Y-90451480D01*
X201275237Y-90451480D02*
X201213333Y-90203861D01*
X201213333Y-90203861D02*
X201213333Y-90018147D01*
X201213333Y-90018147D02*
X201275237Y-89770528D01*
X201275237Y-89770528D02*
X201337142Y-89646719D01*
X201337142Y-89646719D02*
X201460952Y-89522909D01*
X201460952Y-89522909D02*
X201646666Y-89461004D01*
X201646666Y-89461004D02*
X201770475Y-89461004D01*
X201770475Y-89461004D02*
X201956190Y-89522909D01*
X201956190Y-89522909D02*
X202018094Y-89584814D01*
X210058095Y-59207933D02*
X211581905Y-59207933D01*
X210820000Y-59969838D02*
X210820000Y-58446028D01*
X108542857Y-58981004D02*
X108542857Y-60033385D01*
X108542857Y-60033385D02*
X108604762Y-60157195D01*
X108604762Y-60157195D02*
X108666667Y-60219100D01*
X108666667Y-60219100D02*
X108790476Y-60281004D01*
X108790476Y-60281004D02*
X109038095Y-60281004D01*
X109038095Y-60281004D02*
X109161905Y-60219100D01*
X109161905Y-60219100D02*
X109223810Y-60157195D01*
X109223810Y-60157195D02*
X109285714Y-60033385D01*
X109285714Y-60033385D02*
X109285714Y-58981004D01*
X110647619Y-60157195D02*
X110585715Y-60219100D01*
X110585715Y-60219100D02*
X110400000Y-60281004D01*
X110400000Y-60281004D02*
X110276191Y-60281004D01*
X110276191Y-60281004D02*
X110090477Y-60219100D01*
X110090477Y-60219100D02*
X109966667Y-60095290D01*
X109966667Y-60095290D02*
X109904762Y-59971480D01*
X109904762Y-59971480D02*
X109842858Y-59723861D01*
X109842858Y-59723861D02*
X109842858Y-59538147D01*
X109842858Y-59538147D02*
X109904762Y-59290528D01*
X109904762Y-59290528D02*
X109966667Y-59166719D01*
X109966667Y-59166719D02*
X110090477Y-59042909D01*
X110090477Y-59042909D02*
X110276191Y-58981004D01*
X110276191Y-58981004D02*
X110400000Y-58981004D01*
X110400000Y-58981004D02*
X110585715Y-59042909D01*
X110585715Y-59042909D02*
X110647619Y-59104814D01*
X111638096Y-59600052D02*
X111823810Y-59661957D01*
X111823810Y-59661957D02*
X111885715Y-59723861D01*
X111885715Y-59723861D02*
X111947619Y-59847671D01*
X111947619Y-59847671D02*
X111947619Y-60033385D01*
X111947619Y-60033385D02*
X111885715Y-60157195D01*
X111885715Y-60157195D02*
X111823810Y-60219100D01*
X111823810Y-60219100D02*
X111700000Y-60281004D01*
X111700000Y-60281004D02*
X111204762Y-60281004D01*
X111204762Y-60281004D02*
X111204762Y-58981004D01*
X111204762Y-58981004D02*
X111638096Y-58981004D01*
X111638096Y-58981004D02*
X111761905Y-59042909D01*
X111761905Y-59042909D02*
X111823810Y-59104814D01*
X111823810Y-59104814D02*
X111885715Y-59228623D01*
X111885715Y-59228623D02*
X111885715Y-59352433D01*
X111885715Y-59352433D02*
X111823810Y-59476242D01*
X111823810Y-59476242D02*
X111761905Y-59538147D01*
X111761905Y-59538147D02*
X111638096Y-59600052D01*
X111638096Y-59600052D02*
X111204762Y-59600052D01*
X112504762Y-59785766D02*
X113495239Y-59785766D01*
X114114286Y-60281004D02*
X114114286Y-58981004D01*
X114114286Y-58981004D02*
X114547620Y-59909576D01*
X114547620Y-59909576D02*
X114980953Y-58981004D01*
X114980953Y-58981004D02*
X114980953Y-60281004D01*
X115600000Y-60281004D02*
X115600000Y-58981004D01*
X115600000Y-59600052D02*
X116342857Y-59600052D01*
X116342857Y-60281004D02*
X116342857Y-58981004D01*
X117642858Y-60281004D02*
X116900001Y-60281004D01*
X117271429Y-60281004D02*
X117271429Y-58981004D01*
X117271429Y-58981004D02*
X117147620Y-59166719D01*
X117147620Y-59166719D02*
X117023810Y-59290528D01*
X117023810Y-59290528D02*
X116900001Y-59352433D01*
X118447619Y-58981004D02*
X118571429Y-58981004D01*
X118571429Y-58981004D02*
X118695238Y-59042909D01*
X118695238Y-59042909D02*
X118757143Y-59104814D01*
X118757143Y-59104814D02*
X118819048Y-59228623D01*
X118819048Y-59228623D02*
X118880953Y-59476242D01*
X118880953Y-59476242D02*
X118880953Y-59785766D01*
X118880953Y-59785766D02*
X118819048Y-60033385D01*
X118819048Y-60033385D02*
X118757143Y-60157195D01*
X118757143Y-60157195D02*
X118695238Y-60219100D01*
X118695238Y-60219100D02*
X118571429Y-60281004D01*
X118571429Y-60281004D02*
X118447619Y-60281004D01*
X118447619Y-60281004D02*
X118323810Y-60219100D01*
X118323810Y-60219100D02*
X118261905Y-60157195D01*
X118261905Y-60157195D02*
X118200000Y-60033385D01*
X118200000Y-60033385D02*
X118138096Y-59785766D01*
X118138096Y-59785766D02*
X118138096Y-59476242D01*
X118138096Y-59476242D02*
X118200000Y-59228623D01*
X118200000Y-59228623D02*
X118261905Y-59104814D01*
X118261905Y-59104814D02*
X118323810Y-59042909D01*
X118323810Y-59042909D02*
X118447619Y-58981004D01*
X119995238Y-58981004D02*
X119747619Y-58981004D01*
X119747619Y-58981004D02*
X119623810Y-59042909D01*
X119623810Y-59042909D02*
X119561905Y-59104814D01*
X119561905Y-59104814D02*
X119438095Y-59290528D01*
X119438095Y-59290528D02*
X119376191Y-59538147D01*
X119376191Y-59538147D02*
X119376191Y-60033385D01*
X119376191Y-60033385D02*
X119438095Y-60157195D01*
X119438095Y-60157195D02*
X119500000Y-60219100D01*
X119500000Y-60219100D02*
X119623810Y-60281004D01*
X119623810Y-60281004D02*
X119871429Y-60281004D01*
X119871429Y-60281004D02*
X119995238Y-60219100D01*
X119995238Y-60219100D02*
X120057143Y-60157195D01*
X120057143Y-60157195D02*
X120119048Y-60033385D01*
X120119048Y-60033385D02*
X120119048Y-59723861D01*
X120119048Y-59723861D02*
X120057143Y-59600052D01*
X120057143Y-59600052D02*
X119995238Y-59538147D01*
X119995238Y-59538147D02*
X119871429Y-59476242D01*
X119871429Y-59476242D02*
X119623810Y-59476242D01*
X119623810Y-59476242D02*
X119500000Y-59538147D01*
X119500000Y-59538147D02*
X119438095Y-59600052D01*
X119438095Y-59600052D02*
X119376191Y-59723861D01*
X210428504Y-83427856D02*
X210428504Y-83304046D01*
X210428504Y-83304046D02*
X210490409Y-83180237D01*
X210490409Y-83180237D02*
X210552314Y-83118332D01*
X210552314Y-83118332D02*
X210676123Y-83056427D01*
X210676123Y-83056427D02*
X210923742Y-82994522D01*
X210923742Y-82994522D02*
X211233266Y-82994522D01*
X211233266Y-82994522D02*
X211480885Y-83056427D01*
X211480885Y-83056427D02*
X211604695Y-83118332D01*
X211604695Y-83118332D02*
X211666600Y-83180237D01*
X211666600Y-83180237D02*
X211728504Y-83304046D01*
X211728504Y-83304046D02*
X211728504Y-83427856D01*
X211728504Y-83427856D02*
X211666600Y-83551665D01*
X211666600Y-83551665D02*
X211604695Y-83613570D01*
X211604695Y-83613570D02*
X211480885Y-83675475D01*
X211480885Y-83675475D02*
X211233266Y-83737379D01*
X211233266Y-83737379D02*
X210923742Y-83737379D01*
X210923742Y-83737379D02*
X210676123Y-83675475D01*
X210676123Y-83675475D02*
X210552314Y-83613570D01*
X210552314Y-83613570D02*
X210490409Y-83551665D01*
X210490409Y-83551665D02*
X210428504Y-83427856D01*
X210428504Y-81818332D02*
X210428504Y-82437380D01*
X210428504Y-82437380D02*
X211047552Y-82499284D01*
X211047552Y-82499284D02*
X210985647Y-82437380D01*
X210985647Y-82437380D02*
X210923742Y-82313570D01*
X210923742Y-82313570D02*
X210923742Y-82004046D01*
X210923742Y-82004046D02*
X210985647Y-81880237D01*
X210985647Y-81880237D02*
X211047552Y-81818332D01*
X211047552Y-81818332D02*
X211171361Y-81756427D01*
X211171361Y-81756427D02*
X211480885Y-81756427D01*
X211480885Y-81756427D02*
X211604695Y-81818332D01*
X211604695Y-81818332D02*
X211666600Y-81880237D01*
X211666600Y-81880237D02*
X211728504Y-82004046D01*
X211728504Y-82004046D02*
X211728504Y-82313570D01*
X211728504Y-82313570D02*
X211666600Y-82437380D01*
X211666600Y-82437380D02*
X211604695Y-82499284D01*
X210366600Y-80270713D02*
X212038028Y-81384999D01*
X210552314Y-79899284D02*
X210490409Y-79837380D01*
X210490409Y-79837380D02*
X210428504Y-79713570D01*
X210428504Y-79713570D02*
X210428504Y-79404046D01*
X210428504Y-79404046D02*
X210490409Y-79280237D01*
X210490409Y-79280237D02*
X210552314Y-79218332D01*
X210552314Y-79218332D02*
X210676123Y-79156427D01*
X210676123Y-79156427D02*
X210799933Y-79156427D01*
X210799933Y-79156427D02*
X210985647Y-79218332D01*
X210985647Y-79218332D02*
X211728504Y-79961189D01*
X211728504Y-79961189D02*
X211728504Y-79156427D01*
X210861838Y-78042142D02*
X211728504Y-78042142D01*
X210366600Y-78351666D02*
X211295171Y-78661189D01*
X211295171Y-78661189D02*
X211295171Y-77856428D01*
X211728504Y-76370714D02*
X210861838Y-76370714D01*
X211109457Y-76370714D02*
X210985647Y-76308809D01*
X210985647Y-76308809D02*
X210923742Y-76246904D01*
X210923742Y-76246904D02*
X210861838Y-76123095D01*
X210861838Y-76123095D02*
X210861838Y-75999285D01*
X211666600Y-75070714D02*
X211728504Y-75194523D01*
X211728504Y-75194523D02*
X211728504Y-75442142D01*
X211728504Y-75442142D02*
X211666600Y-75565952D01*
X211666600Y-75565952D02*
X211542790Y-75627856D01*
X211542790Y-75627856D02*
X211047552Y-75627856D01*
X211047552Y-75627856D02*
X210923742Y-75565952D01*
X210923742Y-75565952D02*
X210861838Y-75442142D01*
X210861838Y-75442142D02*
X210861838Y-75194523D01*
X210861838Y-75194523D02*
X210923742Y-75070714D01*
X210923742Y-75070714D02*
X211047552Y-75008809D01*
X211047552Y-75008809D02*
X211171361Y-75008809D01*
X211171361Y-75008809D02*
X211295171Y-75627856D01*
X210861838Y-74575475D02*
X211728504Y-74265951D01*
X211728504Y-74265951D02*
X210861838Y-73956428D01*
X211728504Y-71789761D02*
X211728504Y-72532618D01*
X211728504Y-72161190D02*
X210428504Y-72161190D01*
X210428504Y-72161190D02*
X210614219Y-72284999D01*
X210614219Y-72284999D02*
X210738028Y-72408809D01*
X210738028Y-72408809D02*
X210799933Y-72532618D01*
X211604695Y-71232619D02*
X211666600Y-71170714D01*
X211666600Y-71170714D02*
X211728504Y-71232619D01*
X211728504Y-71232619D02*
X211666600Y-71294523D01*
X211666600Y-71294523D02*
X211604695Y-71232619D01*
X211604695Y-71232619D02*
X211728504Y-71232619D01*
X210552314Y-70675475D02*
X210490409Y-70613571D01*
X210490409Y-70613571D02*
X210428504Y-70489761D01*
X210428504Y-70489761D02*
X210428504Y-70180237D01*
X210428504Y-70180237D02*
X210490409Y-70056428D01*
X210490409Y-70056428D02*
X210552314Y-69994523D01*
X210552314Y-69994523D02*
X210676123Y-69932618D01*
X210676123Y-69932618D02*
X210799933Y-69932618D01*
X210799933Y-69932618D02*
X210985647Y-69994523D01*
X210985647Y-69994523D02*
X211728504Y-70737380D01*
X211728504Y-70737380D02*
X211728504Y-69932618D01*
D12*
X94234048Y-80718866D02*
X94995953Y-80718866D01*
X94615000Y-81099819D02*
X94615000Y-80337914D01*
X190960476Y-95974819D02*
X191293809Y-96974819D01*
X191293809Y-96974819D02*
X191627142Y-95974819D01*
X192389047Y-95974819D02*
X192198571Y-95974819D01*
X192198571Y-95974819D02*
X192103333Y-96022438D01*
X192103333Y-96022438D02*
X192055714Y-96070057D01*
X192055714Y-96070057D02*
X191960476Y-96212914D01*
X191960476Y-96212914D02*
X191912857Y-96403390D01*
X191912857Y-96403390D02*
X191912857Y-96784342D01*
X191912857Y-96784342D02*
X191960476Y-96879580D01*
X191960476Y-96879580D02*
X192008095Y-96927200D01*
X192008095Y-96927200D02*
X192103333Y-96974819D01*
X192103333Y-96974819D02*
X192293809Y-96974819D01*
X192293809Y-96974819D02*
X192389047Y-96927200D01*
X192389047Y-96927200D02*
X192436666Y-96879580D01*
X192436666Y-96879580D02*
X192484285Y-96784342D01*
X192484285Y-96784342D02*
X192484285Y-96546247D01*
X192484285Y-96546247D02*
X192436666Y-96451009D01*
X192436666Y-96451009D02*
X192389047Y-96403390D01*
X192389047Y-96403390D02*
X192293809Y-96355771D01*
X192293809Y-96355771D02*
X192103333Y-96355771D01*
X192103333Y-96355771D02*
X192008095Y-96403390D01*
X192008095Y-96403390D02*
X191960476Y-96451009D01*
X191960476Y-96451009D02*
X191912857Y-96546247D01*
X184840595Y-96974819D02*
X184840595Y-95974819D01*
X185412023Y-96974819D02*
X184983452Y-96403390D01*
X185412023Y-95974819D02*
X184840595Y-96546247D01*
X203509642Y-96974819D02*
X203176309Y-96498628D01*
X202938214Y-96974819D02*
X202938214Y-95974819D01*
X202938214Y-95974819D02*
X203319166Y-95974819D01*
X203319166Y-95974819D02*
X203414404Y-96022438D01*
X203414404Y-96022438D02*
X203462023Y-96070057D01*
X203462023Y-96070057D02*
X203509642Y-96165295D01*
X203509642Y-96165295D02*
X203509642Y-96308152D01*
X203509642Y-96308152D02*
X203462023Y-96403390D01*
X203462023Y-96403390D02*
X203414404Y-96451009D01*
X203414404Y-96451009D02*
X203319166Y-96498628D01*
X203319166Y-96498628D02*
X202938214Y-96498628D01*
X204462023Y-96974819D02*
X203890595Y-96974819D01*
X204176309Y-96974819D02*
X204176309Y-95974819D01*
X204176309Y-95974819D02*
X204081071Y-96117676D01*
X204081071Y-96117676D02*
X203985833Y-96212914D01*
X203985833Y-96212914D02*
X203890595Y-96260533D01*
X205319166Y-95974819D02*
X205128690Y-95974819D01*
X205128690Y-95974819D02*
X205033452Y-96022438D01*
X205033452Y-96022438D02*
X204985833Y-96070057D01*
X204985833Y-96070057D02*
X204890595Y-96212914D01*
X204890595Y-96212914D02*
X204842976Y-96403390D01*
X204842976Y-96403390D02*
X204842976Y-96784342D01*
X204842976Y-96784342D02*
X204890595Y-96879580D01*
X204890595Y-96879580D02*
X204938214Y-96927200D01*
X204938214Y-96927200D02*
X205033452Y-96974819D01*
X205033452Y-96974819D02*
X205223928Y-96974819D01*
X205223928Y-96974819D02*
X205319166Y-96927200D01*
X205319166Y-96927200D02*
X205366785Y-96879580D01*
X205366785Y-96879580D02*
X205414404Y-96784342D01*
X205414404Y-96784342D02*
X205414404Y-96546247D01*
X205414404Y-96546247D02*
X205366785Y-96451009D01*
X205366785Y-96451009D02*
X205319166Y-96403390D01*
X205319166Y-96403390D02*
X205223928Y-96355771D01*
X205223928Y-96355771D02*
X205033452Y-96355771D01*
X205033452Y-96355771D02*
X204938214Y-96403390D01*
X204938214Y-96403390D02*
X204890595Y-96451009D01*
X204890595Y-96451009D02*
X204842976Y-96546247D01*
X100784819Y-72397857D02*
X100308628Y-72731190D01*
X100784819Y-72969285D02*
X99784819Y-72969285D01*
X99784819Y-72969285D02*
X99784819Y-72588333D01*
X99784819Y-72588333D02*
X99832438Y-72493095D01*
X99832438Y-72493095D02*
X99880057Y-72445476D01*
X99880057Y-72445476D02*
X99975295Y-72397857D01*
X99975295Y-72397857D02*
X100118152Y-72397857D01*
X100118152Y-72397857D02*
X100213390Y-72445476D01*
X100213390Y-72445476D02*
X100261009Y-72493095D01*
X100261009Y-72493095D02*
X100308628Y-72588333D01*
X100308628Y-72588333D02*
X100308628Y-72969285D01*
X100784819Y-71445476D02*
X100784819Y-72016904D01*
X100784819Y-71731190D02*
X99784819Y-71731190D01*
X99784819Y-71731190D02*
X99927676Y-71826428D01*
X99927676Y-71826428D02*
X100022914Y-71921666D01*
X100022914Y-71921666D02*
X100070533Y-72016904D01*
X99784819Y-70540714D02*
X99784819Y-71016904D01*
X99784819Y-71016904D02*
X100261009Y-71064523D01*
X100261009Y-71064523D02*
X100213390Y-71016904D01*
X100213390Y-71016904D02*
X100165771Y-70921666D01*
X100165771Y-70921666D02*
X100165771Y-70683571D01*
X100165771Y-70683571D02*
X100213390Y-70588333D01*
X100213390Y-70588333D02*
X100261009Y-70540714D01*
X100261009Y-70540714D02*
X100356247Y-70493095D01*
X100356247Y-70493095D02*
X100594342Y-70493095D01*
X100594342Y-70493095D02*
X100689580Y-70540714D01*
X100689580Y-70540714D02*
X100737200Y-70588333D01*
X100737200Y-70588333D02*
X100784819Y-70683571D01*
X100784819Y-70683571D02*
X100784819Y-70921666D01*
X100784819Y-70921666D02*
X100737200Y-71016904D01*
X100737200Y-71016904D02*
X100689580Y-71064523D01*
X176254580Y-104742857D02*
X176302200Y-104790476D01*
X176302200Y-104790476D02*
X176349819Y-104933333D01*
X176349819Y-104933333D02*
X176349819Y-105028571D01*
X176349819Y-105028571D02*
X176302200Y-105171428D01*
X176302200Y-105171428D02*
X176206961Y-105266666D01*
X176206961Y-105266666D02*
X176111723Y-105314285D01*
X176111723Y-105314285D02*
X175921247Y-105361904D01*
X175921247Y-105361904D02*
X175778390Y-105361904D01*
X175778390Y-105361904D02*
X175587914Y-105314285D01*
X175587914Y-105314285D02*
X175492676Y-105266666D01*
X175492676Y-105266666D02*
X175397438Y-105171428D01*
X175397438Y-105171428D02*
X175349819Y-105028571D01*
X175349819Y-105028571D02*
X175349819Y-104933333D01*
X175349819Y-104933333D02*
X175397438Y-104790476D01*
X175397438Y-104790476D02*
X175445057Y-104742857D01*
X176349819Y-103790476D02*
X176349819Y-104361904D01*
X176349819Y-104076190D02*
X175349819Y-104076190D01*
X175349819Y-104076190D02*
X175492676Y-104171428D01*
X175492676Y-104171428D02*
X175587914Y-104266666D01*
X175587914Y-104266666D02*
X175635533Y-104361904D01*
X175349819Y-102933333D02*
X175349819Y-103123809D01*
X175349819Y-103123809D02*
X175397438Y-103219047D01*
X175397438Y-103219047D02*
X175445057Y-103266666D01*
X175445057Y-103266666D02*
X175587914Y-103361904D01*
X175587914Y-103361904D02*
X175778390Y-103409523D01*
X175778390Y-103409523D02*
X176159342Y-103409523D01*
X176159342Y-103409523D02*
X176254580Y-103361904D01*
X176254580Y-103361904D02*
X176302200Y-103314285D01*
X176302200Y-103314285D02*
X176349819Y-103219047D01*
X176349819Y-103219047D02*
X176349819Y-103028571D01*
X176349819Y-103028571D02*
X176302200Y-102933333D01*
X176302200Y-102933333D02*
X176254580Y-102885714D01*
X176254580Y-102885714D02*
X176159342Y-102838095D01*
X176159342Y-102838095D02*
X175921247Y-102838095D01*
X175921247Y-102838095D02*
X175826009Y-102885714D01*
X175826009Y-102885714D02*
X175778390Y-102933333D01*
X175778390Y-102933333D02*
X175730771Y-103028571D01*
X175730771Y-103028571D02*
X175730771Y-103219047D01*
X175730771Y-103219047D02*
X175778390Y-103314285D01*
X175778390Y-103314285D02*
X175826009Y-103361904D01*
X175826009Y-103361904D02*
X175921247Y-103409523D01*
X163028333Y-81734819D02*
X162695000Y-81258628D01*
X162456905Y-81734819D02*
X162456905Y-80734819D01*
X162456905Y-80734819D02*
X162837857Y-80734819D01*
X162837857Y-80734819D02*
X162933095Y-80782438D01*
X162933095Y-80782438D02*
X162980714Y-80830057D01*
X162980714Y-80830057D02*
X163028333Y-80925295D01*
X163028333Y-80925295D02*
X163028333Y-81068152D01*
X163028333Y-81068152D02*
X162980714Y-81163390D01*
X162980714Y-81163390D02*
X162933095Y-81211009D01*
X162933095Y-81211009D02*
X162837857Y-81258628D01*
X162837857Y-81258628D02*
X162456905Y-81258628D01*
X163504524Y-81734819D02*
X163695000Y-81734819D01*
X163695000Y-81734819D02*
X163790238Y-81687200D01*
X163790238Y-81687200D02*
X163837857Y-81639580D01*
X163837857Y-81639580D02*
X163933095Y-81496723D01*
X163933095Y-81496723D02*
X163980714Y-81306247D01*
X163980714Y-81306247D02*
X163980714Y-80925295D01*
X163980714Y-80925295D02*
X163933095Y-80830057D01*
X163933095Y-80830057D02*
X163885476Y-80782438D01*
X163885476Y-80782438D02*
X163790238Y-80734819D01*
X163790238Y-80734819D02*
X163599762Y-80734819D01*
X163599762Y-80734819D02*
X163504524Y-80782438D01*
X163504524Y-80782438D02*
X163456905Y-80830057D01*
X163456905Y-80830057D02*
X163409286Y-80925295D01*
X163409286Y-80925295D02*
X163409286Y-81163390D01*
X163409286Y-81163390D02*
X163456905Y-81258628D01*
X163456905Y-81258628D02*
X163504524Y-81306247D01*
X163504524Y-81306247D02*
X163599762Y-81353866D01*
X163599762Y-81353866D02*
X163790238Y-81353866D01*
X163790238Y-81353866D02*
X163885476Y-81306247D01*
X163885476Y-81306247D02*
X163933095Y-81258628D01*
X163933095Y-81258628D02*
X163980714Y-81163390D01*
X94044819Y-62384523D02*
X95044819Y-61717857D01*
X94044819Y-61717857D02*
X95044819Y-62384523D01*
X94044819Y-60860714D02*
X94044819Y-61336904D01*
X94044819Y-61336904D02*
X94521009Y-61384523D01*
X94521009Y-61384523D02*
X94473390Y-61336904D01*
X94473390Y-61336904D02*
X94425771Y-61241666D01*
X94425771Y-61241666D02*
X94425771Y-61003571D01*
X94425771Y-61003571D02*
X94473390Y-60908333D01*
X94473390Y-60908333D02*
X94521009Y-60860714D01*
X94521009Y-60860714D02*
X94616247Y-60813095D01*
X94616247Y-60813095D02*
X94854342Y-60813095D01*
X94854342Y-60813095D02*
X94949580Y-60860714D01*
X94949580Y-60860714D02*
X94997200Y-60908333D01*
X94997200Y-60908333D02*
X95044819Y-61003571D01*
X95044819Y-61003571D02*
X95044819Y-61241666D01*
X95044819Y-61241666D02*
X94997200Y-61336904D01*
X94997200Y-61336904D02*
X94949580Y-61384523D01*
X107674580Y-87836666D02*
X107722200Y-87884285D01*
X107722200Y-87884285D02*
X107769819Y-88027142D01*
X107769819Y-88027142D02*
X107769819Y-88122380D01*
X107769819Y-88122380D02*
X107722200Y-88265237D01*
X107722200Y-88265237D02*
X107626961Y-88360475D01*
X107626961Y-88360475D02*
X107531723Y-88408094D01*
X107531723Y-88408094D02*
X107341247Y-88455713D01*
X107341247Y-88455713D02*
X107198390Y-88455713D01*
X107198390Y-88455713D02*
X107007914Y-88408094D01*
X107007914Y-88408094D02*
X106912676Y-88360475D01*
X106912676Y-88360475D02*
X106817438Y-88265237D01*
X106817438Y-88265237D02*
X106769819Y-88122380D01*
X106769819Y-88122380D02*
X106769819Y-88027142D01*
X106769819Y-88027142D02*
X106817438Y-87884285D01*
X106817438Y-87884285D02*
X106865057Y-87836666D01*
X106769819Y-87503332D02*
X106769819Y-86884285D01*
X106769819Y-86884285D02*
X107150771Y-87217618D01*
X107150771Y-87217618D02*
X107150771Y-87074761D01*
X107150771Y-87074761D02*
X107198390Y-86979523D01*
X107198390Y-86979523D02*
X107246009Y-86931904D01*
X107246009Y-86931904D02*
X107341247Y-86884285D01*
X107341247Y-86884285D02*
X107579342Y-86884285D01*
X107579342Y-86884285D02*
X107674580Y-86931904D01*
X107674580Y-86931904D02*
X107722200Y-86979523D01*
X107722200Y-86979523D02*
X107769819Y-87074761D01*
X107769819Y-87074761D02*
X107769819Y-87360475D01*
X107769819Y-87360475D02*
X107722200Y-87455713D01*
X107722200Y-87455713D02*
X107674580Y-87503332D01*
X94069819Y-68754523D02*
X95069819Y-68087857D01*
X94069819Y-68087857D02*
X95069819Y-68754523D01*
X94403152Y-67278333D02*
X95069819Y-67278333D01*
X94022200Y-67516428D02*
X94736485Y-67754523D01*
X94736485Y-67754523D02*
X94736485Y-67135476D01*
X185316905Y-65224819D02*
X185316905Y-64224819D01*
X185316905Y-64224819D02*
X185555000Y-64224819D01*
X185555000Y-64224819D02*
X185697857Y-64272438D01*
X185697857Y-64272438D02*
X185793095Y-64367676D01*
X185793095Y-64367676D02*
X185840714Y-64462914D01*
X185840714Y-64462914D02*
X185888333Y-64653390D01*
X185888333Y-64653390D02*
X185888333Y-64796247D01*
X185888333Y-64796247D02*
X185840714Y-64986723D01*
X185840714Y-64986723D02*
X185793095Y-65081961D01*
X185793095Y-65081961D02*
X185697857Y-65177200D01*
X185697857Y-65177200D02*
X185555000Y-65224819D01*
X185555000Y-65224819D02*
X185316905Y-65224819D01*
X186221667Y-64224819D02*
X186840714Y-64224819D01*
X186840714Y-64224819D02*
X186507381Y-64605771D01*
X186507381Y-64605771D02*
X186650238Y-64605771D01*
X186650238Y-64605771D02*
X186745476Y-64653390D01*
X186745476Y-64653390D02*
X186793095Y-64701009D01*
X186793095Y-64701009D02*
X186840714Y-64796247D01*
X186840714Y-64796247D02*
X186840714Y-65034342D01*
X186840714Y-65034342D02*
X186793095Y-65129580D01*
X186793095Y-65129580D02*
X186745476Y-65177200D01*
X186745476Y-65177200D02*
X186650238Y-65224819D01*
X186650238Y-65224819D02*
X186364524Y-65224819D01*
X186364524Y-65224819D02*
X186269286Y-65177200D01*
X186269286Y-65177200D02*
X186221667Y-65129580D01*
X122374819Y-104147857D02*
X121898628Y-104481190D01*
X122374819Y-104719285D02*
X121374819Y-104719285D01*
X121374819Y-104719285D02*
X121374819Y-104338333D01*
X121374819Y-104338333D02*
X121422438Y-104243095D01*
X121422438Y-104243095D02*
X121470057Y-104195476D01*
X121470057Y-104195476D02*
X121565295Y-104147857D01*
X121565295Y-104147857D02*
X121708152Y-104147857D01*
X121708152Y-104147857D02*
X121803390Y-104195476D01*
X121803390Y-104195476D02*
X121851009Y-104243095D01*
X121851009Y-104243095D02*
X121898628Y-104338333D01*
X121898628Y-104338333D02*
X121898628Y-104719285D01*
X122374819Y-103195476D02*
X122374819Y-103766904D01*
X122374819Y-103481190D02*
X121374819Y-103481190D01*
X121374819Y-103481190D02*
X121517676Y-103576428D01*
X121517676Y-103576428D02*
X121612914Y-103671666D01*
X121612914Y-103671666D02*
X121660533Y-103766904D01*
X122374819Y-102243095D02*
X122374819Y-102814523D01*
X122374819Y-102528809D02*
X121374819Y-102528809D01*
X121374819Y-102528809D02*
X121517676Y-102624047D01*
X121517676Y-102624047D02*
X121612914Y-102719285D01*
X121612914Y-102719285D02*
X121660533Y-102814523D01*
X109775714Y-97006604D02*
X110251904Y-97006604D01*
X109680476Y-97292319D02*
X110013809Y-96292319D01*
X110013809Y-96292319D02*
X110347142Y-97292319D01*
X111204285Y-97292319D02*
X110632857Y-97292319D01*
X110918571Y-97292319D02*
X110918571Y-96292319D01*
X110918571Y-96292319D02*
X110823333Y-96435176D01*
X110823333Y-96435176D02*
X110728095Y-96530414D01*
X110728095Y-96530414D02*
X110632857Y-96578033D01*
X119739580Y-103512857D02*
X119787200Y-103560476D01*
X119787200Y-103560476D02*
X119834819Y-103703333D01*
X119834819Y-103703333D02*
X119834819Y-103798571D01*
X119834819Y-103798571D02*
X119787200Y-103941428D01*
X119787200Y-103941428D02*
X119691961Y-104036666D01*
X119691961Y-104036666D02*
X119596723Y-104084285D01*
X119596723Y-104084285D02*
X119406247Y-104131904D01*
X119406247Y-104131904D02*
X119263390Y-104131904D01*
X119263390Y-104131904D02*
X119072914Y-104084285D01*
X119072914Y-104084285D02*
X118977676Y-104036666D01*
X118977676Y-104036666D02*
X118882438Y-103941428D01*
X118882438Y-103941428D02*
X118834819Y-103798571D01*
X118834819Y-103798571D02*
X118834819Y-103703333D01*
X118834819Y-103703333D02*
X118882438Y-103560476D01*
X118882438Y-103560476D02*
X118930057Y-103512857D01*
X119834819Y-102560476D02*
X119834819Y-103131904D01*
X119834819Y-102846190D02*
X118834819Y-102846190D01*
X118834819Y-102846190D02*
X118977676Y-102941428D01*
X118977676Y-102941428D02*
X119072914Y-103036666D01*
X119072914Y-103036666D02*
X119120533Y-103131904D01*
X118834819Y-101941428D02*
X118834819Y-101846190D01*
X118834819Y-101846190D02*
X118882438Y-101750952D01*
X118882438Y-101750952D02*
X118930057Y-101703333D01*
X118930057Y-101703333D02*
X119025295Y-101655714D01*
X119025295Y-101655714D02*
X119215771Y-101608095D01*
X119215771Y-101608095D02*
X119453866Y-101608095D01*
X119453866Y-101608095D02*
X119644342Y-101655714D01*
X119644342Y-101655714D02*
X119739580Y-101703333D01*
X119739580Y-101703333D02*
X119787200Y-101750952D01*
X119787200Y-101750952D02*
X119834819Y-101846190D01*
X119834819Y-101846190D02*
X119834819Y-101941428D01*
X119834819Y-101941428D02*
X119787200Y-102036666D01*
X119787200Y-102036666D02*
X119739580Y-102084285D01*
X119739580Y-102084285D02*
X119644342Y-102131904D01*
X119644342Y-102131904D02*
X119453866Y-102179523D01*
X119453866Y-102179523D02*
X119215771Y-102179523D01*
X119215771Y-102179523D02*
X119025295Y-102131904D01*
X119025295Y-102131904D02*
X118930057Y-102084285D01*
X118930057Y-102084285D02*
X118882438Y-102036666D01*
X118882438Y-102036666D02*
X118834819Y-101941428D01*
X100957142Y-96339819D02*
X100623809Y-95863628D01*
X100385714Y-96339819D02*
X100385714Y-95339819D01*
X100385714Y-95339819D02*
X100766666Y-95339819D01*
X100766666Y-95339819D02*
X100861904Y-95387438D01*
X100861904Y-95387438D02*
X100909523Y-95435057D01*
X100909523Y-95435057D02*
X100957142Y-95530295D01*
X100957142Y-95530295D02*
X100957142Y-95673152D01*
X100957142Y-95673152D02*
X100909523Y-95768390D01*
X100909523Y-95768390D02*
X100861904Y-95816009D01*
X100861904Y-95816009D02*
X100766666Y-95863628D01*
X100766666Y-95863628D02*
X100385714Y-95863628D01*
X101909523Y-96339819D02*
X101338095Y-96339819D01*
X101623809Y-96339819D02*
X101623809Y-95339819D01*
X101623809Y-95339819D02*
X101528571Y-95482676D01*
X101528571Y-95482676D02*
X101433333Y-95577914D01*
X101433333Y-95577914D02*
X101338095Y-95625533D01*
X102766666Y-95673152D02*
X102766666Y-96339819D01*
X102528571Y-95292200D02*
X102290476Y-96006485D01*
X102290476Y-96006485D02*
X102909523Y-96006485D01*
X155217905Y-97609819D02*
X155217905Y-96609819D01*
X155217905Y-96609819D02*
X155456000Y-96609819D01*
X155456000Y-96609819D02*
X155598857Y-96657438D01*
X155598857Y-96657438D02*
X155694095Y-96752676D01*
X155694095Y-96752676D02*
X155741714Y-96847914D01*
X155741714Y-96847914D02*
X155789333Y-97038390D01*
X155789333Y-97038390D02*
X155789333Y-97181247D01*
X155789333Y-97181247D02*
X155741714Y-97371723D01*
X155741714Y-97371723D02*
X155694095Y-97466961D01*
X155694095Y-97466961D02*
X155598857Y-97562200D01*
X155598857Y-97562200D02*
X155456000Y-97609819D01*
X155456000Y-97609819D02*
X155217905Y-97609819D01*
X156122667Y-96609819D02*
X156789333Y-96609819D01*
X156789333Y-96609819D02*
X156360762Y-97609819D01*
X208639580Y-79422857D02*
X208687200Y-79470476D01*
X208687200Y-79470476D02*
X208734819Y-79613333D01*
X208734819Y-79613333D02*
X208734819Y-79708571D01*
X208734819Y-79708571D02*
X208687200Y-79851428D01*
X208687200Y-79851428D02*
X208591961Y-79946666D01*
X208591961Y-79946666D02*
X208496723Y-79994285D01*
X208496723Y-79994285D02*
X208306247Y-80041904D01*
X208306247Y-80041904D02*
X208163390Y-80041904D01*
X208163390Y-80041904D02*
X207972914Y-79994285D01*
X207972914Y-79994285D02*
X207877676Y-79946666D01*
X207877676Y-79946666D02*
X207782438Y-79851428D01*
X207782438Y-79851428D02*
X207734819Y-79708571D01*
X207734819Y-79708571D02*
X207734819Y-79613333D01*
X207734819Y-79613333D02*
X207782438Y-79470476D01*
X207782438Y-79470476D02*
X207830057Y-79422857D01*
X208734819Y-78470476D02*
X208734819Y-79041904D01*
X208734819Y-78756190D02*
X207734819Y-78756190D01*
X207734819Y-78756190D02*
X207877676Y-78851428D01*
X207877676Y-78851428D02*
X207972914Y-78946666D01*
X207972914Y-78946666D02*
X208020533Y-79041904D01*
X208068152Y-77613333D02*
X208734819Y-77613333D01*
X207687200Y-77851428D02*
X208401485Y-78089523D01*
X208401485Y-78089523D02*
X208401485Y-77470476D01*
X126454819Y-104314523D02*
X127454819Y-103981190D01*
X127454819Y-103981190D02*
X126454819Y-103647857D01*
X127454819Y-102790714D02*
X127454819Y-103362142D01*
X127454819Y-103076428D02*
X126454819Y-103076428D01*
X126454819Y-103076428D02*
X126597676Y-103171666D01*
X126597676Y-103171666D02*
X126692914Y-103266904D01*
X126692914Y-103266904D02*
X126740533Y-103362142D01*
X127454819Y-96781904D02*
X126454819Y-96781904D01*
X127454819Y-96210476D02*
X126883390Y-96639047D01*
X126454819Y-96210476D02*
X127026247Y-96781904D01*
X208639580Y-92082857D02*
X208687200Y-92130476D01*
X208687200Y-92130476D02*
X208734819Y-92273333D01*
X208734819Y-92273333D02*
X208734819Y-92368571D01*
X208734819Y-92368571D02*
X208687200Y-92511428D01*
X208687200Y-92511428D02*
X208591961Y-92606666D01*
X208591961Y-92606666D02*
X208496723Y-92654285D01*
X208496723Y-92654285D02*
X208306247Y-92701904D01*
X208306247Y-92701904D02*
X208163390Y-92701904D01*
X208163390Y-92701904D02*
X207972914Y-92654285D01*
X207972914Y-92654285D02*
X207877676Y-92606666D01*
X207877676Y-92606666D02*
X207782438Y-92511428D01*
X207782438Y-92511428D02*
X207734819Y-92368571D01*
X207734819Y-92368571D02*
X207734819Y-92273333D01*
X207734819Y-92273333D02*
X207782438Y-92130476D01*
X207782438Y-92130476D02*
X207830057Y-92082857D01*
X208734819Y-91130476D02*
X208734819Y-91701904D01*
X208734819Y-91416190D02*
X207734819Y-91416190D01*
X207734819Y-91416190D02*
X207877676Y-91511428D01*
X207877676Y-91511428D02*
X207972914Y-91606666D01*
X207972914Y-91606666D02*
X208020533Y-91701904D01*
X207734819Y-90797142D02*
X207734819Y-90178095D01*
X207734819Y-90178095D02*
X208115771Y-90511428D01*
X208115771Y-90511428D02*
X208115771Y-90368571D01*
X208115771Y-90368571D02*
X208163390Y-90273333D01*
X208163390Y-90273333D02*
X208211009Y-90225714D01*
X208211009Y-90225714D02*
X208306247Y-90178095D01*
X208306247Y-90178095D02*
X208544342Y-90178095D01*
X208544342Y-90178095D02*
X208639580Y-90225714D01*
X208639580Y-90225714D02*
X208687200Y-90273333D01*
X208687200Y-90273333D02*
X208734819Y-90368571D01*
X208734819Y-90368571D02*
X208734819Y-90654285D01*
X208734819Y-90654285D02*
X208687200Y-90749523D01*
X208687200Y-90749523D02*
X208639580Y-90797142D01*
X103324819Y-68111666D02*
X102848628Y-68444999D01*
X103324819Y-68683094D02*
X102324819Y-68683094D01*
X102324819Y-68683094D02*
X102324819Y-68302142D01*
X102324819Y-68302142D02*
X102372438Y-68206904D01*
X102372438Y-68206904D02*
X102420057Y-68159285D01*
X102420057Y-68159285D02*
X102515295Y-68111666D01*
X102515295Y-68111666D02*
X102658152Y-68111666D01*
X102658152Y-68111666D02*
X102753390Y-68159285D01*
X102753390Y-68159285D02*
X102801009Y-68206904D01*
X102801009Y-68206904D02*
X102848628Y-68302142D01*
X102848628Y-68302142D02*
X102848628Y-68683094D01*
X102324819Y-67254523D02*
X102324819Y-67444999D01*
X102324819Y-67444999D02*
X102372438Y-67540237D01*
X102372438Y-67540237D02*
X102420057Y-67587856D01*
X102420057Y-67587856D02*
X102562914Y-67683094D01*
X102562914Y-67683094D02*
X102753390Y-67730713D01*
X102753390Y-67730713D02*
X103134342Y-67730713D01*
X103134342Y-67730713D02*
X103229580Y-67683094D01*
X103229580Y-67683094D02*
X103277200Y-67635475D01*
X103277200Y-67635475D02*
X103324819Y-67540237D01*
X103324819Y-67540237D02*
X103324819Y-67349761D01*
X103324819Y-67349761D02*
X103277200Y-67254523D01*
X103277200Y-67254523D02*
X103229580Y-67206904D01*
X103229580Y-67206904D02*
X103134342Y-67159285D01*
X103134342Y-67159285D02*
X102896247Y-67159285D01*
X102896247Y-67159285D02*
X102801009Y-67206904D01*
X102801009Y-67206904D02*
X102753390Y-67254523D01*
X102753390Y-67254523D02*
X102705771Y-67349761D01*
X102705771Y-67349761D02*
X102705771Y-67540237D01*
X102705771Y-67540237D02*
X102753390Y-67635475D01*
X102753390Y-67635475D02*
X102801009Y-67683094D01*
X102801009Y-67683094D02*
X102896247Y-67730713D01*
X179778819Y-66206666D02*
X179302628Y-66539999D01*
X179778819Y-66778094D02*
X178778819Y-66778094D01*
X178778819Y-66778094D02*
X178778819Y-66397142D01*
X178778819Y-66397142D02*
X178826438Y-66301904D01*
X178826438Y-66301904D02*
X178874057Y-66254285D01*
X178874057Y-66254285D02*
X178969295Y-66206666D01*
X178969295Y-66206666D02*
X179112152Y-66206666D01*
X179112152Y-66206666D02*
X179207390Y-66254285D01*
X179207390Y-66254285D02*
X179255009Y-66301904D01*
X179255009Y-66301904D02*
X179302628Y-66397142D01*
X179302628Y-66397142D02*
X179302628Y-66778094D01*
X179207390Y-65635237D02*
X179159771Y-65730475D01*
X179159771Y-65730475D02*
X179112152Y-65778094D01*
X179112152Y-65778094D02*
X179016914Y-65825713D01*
X179016914Y-65825713D02*
X178969295Y-65825713D01*
X178969295Y-65825713D02*
X178874057Y-65778094D01*
X178874057Y-65778094D02*
X178826438Y-65730475D01*
X178826438Y-65730475D02*
X178778819Y-65635237D01*
X178778819Y-65635237D02*
X178778819Y-65444761D01*
X178778819Y-65444761D02*
X178826438Y-65349523D01*
X178826438Y-65349523D02*
X178874057Y-65301904D01*
X178874057Y-65301904D02*
X178969295Y-65254285D01*
X178969295Y-65254285D02*
X179016914Y-65254285D01*
X179016914Y-65254285D02*
X179112152Y-65301904D01*
X179112152Y-65301904D02*
X179159771Y-65349523D01*
X179159771Y-65349523D02*
X179207390Y-65444761D01*
X179207390Y-65444761D02*
X179207390Y-65635237D01*
X179207390Y-65635237D02*
X179255009Y-65730475D01*
X179255009Y-65730475D02*
X179302628Y-65778094D01*
X179302628Y-65778094D02*
X179397866Y-65825713D01*
X179397866Y-65825713D02*
X179588342Y-65825713D01*
X179588342Y-65825713D02*
X179683580Y-65778094D01*
X179683580Y-65778094D02*
X179731200Y-65730475D01*
X179731200Y-65730475D02*
X179778819Y-65635237D01*
X179778819Y-65635237D02*
X179778819Y-65444761D01*
X179778819Y-65444761D02*
X179731200Y-65349523D01*
X179731200Y-65349523D02*
X179683580Y-65301904D01*
X179683580Y-65301904D02*
X179588342Y-65254285D01*
X179588342Y-65254285D02*
X179397866Y-65254285D01*
X179397866Y-65254285D02*
X179302628Y-65301904D01*
X179302628Y-65301904D02*
X179255009Y-65349523D01*
X179255009Y-65349523D02*
X179207390Y-65444761D01*
X117943333Y-70590580D02*
X117895714Y-70638200D01*
X117895714Y-70638200D02*
X117752857Y-70685819D01*
X117752857Y-70685819D02*
X117657619Y-70685819D01*
X117657619Y-70685819D02*
X117514762Y-70638200D01*
X117514762Y-70638200D02*
X117419524Y-70542961D01*
X117419524Y-70542961D02*
X117371905Y-70447723D01*
X117371905Y-70447723D02*
X117324286Y-70257247D01*
X117324286Y-70257247D02*
X117324286Y-70114390D01*
X117324286Y-70114390D02*
X117371905Y-69923914D01*
X117371905Y-69923914D02*
X117419524Y-69828676D01*
X117419524Y-69828676D02*
X117514762Y-69733438D01*
X117514762Y-69733438D02*
X117657619Y-69685819D01*
X117657619Y-69685819D02*
X117752857Y-69685819D01*
X117752857Y-69685819D02*
X117895714Y-69733438D01*
X117895714Y-69733438D02*
X117943333Y-69781057D01*
X118800476Y-70019152D02*
X118800476Y-70685819D01*
X118562381Y-69638200D02*
X118324286Y-70352485D01*
X118324286Y-70352485D02*
X118943333Y-70352485D01*
X101419819Y-88272857D02*
X100943628Y-88606190D01*
X101419819Y-88844285D02*
X100419819Y-88844285D01*
X100419819Y-88844285D02*
X100419819Y-88463333D01*
X100419819Y-88463333D02*
X100467438Y-88368095D01*
X100467438Y-88368095D02*
X100515057Y-88320476D01*
X100515057Y-88320476D02*
X100610295Y-88272857D01*
X100610295Y-88272857D02*
X100753152Y-88272857D01*
X100753152Y-88272857D02*
X100848390Y-88320476D01*
X100848390Y-88320476D02*
X100896009Y-88368095D01*
X100896009Y-88368095D02*
X100943628Y-88463333D01*
X100943628Y-88463333D02*
X100943628Y-88844285D01*
X101419819Y-87320476D02*
X101419819Y-87891904D01*
X101419819Y-87606190D02*
X100419819Y-87606190D01*
X100419819Y-87606190D02*
X100562676Y-87701428D01*
X100562676Y-87701428D02*
X100657914Y-87796666D01*
X100657914Y-87796666D02*
X100705533Y-87891904D01*
X100419819Y-86987142D02*
X100419819Y-86368095D01*
X100419819Y-86368095D02*
X100800771Y-86701428D01*
X100800771Y-86701428D02*
X100800771Y-86558571D01*
X100800771Y-86558571D02*
X100848390Y-86463333D01*
X100848390Y-86463333D02*
X100896009Y-86415714D01*
X100896009Y-86415714D02*
X100991247Y-86368095D01*
X100991247Y-86368095D02*
X101229342Y-86368095D01*
X101229342Y-86368095D02*
X101324580Y-86415714D01*
X101324580Y-86415714D02*
X101372200Y-86463333D01*
X101372200Y-86463333D02*
X101419819Y-86558571D01*
X101419819Y-86558571D02*
X101419819Y-86844285D01*
X101419819Y-86844285D02*
X101372200Y-86939523D01*
X101372200Y-86939523D02*
X101324580Y-86987142D01*
X107783333Y-76019819D02*
X107450000Y-75543628D01*
X107211905Y-76019819D02*
X107211905Y-75019819D01*
X107211905Y-75019819D02*
X107592857Y-75019819D01*
X107592857Y-75019819D02*
X107688095Y-75067438D01*
X107688095Y-75067438D02*
X107735714Y-75115057D01*
X107735714Y-75115057D02*
X107783333Y-75210295D01*
X107783333Y-75210295D02*
X107783333Y-75353152D01*
X107783333Y-75353152D02*
X107735714Y-75448390D01*
X107735714Y-75448390D02*
X107688095Y-75496009D01*
X107688095Y-75496009D02*
X107592857Y-75543628D01*
X107592857Y-75543628D02*
X107211905Y-75543628D01*
X108164286Y-75115057D02*
X108211905Y-75067438D01*
X108211905Y-75067438D02*
X108307143Y-75019819D01*
X108307143Y-75019819D02*
X108545238Y-75019819D01*
X108545238Y-75019819D02*
X108640476Y-75067438D01*
X108640476Y-75067438D02*
X108688095Y-75115057D01*
X108688095Y-75115057D02*
X108735714Y-75210295D01*
X108735714Y-75210295D02*
X108735714Y-75305533D01*
X108735714Y-75305533D02*
X108688095Y-75448390D01*
X108688095Y-75448390D02*
X108116667Y-76019819D01*
X108116667Y-76019819D02*
X108735714Y-76019819D01*
X150854580Y-104742857D02*
X150902200Y-104790476D01*
X150902200Y-104790476D02*
X150949819Y-104933333D01*
X150949819Y-104933333D02*
X150949819Y-105028571D01*
X150949819Y-105028571D02*
X150902200Y-105171428D01*
X150902200Y-105171428D02*
X150806961Y-105266666D01*
X150806961Y-105266666D02*
X150711723Y-105314285D01*
X150711723Y-105314285D02*
X150521247Y-105361904D01*
X150521247Y-105361904D02*
X150378390Y-105361904D01*
X150378390Y-105361904D02*
X150187914Y-105314285D01*
X150187914Y-105314285D02*
X150092676Y-105266666D01*
X150092676Y-105266666D02*
X149997438Y-105171428D01*
X149997438Y-105171428D02*
X149949819Y-105028571D01*
X149949819Y-105028571D02*
X149949819Y-104933333D01*
X149949819Y-104933333D02*
X149997438Y-104790476D01*
X149997438Y-104790476D02*
X150045057Y-104742857D01*
X150949819Y-103790476D02*
X150949819Y-104361904D01*
X150949819Y-104076190D02*
X149949819Y-104076190D01*
X149949819Y-104076190D02*
X150092676Y-104171428D01*
X150092676Y-104171428D02*
X150187914Y-104266666D01*
X150187914Y-104266666D02*
X150235533Y-104361904D01*
X149949819Y-102885714D02*
X149949819Y-103361904D01*
X149949819Y-103361904D02*
X150426009Y-103409523D01*
X150426009Y-103409523D02*
X150378390Y-103361904D01*
X150378390Y-103361904D02*
X150330771Y-103266666D01*
X150330771Y-103266666D02*
X150330771Y-103028571D01*
X150330771Y-103028571D02*
X150378390Y-102933333D01*
X150378390Y-102933333D02*
X150426009Y-102885714D01*
X150426009Y-102885714D02*
X150521247Y-102838095D01*
X150521247Y-102838095D02*
X150759342Y-102838095D01*
X150759342Y-102838095D02*
X150854580Y-102885714D01*
X150854580Y-102885714D02*
X150902200Y-102933333D01*
X150902200Y-102933333D02*
X150949819Y-103028571D01*
X150949819Y-103028571D02*
X150949819Y-103266666D01*
X150949819Y-103266666D02*
X150902200Y-103361904D01*
X150902200Y-103361904D02*
X150854580Y-103409523D01*
X185951905Y-99514819D02*
X185951905Y-98514819D01*
X185951905Y-98514819D02*
X186190000Y-98514819D01*
X186190000Y-98514819D02*
X186332857Y-98562438D01*
X186332857Y-98562438D02*
X186428095Y-98657676D01*
X186428095Y-98657676D02*
X186475714Y-98752914D01*
X186475714Y-98752914D02*
X186523333Y-98943390D01*
X186523333Y-98943390D02*
X186523333Y-99086247D01*
X186523333Y-99086247D02*
X186475714Y-99276723D01*
X186475714Y-99276723D02*
X186428095Y-99371961D01*
X186428095Y-99371961D02*
X186332857Y-99467200D01*
X186332857Y-99467200D02*
X186190000Y-99514819D01*
X186190000Y-99514819D02*
X185951905Y-99514819D01*
X186904286Y-98610057D02*
X186951905Y-98562438D01*
X186951905Y-98562438D02*
X187047143Y-98514819D01*
X187047143Y-98514819D02*
X187285238Y-98514819D01*
X187285238Y-98514819D02*
X187380476Y-98562438D01*
X187380476Y-98562438D02*
X187428095Y-98610057D01*
X187428095Y-98610057D02*
X187475714Y-98705295D01*
X187475714Y-98705295D02*
X187475714Y-98800533D01*
X187475714Y-98800533D02*
X187428095Y-98943390D01*
X187428095Y-98943390D02*
X186856667Y-99514819D01*
X186856667Y-99514819D02*
X187475714Y-99514819D01*
X120221524Y-72098819D02*
X120554857Y-73098819D01*
X120554857Y-73098819D02*
X120888190Y-72098819D01*
X121078667Y-72098819D02*
X121650095Y-72098819D01*
X121364381Y-73098819D02*
X121364381Y-72098819D01*
X122507238Y-73098819D02*
X121935810Y-73098819D01*
X122221524Y-73098819D02*
X122221524Y-72098819D01*
X122221524Y-72098819D02*
X122126286Y-72241676D01*
X122126286Y-72241676D02*
X122031048Y-72336914D01*
X122031048Y-72336914D02*
X121935810Y-72384533D01*
X112093524Y-66510819D02*
X112426857Y-67510819D01*
X112426857Y-67510819D02*
X112760190Y-66510819D01*
X112950667Y-66510819D02*
X113522095Y-66510819D01*
X113236381Y-67510819D02*
X113236381Y-66510819D01*
X113807810Y-66606057D02*
X113855429Y-66558438D01*
X113855429Y-66558438D02*
X113950667Y-66510819D01*
X113950667Y-66510819D02*
X114188762Y-66510819D01*
X114188762Y-66510819D02*
X114284000Y-66558438D01*
X114284000Y-66558438D02*
X114331619Y-66606057D01*
X114331619Y-66606057D02*
X114379238Y-66701295D01*
X114379238Y-66701295D02*
X114379238Y-66796533D01*
X114379238Y-66796533D02*
X114331619Y-66939390D01*
X114331619Y-66939390D02*
X113760191Y-67510819D01*
X113760191Y-67510819D02*
X114379238Y-67510819D01*
X154124819Y-104147857D02*
X153648628Y-104481190D01*
X154124819Y-104719285D02*
X153124819Y-104719285D01*
X153124819Y-104719285D02*
X153124819Y-104338333D01*
X153124819Y-104338333D02*
X153172438Y-104243095D01*
X153172438Y-104243095D02*
X153220057Y-104195476D01*
X153220057Y-104195476D02*
X153315295Y-104147857D01*
X153315295Y-104147857D02*
X153458152Y-104147857D01*
X153458152Y-104147857D02*
X153553390Y-104195476D01*
X153553390Y-104195476D02*
X153601009Y-104243095D01*
X153601009Y-104243095D02*
X153648628Y-104338333D01*
X153648628Y-104338333D02*
X153648628Y-104719285D01*
X154124819Y-103195476D02*
X154124819Y-103766904D01*
X154124819Y-103481190D02*
X153124819Y-103481190D01*
X153124819Y-103481190D02*
X153267676Y-103576428D01*
X153267676Y-103576428D02*
X153362914Y-103671666D01*
X153362914Y-103671666D02*
X153410533Y-103766904D01*
X153220057Y-102814523D02*
X153172438Y-102766904D01*
X153172438Y-102766904D02*
X153124819Y-102671666D01*
X153124819Y-102671666D02*
X153124819Y-102433571D01*
X153124819Y-102433571D02*
X153172438Y-102338333D01*
X153172438Y-102338333D02*
X153220057Y-102290714D01*
X153220057Y-102290714D02*
X153315295Y-102243095D01*
X153315295Y-102243095D02*
X153410533Y-102243095D01*
X153410533Y-102243095D02*
X153553390Y-102290714D01*
X153553390Y-102290714D02*
X154124819Y-102862142D01*
X154124819Y-102862142D02*
X154124819Y-102243095D01*
X171878333Y-58779580D02*
X171830714Y-58827200D01*
X171830714Y-58827200D02*
X171687857Y-58874819D01*
X171687857Y-58874819D02*
X171592619Y-58874819D01*
X171592619Y-58874819D02*
X171449762Y-58827200D01*
X171449762Y-58827200D02*
X171354524Y-58731961D01*
X171354524Y-58731961D02*
X171306905Y-58636723D01*
X171306905Y-58636723D02*
X171259286Y-58446247D01*
X171259286Y-58446247D02*
X171259286Y-58303390D01*
X171259286Y-58303390D02*
X171306905Y-58112914D01*
X171306905Y-58112914D02*
X171354524Y-58017676D01*
X171354524Y-58017676D02*
X171449762Y-57922438D01*
X171449762Y-57922438D02*
X171592619Y-57874819D01*
X171592619Y-57874819D02*
X171687857Y-57874819D01*
X171687857Y-57874819D02*
X171830714Y-57922438D01*
X171830714Y-57922438D02*
X171878333Y-57970057D01*
X172449762Y-58303390D02*
X172354524Y-58255771D01*
X172354524Y-58255771D02*
X172306905Y-58208152D01*
X172306905Y-58208152D02*
X172259286Y-58112914D01*
X172259286Y-58112914D02*
X172259286Y-58065295D01*
X172259286Y-58065295D02*
X172306905Y-57970057D01*
X172306905Y-57970057D02*
X172354524Y-57922438D01*
X172354524Y-57922438D02*
X172449762Y-57874819D01*
X172449762Y-57874819D02*
X172640238Y-57874819D01*
X172640238Y-57874819D02*
X172735476Y-57922438D01*
X172735476Y-57922438D02*
X172783095Y-57970057D01*
X172783095Y-57970057D02*
X172830714Y-58065295D01*
X172830714Y-58065295D02*
X172830714Y-58112914D01*
X172830714Y-58112914D02*
X172783095Y-58208152D01*
X172783095Y-58208152D02*
X172735476Y-58255771D01*
X172735476Y-58255771D02*
X172640238Y-58303390D01*
X172640238Y-58303390D02*
X172449762Y-58303390D01*
X172449762Y-58303390D02*
X172354524Y-58351009D01*
X172354524Y-58351009D02*
X172306905Y-58398628D01*
X172306905Y-58398628D02*
X172259286Y-58493866D01*
X172259286Y-58493866D02*
X172259286Y-58684342D01*
X172259286Y-58684342D02*
X172306905Y-58779580D01*
X172306905Y-58779580D02*
X172354524Y-58827200D01*
X172354524Y-58827200D02*
X172449762Y-58874819D01*
X172449762Y-58874819D02*
X172640238Y-58874819D01*
X172640238Y-58874819D02*
X172735476Y-58827200D01*
X172735476Y-58827200D02*
X172783095Y-58779580D01*
X172783095Y-58779580D02*
X172830714Y-58684342D01*
X172830714Y-58684342D02*
X172830714Y-58493866D01*
X172830714Y-58493866D02*
X172783095Y-58398628D01*
X172783095Y-58398628D02*
X172735476Y-58351009D01*
X172735476Y-58351009D02*
X172640238Y-58303390D01*
X121443809Y-88878628D02*
X121443809Y-89354819D01*
X121110476Y-88354819D02*
X121443809Y-88878628D01*
X121443809Y-88878628D02*
X121777142Y-88354819D01*
X122634285Y-89354819D02*
X122062857Y-89354819D01*
X122348571Y-89354819D02*
X122348571Y-88354819D01*
X122348571Y-88354819D02*
X122253333Y-88497676D01*
X122253333Y-88497676D02*
X122158095Y-88592914D01*
X122158095Y-88592914D02*
X122062857Y-88640533D01*
X115403333Y-78559819D02*
X115070000Y-78083628D01*
X114831905Y-78559819D02*
X114831905Y-77559819D01*
X114831905Y-77559819D02*
X115212857Y-77559819D01*
X115212857Y-77559819D02*
X115308095Y-77607438D01*
X115308095Y-77607438D02*
X115355714Y-77655057D01*
X115355714Y-77655057D02*
X115403333Y-77750295D01*
X115403333Y-77750295D02*
X115403333Y-77893152D01*
X115403333Y-77893152D02*
X115355714Y-77988390D01*
X115355714Y-77988390D02*
X115308095Y-78036009D01*
X115308095Y-78036009D02*
X115212857Y-78083628D01*
X115212857Y-78083628D02*
X114831905Y-78083628D01*
X115736667Y-77559819D02*
X116355714Y-77559819D01*
X116355714Y-77559819D02*
X116022381Y-77940771D01*
X116022381Y-77940771D02*
X116165238Y-77940771D01*
X116165238Y-77940771D02*
X116260476Y-77988390D01*
X116260476Y-77988390D02*
X116308095Y-78036009D01*
X116308095Y-78036009D02*
X116355714Y-78131247D01*
X116355714Y-78131247D02*
X116355714Y-78369342D01*
X116355714Y-78369342D02*
X116308095Y-78464580D01*
X116308095Y-78464580D02*
X116260476Y-78512200D01*
X116260476Y-78512200D02*
X116165238Y-78559819D01*
X116165238Y-78559819D02*
X115879524Y-78559819D01*
X115879524Y-78559819D02*
X115784286Y-78512200D01*
X115784286Y-78512200D02*
X115736667Y-78464580D01*
X115403333Y-65224819D02*
X115070000Y-64748628D01*
X114831905Y-65224819D02*
X114831905Y-64224819D01*
X114831905Y-64224819D02*
X115212857Y-64224819D01*
X115212857Y-64224819D02*
X115308095Y-64272438D01*
X115308095Y-64272438D02*
X115355714Y-64320057D01*
X115355714Y-64320057D02*
X115403333Y-64415295D01*
X115403333Y-64415295D02*
X115403333Y-64558152D01*
X115403333Y-64558152D02*
X115355714Y-64653390D01*
X115355714Y-64653390D02*
X115308095Y-64701009D01*
X115308095Y-64701009D02*
X115212857Y-64748628D01*
X115212857Y-64748628D02*
X114831905Y-64748628D01*
X116260476Y-64558152D02*
X116260476Y-65224819D01*
X116022381Y-64177200D02*
X115784286Y-64891485D01*
X115784286Y-64891485D02*
X116403333Y-64891485D01*
X97498819Y-73834475D02*
X98498819Y-73501142D01*
X98498819Y-73501142D02*
X97498819Y-73167809D01*
X97498819Y-72977332D02*
X97498819Y-72405904D01*
X98498819Y-72691618D02*
X97498819Y-72691618D01*
X97498819Y-72167808D02*
X97498819Y-71548761D01*
X97498819Y-71548761D02*
X97879771Y-71882094D01*
X97879771Y-71882094D02*
X97879771Y-71739237D01*
X97879771Y-71739237D02*
X97927390Y-71643999D01*
X97927390Y-71643999D02*
X97975009Y-71596380D01*
X97975009Y-71596380D02*
X98070247Y-71548761D01*
X98070247Y-71548761D02*
X98308342Y-71548761D01*
X98308342Y-71548761D02*
X98403580Y-71596380D01*
X98403580Y-71596380D02*
X98451200Y-71643999D01*
X98451200Y-71643999D02*
X98498819Y-71739237D01*
X98498819Y-71739237D02*
X98498819Y-72024951D01*
X98498819Y-72024951D02*
X98451200Y-72120189D01*
X98451200Y-72120189D02*
X98403580Y-72167808D01*
X177038333Y-79099580D02*
X176990714Y-79147200D01*
X176990714Y-79147200D02*
X176847857Y-79194819D01*
X176847857Y-79194819D02*
X176752619Y-79194819D01*
X176752619Y-79194819D02*
X176609762Y-79147200D01*
X176609762Y-79147200D02*
X176514524Y-79051961D01*
X176514524Y-79051961D02*
X176466905Y-78956723D01*
X176466905Y-78956723D02*
X176419286Y-78766247D01*
X176419286Y-78766247D02*
X176419286Y-78623390D01*
X176419286Y-78623390D02*
X176466905Y-78432914D01*
X176466905Y-78432914D02*
X176514524Y-78337676D01*
X176514524Y-78337676D02*
X176609762Y-78242438D01*
X176609762Y-78242438D02*
X176752619Y-78194819D01*
X176752619Y-78194819D02*
X176847857Y-78194819D01*
X176847857Y-78194819D02*
X176990714Y-78242438D01*
X176990714Y-78242438D02*
X177038333Y-78290057D01*
X177514524Y-79194819D02*
X177705000Y-79194819D01*
X177705000Y-79194819D02*
X177800238Y-79147200D01*
X177800238Y-79147200D02*
X177847857Y-79099580D01*
X177847857Y-79099580D02*
X177943095Y-78956723D01*
X177943095Y-78956723D02*
X177990714Y-78766247D01*
X177990714Y-78766247D02*
X177990714Y-78385295D01*
X177990714Y-78385295D02*
X177943095Y-78290057D01*
X177943095Y-78290057D02*
X177895476Y-78242438D01*
X177895476Y-78242438D02*
X177800238Y-78194819D01*
X177800238Y-78194819D02*
X177609762Y-78194819D01*
X177609762Y-78194819D02*
X177514524Y-78242438D01*
X177514524Y-78242438D02*
X177466905Y-78290057D01*
X177466905Y-78290057D02*
X177419286Y-78385295D01*
X177419286Y-78385295D02*
X177419286Y-78623390D01*
X177419286Y-78623390D02*
X177466905Y-78718628D01*
X177466905Y-78718628D02*
X177514524Y-78766247D01*
X177514524Y-78766247D02*
X177609762Y-78813866D01*
X177609762Y-78813866D02*
X177800238Y-78813866D01*
X177800238Y-78813866D02*
X177895476Y-78766247D01*
X177895476Y-78766247D02*
X177943095Y-78718628D01*
X177943095Y-78718628D02*
X177990714Y-78623390D01*
X182318819Y-66206666D02*
X181842628Y-66539999D01*
X182318819Y-66778094D02*
X181318819Y-66778094D01*
X181318819Y-66778094D02*
X181318819Y-66397142D01*
X181318819Y-66397142D02*
X181366438Y-66301904D01*
X181366438Y-66301904D02*
X181414057Y-66254285D01*
X181414057Y-66254285D02*
X181509295Y-66206666D01*
X181509295Y-66206666D02*
X181652152Y-66206666D01*
X181652152Y-66206666D02*
X181747390Y-66254285D01*
X181747390Y-66254285D02*
X181795009Y-66301904D01*
X181795009Y-66301904D02*
X181842628Y-66397142D01*
X181842628Y-66397142D02*
X181842628Y-66778094D01*
X181318819Y-65873332D02*
X181318819Y-65206666D01*
X181318819Y-65206666D02*
X182318819Y-65635237D01*
X114768333Y-95609580D02*
X114720714Y-95657200D01*
X114720714Y-95657200D02*
X114577857Y-95704819D01*
X114577857Y-95704819D02*
X114482619Y-95704819D01*
X114482619Y-95704819D02*
X114339762Y-95657200D01*
X114339762Y-95657200D02*
X114244524Y-95561961D01*
X114244524Y-95561961D02*
X114196905Y-95466723D01*
X114196905Y-95466723D02*
X114149286Y-95276247D01*
X114149286Y-95276247D02*
X114149286Y-95133390D01*
X114149286Y-95133390D02*
X114196905Y-94942914D01*
X114196905Y-94942914D02*
X114244524Y-94847676D01*
X114244524Y-94847676D02*
X114339762Y-94752438D01*
X114339762Y-94752438D02*
X114482619Y-94704819D01*
X114482619Y-94704819D02*
X114577857Y-94704819D01*
X114577857Y-94704819D02*
X114720714Y-94752438D01*
X114720714Y-94752438D02*
X114768333Y-94800057D01*
X115720714Y-95704819D02*
X115149286Y-95704819D01*
X115435000Y-95704819D02*
X115435000Y-94704819D01*
X115435000Y-94704819D02*
X115339762Y-94847676D01*
X115339762Y-94847676D02*
X115244524Y-94942914D01*
X115244524Y-94942914D02*
X115149286Y-94990533D01*
X115443333Y-62589580D02*
X115395714Y-62637200D01*
X115395714Y-62637200D02*
X115252857Y-62684819D01*
X115252857Y-62684819D02*
X115157619Y-62684819D01*
X115157619Y-62684819D02*
X115014762Y-62637200D01*
X115014762Y-62637200D02*
X114919524Y-62541961D01*
X114919524Y-62541961D02*
X114871905Y-62446723D01*
X114871905Y-62446723D02*
X114824286Y-62256247D01*
X114824286Y-62256247D02*
X114824286Y-62113390D01*
X114824286Y-62113390D02*
X114871905Y-61922914D01*
X114871905Y-61922914D02*
X114919524Y-61827676D01*
X114919524Y-61827676D02*
X115014762Y-61732438D01*
X115014762Y-61732438D02*
X115157619Y-61684819D01*
X115157619Y-61684819D02*
X115252857Y-61684819D01*
X115252857Y-61684819D02*
X115395714Y-61732438D01*
X115395714Y-61732438D02*
X115443333Y-61780057D01*
X115776667Y-61684819D02*
X116443333Y-61684819D01*
X116443333Y-61684819D02*
X116014762Y-62684819D01*
X210274819Y-62404523D02*
X211274819Y-61737857D01*
X210274819Y-61737857D02*
X211274819Y-62404523D01*
X210274819Y-61452142D02*
X210274819Y-60833095D01*
X210274819Y-60833095D02*
X210655771Y-61166428D01*
X210655771Y-61166428D02*
X210655771Y-61023571D01*
X210655771Y-61023571D02*
X210703390Y-60928333D01*
X210703390Y-60928333D02*
X210751009Y-60880714D01*
X210751009Y-60880714D02*
X210846247Y-60833095D01*
X210846247Y-60833095D02*
X211084342Y-60833095D01*
X211084342Y-60833095D02*
X211179580Y-60880714D01*
X211179580Y-60880714D02*
X211227200Y-60928333D01*
X211227200Y-60928333D02*
X211274819Y-61023571D01*
X211274819Y-61023571D02*
X211274819Y-61309285D01*
X211274819Y-61309285D02*
X211227200Y-61404523D01*
X211227200Y-61404523D02*
X211179580Y-61452142D01*
X105864819Y-68111666D02*
X105388628Y-68444999D01*
X105864819Y-68683094D02*
X104864819Y-68683094D01*
X104864819Y-68683094D02*
X104864819Y-68302142D01*
X104864819Y-68302142D02*
X104912438Y-68206904D01*
X104912438Y-68206904D02*
X104960057Y-68159285D01*
X104960057Y-68159285D02*
X105055295Y-68111666D01*
X105055295Y-68111666D02*
X105198152Y-68111666D01*
X105198152Y-68111666D02*
X105293390Y-68159285D01*
X105293390Y-68159285D02*
X105341009Y-68206904D01*
X105341009Y-68206904D02*
X105388628Y-68302142D01*
X105388628Y-68302142D02*
X105388628Y-68683094D01*
X104864819Y-67206904D02*
X104864819Y-67683094D01*
X104864819Y-67683094D02*
X105341009Y-67730713D01*
X105341009Y-67730713D02*
X105293390Y-67683094D01*
X105293390Y-67683094D02*
X105245771Y-67587856D01*
X105245771Y-67587856D02*
X105245771Y-67349761D01*
X105245771Y-67349761D02*
X105293390Y-67254523D01*
X105293390Y-67254523D02*
X105341009Y-67206904D01*
X105341009Y-67206904D02*
X105436247Y-67159285D01*
X105436247Y-67159285D02*
X105674342Y-67159285D01*
X105674342Y-67159285D02*
X105769580Y-67206904D01*
X105769580Y-67206904D02*
X105817200Y-67254523D01*
X105817200Y-67254523D02*
X105864819Y-67349761D01*
X105864819Y-67349761D02*
X105864819Y-67587856D01*
X105864819Y-67587856D02*
X105817200Y-67683094D01*
X105817200Y-67683094D02*
X105769580Y-67730713D01*
X117943333Y-67923580D02*
X117895714Y-67971200D01*
X117895714Y-67971200D02*
X117752857Y-68018819D01*
X117752857Y-68018819D02*
X117657619Y-68018819D01*
X117657619Y-68018819D02*
X117514762Y-67971200D01*
X117514762Y-67971200D02*
X117419524Y-67875961D01*
X117419524Y-67875961D02*
X117371905Y-67780723D01*
X117371905Y-67780723D02*
X117324286Y-67590247D01*
X117324286Y-67590247D02*
X117324286Y-67447390D01*
X117324286Y-67447390D02*
X117371905Y-67256914D01*
X117371905Y-67256914D02*
X117419524Y-67161676D01*
X117419524Y-67161676D02*
X117514762Y-67066438D01*
X117514762Y-67066438D02*
X117657619Y-67018819D01*
X117657619Y-67018819D02*
X117752857Y-67018819D01*
X117752857Y-67018819D02*
X117895714Y-67066438D01*
X117895714Y-67066438D02*
X117943333Y-67114057D01*
X118848095Y-67018819D02*
X118371905Y-67018819D01*
X118371905Y-67018819D02*
X118324286Y-67495009D01*
X118324286Y-67495009D02*
X118371905Y-67447390D01*
X118371905Y-67447390D02*
X118467143Y-67399771D01*
X118467143Y-67399771D02*
X118705238Y-67399771D01*
X118705238Y-67399771D02*
X118800476Y-67447390D01*
X118800476Y-67447390D02*
X118848095Y-67495009D01*
X118848095Y-67495009D02*
X118895714Y-67590247D01*
X118895714Y-67590247D02*
X118895714Y-67828342D01*
X118895714Y-67828342D02*
X118848095Y-67923580D01*
X118848095Y-67923580D02*
X118800476Y-67971200D01*
X118800476Y-67971200D02*
X118705238Y-68018819D01*
X118705238Y-68018819D02*
X118467143Y-68018819D01*
X118467143Y-68018819D02*
X118371905Y-67971200D01*
X118371905Y-67971200D02*
X118324286Y-67923580D01*
X95974819Y-104314523D02*
X96974819Y-103981190D01*
X96974819Y-103981190D02*
X95974819Y-103647857D01*
X95974819Y-103409761D02*
X95974819Y-102790714D01*
X95974819Y-102790714D02*
X96355771Y-103124047D01*
X96355771Y-103124047D02*
X96355771Y-102981190D01*
X96355771Y-102981190D02*
X96403390Y-102885952D01*
X96403390Y-102885952D02*
X96451009Y-102838333D01*
X96451009Y-102838333D02*
X96546247Y-102790714D01*
X96546247Y-102790714D02*
X96784342Y-102790714D01*
X96784342Y-102790714D02*
X96879580Y-102838333D01*
X96879580Y-102838333D02*
X96927200Y-102885952D01*
X96927200Y-102885952D02*
X96974819Y-102981190D01*
X96974819Y-102981190D02*
X96974819Y-103266904D01*
X96974819Y-103266904D02*
X96927200Y-103362142D01*
X96927200Y-103362142D02*
X96879580Y-103409761D01*
X94226095Y-99006819D02*
X94226095Y-98006819D01*
X94797523Y-99006819D02*
X94368952Y-98435390D01*
X94797523Y-98006819D02*
X94226095Y-98578247D01*
X185316905Y-72209819D02*
X185316905Y-71209819D01*
X185316905Y-71209819D02*
X185555000Y-71209819D01*
X185555000Y-71209819D02*
X185697857Y-71257438D01*
X185697857Y-71257438D02*
X185793095Y-71352676D01*
X185793095Y-71352676D02*
X185840714Y-71447914D01*
X185840714Y-71447914D02*
X185888333Y-71638390D01*
X185888333Y-71638390D02*
X185888333Y-71781247D01*
X185888333Y-71781247D02*
X185840714Y-71971723D01*
X185840714Y-71971723D02*
X185793095Y-72066961D01*
X185793095Y-72066961D02*
X185697857Y-72162200D01*
X185697857Y-72162200D02*
X185555000Y-72209819D01*
X185555000Y-72209819D02*
X185316905Y-72209819D01*
X186745476Y-71209819D02*
X186555000Y-71209819D01*
X186555000Y-71209819D02*
X186459762Y-71257438D01*
X186459762Y-71257438D02*
X186412143Y-71305057D01*
X186412143Y-71305057D02*
X186316905Y-71447914D01*
X186316905Y-71447914D02*
X186269286Y-71638390D01*
X186269286Y-71638390D02*
X186269286Y-72019342D01*
X186269286Y-72019342D02*
X186316905Y-72114580D01*
X186316905Y-72114580D02*
X186364524Y-72162200D01*
X186364524Y-72162200D02*
X186459762Y-72209819D01*
X186459762Y-72209819D02*
X186650238Y-72209819D01*
X186650238Y-72209819D02*
X186745476Y-72162200D01*
X186745476Y-72162200D02*
X186793095Y-72114580D01*
X186793095Y-72114580D02*
X186840714Y-72019342D01*
X186840714Y-72019342D02*
X186840714Y-71781247D01*
X186840714Y-71781247D02*
X186793095Y-71686009D01*
X186793095Y-71686009D02*
X186745476Y-71638390D01*
X186745476Y-71638390D02*
X186650238Y-71590771D01*
X186650238Y-71590771D02*
X186459762Y-71590771D01*
X186459762Y-71590771D02*
X186364524Y-71638390D01*
X186364524Y-71638390D02*
X186316905Y-71686009D01*
X186316905Y-71686009D02*
X186269286Y-71781247D01*
X105203333Y-78464580D02*
X105155714Y-78512200D01*
X105155714Y-78512200D02*
X105012857Y-78559819D01*
X105012857Y-78559819D02*
X104917619Y-78559819D01*
X104917619Y-78559819D02*
X104774762Y-78512200D01*
X104774762Y-78512200D02*
X104679524Y-78416961D01*
X104679524Y-78416961D02*
X104631905Y-78321723D01*
X104631905Y-78321723D02*
X104584286Y-78131247D01*
X104584286Y-78131247D02*
X104584286Y-77988390D01*
X104584286Y-77988390D02*
X104631905Y-77797914D01*
X104631905Y-77797914D02*
X104679524Y-77702676D01*
X104679524Y-77702676D02*
X104774762Y-77607438D01*
X104774762Y-77607438D02*
X104917619Y-77559819D01*
X104917619Y-77559819D02*
X105012857Y-77559819D01*
X105012857Y-77559819D02*
X105155714Y-77607438D01*
X105155714Y-77607438D02*
X105203333Y-77655057D01*
X106060476Y-77559819D02*
X105870000Y-77559819D01*
X105870000Y-77559819D02*
X105774762Y-77607438D01*
X105774762Y-77607438D02*
X105727143Y-77655057D01*
X105727143Y-77655057D02*
X105631905Y-77797914D01*
X105631905Y-77797914D02*
X105584286Y-77988390D01*
X105584286Y-77988390D02*
X105584286Y-78369342D01*
X105584286Y-78369342D02*
X105631905Y-78464580D01*
X105631905Y-78464580D02*
X105679524Y-78512200D01*
X105679524Y-78512200D02*
X105774762Y-78559819D01*
X105774762Y-78559819D02*
X105965238Y-78559819D01*
X105965238Y-78559819D02*
X106060476Y-78512200D01*
X106060476Y-78512200D02*
X106108095Y-78464580D01*
X106108095Y-78464580D02*
X106155714Y-78369342D01*
X106155714Y-78369342D02*
X106155714Y-78131247D01*
X106155714Y-78131247D02*
X106108095Y-78036009D01*
X106108095Y-78036009D02*
X106060476Y-77988390D01*
X106060476Y-77988390D02*
X105965238Y-77940771D01*
X105965238Y-77940771D02*
X105774762Y-77940771D01*
X105774762Y-77940771D02*
X105679524Y-77988390D01*
X105679524Y-77988390D02*
X105631905Y-78036009D01*
X105631905Y-78036009D02*
X105584286Y-78131247D01*
X129817905Y-97482819D02*
X129817905Y-96482819D01*
X129817905Y-96482819D02*
X130056000Y-96482819D01*
X130056000Y-96482819D02*
X130198857Y-96530438D01*
X130198857Y-96530438D02*
X130294095Y-96625676D01*
X130294095Y-96625676D02*
X130341714Y-96720914D01*
X130341714Y-96720914D02*
X130389333Y-96911390D01*
X130389333Y-96911390D02*
X130389333Y-97054247D01*
X130389333Y-97054247D02*
X130341714Y-97244723D01*
X130341714Y-97244723D02*
X130294095Y-97339961D01*
X130294095Y-97339961D02*
X130198857Y-97435200D01*
X130198857Y-97435200D02*
X130056000Y-97482819D01*
X130056000Y-97482819D02*
X129817905Y-97482819D01*
X131294095Y-96482819D02*
X130817905Y-96482819D01*
X130817905Y-96482819D02*
X130770286Y-96959009D01*
X130770286Y-96959009D02*
X130817905Y-96911390D01*
X130817905Y-96911390D02*
X130913143Y-96863771D01*
X130913143Y-96863771D02*
X131151238Y-96863771D01*
X131151238Y-96863771D02*
X131246476Y-96911390D01*
X131246476Y-96911390D02*
X131294095Y-96959009D01*
X131294095Y-96959009D02*
X131341714Y-97054247D01*
X131341714Y-97054247D02*
X131341714Y-97292342D01*
X131341714Y-97292342D02*
X131294095Y-97387580D01*
X131294095Y-97387580D02*
X131246476Y-97435200D01*
X131246476Y-97435200D02*
X131151238Y-97482819D01*
X131151238Y-97482819D02*
X130913143Y-97482819D01*
X130913143Y-97482819D02*
X130817905Y-97435200D01*
X130817905Y-97435200D02*
X130770286Y-97387580D01*
X105134580Y-87836666D02*
X105182200Y-87884285D01*
X105182200Y-87884285D02*
X105229819Y-88027142D01*
X105229819Y-88027142D02*
X105229819Y-88122380D01*
X105229819Y-88122380D02*
X105182200Y-88265237D01*
X105182200Y-88265237D02*
X105086961Y-88360475D01*
X105086961Y-88360475D02*
X104991723Y-88408094D01*
X104991723Y-88408094D02*
X104801247Y-88455713D01*
X104801247Y-88455713D02*
X104658390Y-88455713D01*
X104658390Y-88455713D02*
X104467914Y-88408094D01*
X104467914Y-88408094D02*
X104372676Y-88360475D01*
X104372676Y-88360475D02*
X104277438Y-88265237D01*
X104277438Y-88265237D02*
X104229819Y-88122380D01*
X104229819Y-88122380D02*
X104229819Y-88027142D01*
X104229819Y-88027142D02*
X104277438Y-87884285D01*
X104277438Y-87884285D02*
X104325057Y-87836666D01*
X104325057Y-87455713D02*
X104277438Y-87408094D01*
X104277438Y-87408094D02*
X104229819Y-87312856D01*
X104229819Y-87312856D02*
X104229819Y-87074761D01*
X104229819Y-87074761D02*
X104277438Y-86979523D01*
X104277438Y-86979523D02*
X104325057Y-86931904D01*
X104325057Y-86931904D02*
X104420295Y-86884285D01*
X104420295Y-86884285D02*
X104515533Y-86884285D01*
X104515533Y-86884285D02*
X104658390Y-86931904D01*
X104658390Y-86931904D02*
X105229819Y-87503332D01*
X105229819Y-87503332D02*
X105229819Y-86884285D01*
X181435476Y-57874819D02*
X181768809Y-58874819D01*
X181768809Y-58874819D02*
X182102142Y-57874819D01*
X182911666Y-57874819D02*
X182435476Y-57874819D01*
X182435476Y-57874819D02*
X182387857Y-58351009D01*
X182387857Y-58351009D02*
X182435476Y-58303390D01*
X182435476Y-58303390D02*
X182530714Y-58255771D01*
X182530714Y-58255771D02*
X182768809Y-58255771D01*
X182768809Y-58255771D02*
X182864047Y-58303390D01*
X182864047Y-58303390D02*
X182911666Y-58351009D01*
X182911666Y-58351009D02*
X182959285Y-58446247D01*
X182959285Y-58446247D02*
X182959285Y-58684342D01*
X182959285Y-58684342D02*
X182911666Y-58779580D01*
X182911666Y-58779580D02*
X182864047Y-58827200D01*
X182864047Y-58827200D02*
X182768809Y-58874819D01*
X182768809Y-58874819D02*
X182530714Y-58874819D01*
X182530714Y-58874819D02*
X182435476Y-58827200D01*
X182435476Y-58827200D02*
X182387857Y-58779580D01*
X185158095Y-57858819D02*
X185158095Y-56858819D01*
X185729523Y-57858819D02*
X185300952Y-57287390D01*
X185729523Y-56858819D02*
X185158095Y-57430247D01*
X208639580Y-104782857D02*
X208687200Y-104830476D01*
X208687200Y-104830476D02*
X208734819Y-104973333D01*
X208734819Y-104973333D02*
X208734819Y-105068571D01*
X208734819Y-105068571D02*
X208687200Y-105211428D01*
X208687200Y-105211428D02*
X208591961Y-105306666D01*
X208591961Y-105306666D02*
X208496723Y-105354285D01*
X208496723Y-105354285D02*
X208306247Y-105401904D01*
X208306247Y-105401904D02*
X208163390Y-105401904D01*
X208163390Y-105401904D02*
X207972914Y-105354285D01*
X207972914Y-105354285D02*
X207877676Y-105306666D01*
X207877676Y-105306666D02*
X207782438Y-105211428D01*
X207782438Y-105211428D02*
X207734819Y-105068571D01*
X207734819Y-105068571D02*
X207734819Y-104973333D01*
X207734819Y-104973333D02*
X207782438Y-104830476D01*
X207782438Y-104830476D02*
X207830057Y-104782857D01*
X208734819Y-103830476D02*
X208734819Y-104401904D01*
X208734819Y-104116190D02*
X207734819Y-104116190D01*
X207734819Y-104116190D02*
X207877676Y-104211428D01*
X207877676Y-104211428D02*
X207972914Y-104306666D01*
X207972914Y-104306666D02*
X208020533Y-104401904D01*
X208734819Y-102878095D02*
X208734819Y-103449523D01*
X208734819Y-103163809D02*
X207734819Y-103163809D01*
X207734819Y-103163809D02*
X207877676Y-103259047D01*
X207877676Y-103259047D02*
X207972914Y-103354285D01*
X207972914Y-103354285D02*
X208020533Y-103449523D01*
X134612142Y-81734819D02*
X134278809Y-81258628D01*
X134040714Y-81734819D02*
X134040714Y-80734819D01*
X134040714Y-80734819D02*
X134421666Y-80734819D01*
X134421666Y-80734819D02*
X134516904Y-80782438D01*
X134516904Y-80782438D02*
X134564523Y-80830057D01*
X134564523Y-80830057D02*
X134612142Y-80925295D01*
X134612142Y-80925295D02*
X134612142Y-81068152D01*
X134612142Y-81068152D02*
X134564523Y-81163390D01*
X134564523Y-81163390D02*
X134516904Y-81211009D01*
X134516904Y-81211009D02*
X134421666Y-81258628D01*
X134421666Y-81258628D02*
X134040714Y-81258628D01*
X135564523Y-81734819D02*
X134993095Y-81734819D01*
X135278809Y-81734819D02*
X135278809Y-80734819D01*
X135278809Y-80734819D02*
X135183571Y-80877676D01*
X135183571Y-80877676D02*
X135088333Y-80972914D01*
X135088333Y-80972914D02*
X134993095Y-81020533D01*
X136183571Y-80734819D02*
X136278809Y-80734819D01*
X136278809Y-80734819D02*
X136374047Y-80782438D01*
X136374047Y-80782438D02*
X136421666Y-80830057D01*
X136421666Y-80830057D02*
X136469285Y-80925295D01*
X136469285Y-80925295D02*
X136516904Y-81115771D01*
X136516904Y-81115771D02*
X136516904Y-81353866D01*
X136516904Y-81353866D02*
X136469285Y-81544342D01*
X136469285Y-81544342D02*
X136421666Y-81639580D01*
X136421666Y-81639580D02*
X136374047Y-81687200D01*
X136374047Y-81687200D02*
X136278809Y-81734819D01*
X136278809Y-81734819D02*
X136183571Y-81734819D01*
X136183571Y-81734819D02*
X136088333Y-81687200D01*
X136088333Y-81687200D02*
X136040714Y-81639580D01*
X136040714Y-81639580D02*
X135993095Y-81544342D01*
X135993095Y-81544342D02*
X135945476Y-81353866D01*
X135945476Y-81353866D02*
X135945476Y-81115771D01*
X135945476Y-81115771D02*
X135993095Y-80925295D01*
X135993095Y-80925295D02*
X136040714Y-80830057D01*
X136040714Y-80830057D02*
X136088333Y-80782438D01*
X136088333Y-80782438D02*
X136183571Y-80734819D01*
X115403333Y-81099819D02*
X115070000Y-80623628D01*
X114831905Y-81099819D02*
X114831905Y-80099819D01*
X114831905Y-80099819D02*
X115212857Y-80099819D01*
X115212857Y-80099819D02*
X115308095Y-80147438D01*
X115308095Y-80147438D02*
X115355714Y-80195057D01*
X115355714Y-80195057D02*
X115403333Y-80290295D01*
X115403333Y-80290295D02*
X115403333Y-80433152D01*
X115403333Y-80433152D02*
X115355714Y-80528390D01*
X115355714Y-80528390D02*
X115308095Y-80576009D01*
X115308095Y-80576009D02*
X115212857Y-80623628D01*
X115212857Y-80623628D02*
X114831905Y-80623628D01*
X116355714Y-81099819D02*
X115784286Y-81099819D01*
X116070000Y-81099819D02*
X116070000Y-80099819D01*
X116070000Y-80099819D02*
X115974762Y-80242676D01*
X115974762Y-80242676D02*
X115879524Y-80337914D01*
X115879524Y-80337914D02*
X115784286Y-80385533D01*
X208639580Y-66722857D02*
X208687200Y-66770476D01*
X208687200Y-66770476D02*
X208734819Y-66913333D01*
X208734819Y-66913333D02*
X208734819Y-67008571D01*
X208734819Y-67008571D02*
X208687200Y-67151428D01*
X208687200Y-67151428D02*
X208591961Y-67246666D01*
X208591961Y-67246666D02*
X208496723Y-67294285D01*
X208496723Y-67294285D02*
X208306247Y-67341904D01*
X208306247Y-67341904D02*
X208163390Y-67341904D01*
X208163390Y-67341904D02*
X207972914Y-67294285D01*
X207972914Y-67294285D02*
X207877676Y-67246666D01*
X207877676Y-67246666D02*
X207782438Y-67151428D01*
X207782438Y-67151428D02*
X207734819Y-67008571D01*
X207734819Y-67008571D02*
X207734819Y-66913333D01*
X207734819Y-66913333D02*
X207782438Y-66770476D01*
X207782438Y-66770476D02*
X207830057Y-66722857D01*
X208734819Y-65770476D02*
X208734819Y-66341904D01*
X208734819Y-66056190D02*
X207734819Y-66056190D01*
X207734819Y-66056190D02*
X207877676Y-66151428D01*
X207877676Y-66151428D02*
X207972914Y-66246666D01*
X207972914Y-66246666D02*
X208020533Y-66341904D01*
X207830057Y-65389523D02*
X207782438Y-65341904D01*
X207782438Y-65341904D02*
X207734819Y-65246666D01*
X207734819Y-65246666D02*
X207734819Y-65008571D01*
X207734819Y-65008571D02*
X207782438Y-64913333D01*
X207782438Y-64913333D02*
X207830057Y-64865714D01*
X207830057Y-64865714D02*
X207925295Y-64818095D01*
X207925295Y-64818095D02*
X208020533Y-64818095D01*
X208020533Y-64818095D02*
X208163390Y-64865714D01*
X208163390Y-64865714D02*
X208734819Y-65437142D01*
X208734819Y-65437142D02*
X208734819Y-64818095D01*
X194135476Y-57874819D02*
X194468809Y-58874819D01*
X194468809Y-58874819D02*
X194802142Y-57874819D01*
X195564047Y-58208152D02*
X195564047Y-58874819D01*
X195325952Y-57827200D02*
X195087857Y-58541485D01*
X195087857Y-58541485D02*
X195706904Y-58541485D01*
X190746095Y-57858819D02*
X190746095Y-56858819D01*
X191317523Y-57858819D02*
X190888952Y-57287390D01*
X191317523Y-56858819D02*
X190746095Y-57430247D01*
X185316905Y-84909819D02*
X185316905Y-83909819D01*
X185316905Y-83909819D02*
X185555000Y-83909819D01*
X185555000Y-83909819D02*
X185697857Y-83957438D01*
X185697857Y-83957438D02*
X185793095Y-84052676D01*
X185793095Y-84052676D02*
X185840714Y-84147914D01*
X185840714Y-84147914D02*
X185888333Y-84338390D01*
X185888333Y-84338390D02*
X185888333Y-84481247D01*
X185888333Y-84481247D02*
X185840714Y-84671723D01*
X185840714Y-84671723D02*
X185793095Y-84766961D01*
X185793095Y-84766961D02*
X185697857Y-84862200D01*
X185697857Y-84862200D02*
X185555000Y-84909819D01*
X185555000Y-84909819D02*
X185316905Y-84909819D01*
X186745476Y-84243152D02*
X186745476Y-84909819D01*
X186507381Y-83862200D02*
X186269286Y-84576485D01*
X186269286Y-84576485D02*
X186888333Y-84576485D01*
X97401142Y-80115580D02*
X97353523Y-80163200D01*
X97353523Y-80163200D02*
X97210666Y-80210819D01*
X97210666Y-80210819D02*
X97115428Y-80210819D01*
X97115428Y-80210819D02*
X96972571Y-80163200D01*
X96972571Y-80163200D02*
X96877333Y-80067961D01*
X96877333Y-80067961D02*
X96829714Y-79972723D01*
X96829714Y-79972723D02*
X96782095Y-79782247D01*
X96782095Y-79782247D02*
X96782095Y-79639390D01*
X96782095Y-79639390D02*
X96829714Y-79448914D01*
X96829714Y-79448914D02*
X96877333Y-79353676D01*
X96877333Y-79353676D02*
X96972571Y-79258438D01*
X96972571Y-79258438D02*
X97115428Y-79210819D01*
X97115428Y-79210819D02*
X97210666Y-79210819D01*
X97210666Y-79210819D02*
X97353523Y-79258438D01*
X97353523Y-79258438D02*
X97401142Y-79306057D01*
X98353523Y-80210819D02*
X97782095Y-80210819D01*
X98067809Y-80210819D02*
X98067809Y-79210819D01*
X98067809Y-79210819D02*
X97972571Y-79353676D01*
X97972571Y-79353676D02*
X97877333Y-79448914D01*
X97877333Y-79448914D02*
X97782095Y-79496533D01*
X98686857Y-79210819D02*
X99353523Y-79210819D01*
X99353523Y-79210819D02*
X98924952Y-80210819D01*
X123914819Y-104314523D02*
X124914819Y-103981190D01*
X124914819Y-103981190D02*
X123914819Y-103647857D01*
X124010057Y-103362142D02*
X123962438Y-103314523D01*
X123962438Y-103314523D02*
X123914819Y-103219285D01*
X123914819Y-103219285D02*
X123914819Y-102981190D01*
X123914819Y-102981190D02*
X123962438Y-102885952D01*
X123962438Y-102885952D02*
X124010057Y-102838333D01*
X124010057Y-102838333D02*
X124105295Y-102790714D01*
X124105295Y-102790714D02*
X124200533Y-102790714D01*
X124200533Y-102790714D02*
X124343390Y-102838333D01*
X124343390Y-102838333D02*
X124914819Y-103409761D01*
X124914819Y-103409761D02*
X124914819Y-102790714D01*
X124914819Y-96781904D02*
X123914819Y-96781904D01*
X124914819Y-96210476D02*
X124343390Y-96639047D01*
X123914819Y-96210476D02*
X124486247Y-96781904D01*
X124991905Y-59509819D02*
X124991905Y-58509819D01*
X124991905Y-58509819D02*
X125230000Y-58509819D01*
X125230000Y-58509819D02*
X125372857Y-58557438D01*
X125372857Y-58557438D02*
X125468095Y-58652676D01*
X125468095Y-58652676D02*
X125515714Y-58747914D01*
X125515714Y-58747914D02*
X125563333Y-58938390D01*
X125563333Y-58938390D02*
X125563333Y-59081247D01*
X125563333Y-59081247D02*
X125515714Y-59271723D01*
X125515714Y-59271723D02*
X125468095Y-59366961D01*
X125468095Y-59366961D02*
X125372857Y-59462200D01*
X125372857Y-59462200D02*
X125230000Y-59509819D01*
X125230000Y-59509819D02*
X124991905Y-59509819D01*
X126515714Y-59509819D02*
X125944286Y-59509819D01*
X126230000Y-59509819D02*
X126230000Y-58509819D01*
X126230000Y-58509819D02*
X126134762Y-58652676D01*
X126134762Y-58652676D02*
X126039524Y-58747914D01*
X126039524Y-58747914D02*
X125944286Y-58795533D01*
D13*
%TO.C,V6*%
X187730000Y-96520000D02*
X189650000Y-96520000D01*
X189650000Y-95400000D02*
X189650000Y-97640000D01*
X189650000Y-97640000D02*
X193890000Y-97640000D01*
X190250000Y-95400000D02*
X190250000Y-97640000D01*
X190370000Y-95400000D02*
X190370000Y-97640000D01*
X190490000Y-95400000D02*
X190490000Y-97640000D01*
X193890000Y-95400000D02*
X189650000Y-95400000D01*
X193890000Y-97640000D02*
X193890000Y-95400000D01*
X195810000Y-96520000D02*
X193890000Y-96520000D01*
%TO.C,R16*%
X200882500Y-97472500D02*
X207422500Y-97472500D01*
X207422500Y-95567500D02*
X200882500Y-95567500D01*
X200882500Y-95567500D02*
X200882500Y-97472500D01*
X207422500Y-97472500D02*
X207422500Y-95567500D01*
X208192500Y-96520000D02*
X207422500Y-96520000D01*
X200112500Y-96520000D02*
X200882500Y-96520000D01*
%TO.C,R15*%
X99377500Y-68485000D02*
X99377500Y-75025000D01*
X101282500Y-75025000D02*
X101282500Y-68485000D01*
X99377500Y-75025000D02*
X101282500Y-75025000D01*
X100330000Y-67715000D02*
X100330000Y-68485000D01*
X101282500Y-68485000D02*
X99377500Y-68485000D01*
X100330000Y-75795000D02*
X100330000Y-75025000D01*
%TO.C,C16*%
X176965000Y-101830000D02*
X176965000Y-106370000D01*
X174840000Y-106370000D02*
X174825000Y-106370000D01*
X174825000Y-101830000D02*
X174825000Y-106370000D01*
X174840000Y-101830000D02*
X174825000Y-101830000D01*
X176965000Y-101830000D02*
X176950000Y-101830000D01*
X176965000Y-106370000D02*
X176950000Y-106370000D01*
%TO.C,R9*%
X152865000Y-80140000D02*
X173525000Y-80140000D01*
X173525000Y-80140000D02*
X173525000Y-77340000D01*
X152865000Y-77340000D02*
X152865000Y-80140000D01*
X155575000Y-77340000D02*
X155575000Y-80140000D01*
X173525000Y-77340000D02*
X152865000Y-77340000D01*
%TO.C,X5*%
X98460000Y-58975000D02*
X95800000Y-58975000D01*
X95800000Y-61575000D02*
X95800000Y-58975000D01*
X95800000Y-64175000D02*
X95800000Y-62845000D01*
X97130000Y-64175000D02*
X95800000Y-64175000D01*
X98460000Y-61575000D02*
X95800000Y-61575000D01*
X98460000Y-61575000D02*
X98460000Y-58975000D01*
%TO.C,C3*%
X106245000Y-85400000D02*
X106260000Y-85400000D01*
X108385000Y-89940000D02*
X108385000Y-85400000D01*
X106245000Y-89940000D02*
X106245000Y-85400000D01*
X108370000Y-85400000D02*
X108385000Y-85400000D01*
X106245000Y-89940000D02*
X106260000Y-89940000D01*
X108370000Y-89940000D02*
X108385000Y-89940000D01*
%TO.C,X4*%
X95850000Y-67965000D02*
X95850000Y-70565000D01*
X98510000Y-65365000D02*
X98510000Y-66695000D01*
X97180000Y-65365000D02*
X98510000Y-65365000D01*
X98510000Y-67965000D02*
X98510000Y-70565000D01*
X95850000Y-67965000D02*
X98510000Y-67965000D01*
X95850000Y-70565000D02*
X98510000Y-70565000D01*
%TO.C,D3*%
X205800000Y-62120000D02*
X187900000Y-62120000D01*
X187900000Y-67420000D02*
X205800000Y-67420000D01*
X187900000Y-62120000D02*
X187900000Y-63770000D01*
X187900000Y-65770000D02*
X187900000Y-67420000D01*
X205800000Y-67420000D02*
X205800000Y-62120000D01*
X187900000Y-63770000D02*
G75*
G02*
X187900000Y-65770000I0J-1000000D01*
G01*
%TO.C,R11*%
X122872500Y-106775000D02*
X122872500Y-100235000D01*
X120967500Y-100235000D02*
X120967500Y-106775000D01*
X121920000Y-99465000D02*
X121920000Y-100235000D01*
X120967500Y-106775000D02*
X122872500Y-106775000D01*
X122872500Y-100235000D02*
X120967500Y-100235000D01*
X121920000Y-107545000D02*
X121920000Y-106775000D01*
%TO.C,A1*%
X99000000Y-103870000D02*
X99000000Y-105520000D01*
X116900000Y-105520000D02*
X116900000Y-100220000D01*
X116900000Y-100220000D02*
X99000000Y-100220000D01*
X99000000Y-100220000D02*
X99000000Y-101870000D01*
X99000000Y-105520000D02*
X116900000Y-105520000D01*
X99000000Y-101870000D02*
G75*
G02*
X99000000Y-103870000I0J-1000000D01*
G01*
%TO.C,C10*%
X120450000Y-100600000D02*
X120450000Y-105140000D01*
X120450000Y-100600000D02*
X120435000Y-100600000D01*
X118325000Y-100600000D02*
X118310000Y-100600000D01*
X118310000Y-100600000D02*
X118310000Y-105140000D01*
X118325000Y-105140000D02*
X118310000Y-105140000D01*
X120450000Y-105140000D02*
X120435000Y-105140000D01*
%TO.C,R14*%
X98330000Y-94932500D02*
X98330000Y-96837500D01*
X104870000Y-94932500D02*
X98330000Y-94932500D01*
X97560000Y-95885000D02*
X98330000Y-95885000D01*
X105640000Y-95885000D02*
X104870000Y-95885000D01*
X104870000Y-96837500D02*
X104870000Y-94932500D01*
X98330000Y-96837500D02*
X104870000Y-96837500D01*
%TO.C,D7*%
X155515000Y-100220000D02*
X155515000Y-101870000D01*
X155515000Y-103870000D02*
X155515000Y-105520000D01*
X173415000Y-105520000D02*
X173415000Y-100220000D01*
X173415000Y-100220000D02*
X155515000Y-100220000D01*
X155515000Y-105520000D02*
X173415000Y-105520000D01*
X155515000Y-101870000D02*
G75*
G02*
X155515000Y-103870000I0J-1000000D01*
G01*
%TO.C,C14*%
X207225000Y-76510000D02*
X207210000Y-76510000D01*
X207210000Y-76510000D02*
X207210000Y-81050000D01*
X207225000Y-81050000D02*
X207210000Y-81050000D01*
X209350000Y-76510000D02*
X209335000Y-76510000D01*
X209350000Y-81050000D02*
X209335000Y-81050000D01*
X209350000Y-76510000D02*
X209350000Y-81050000D01*
%TO.C,V1*%
X127000000Y-99465000D02*
X127000000Y-101385000D01*
X125880000Y-101385000D02*
X125880000Y-105625000D01*
X128120000Y-102105000D02*
X125880000Y-102105000D01*
X127000000Y-107545000D02*
X127000000Y-105625000D01*
X128120000Y-105625000D02*
X128120000Y-101385000D01*
X128120000Y-101985000D02*
X125880000Y-101985000D01*
X125880000Y-105625000D02*
X128120000Y-105625000D01*
X128120000Y-101385000D02*
X125880000Y-101385000D01*
X128120000Y-102225000D02*
X125880000Y-102225000D01*
%TO.C,C13*%
X209350000Y-93710000D02*
X209335000Y-93710000D01*
X207225000Y-93710000D02*
X207210000Y-93710000D01*
X209350000Y-89170000D02*
X209350000Y-93710000D01*
X209350000Y-89170000D02*
X209335000Y-89170000D01*
X207210000Y-89170000D02*
X207210000Y-93710000D01*
X207225000Y-89170000D02*
X207210000Y-89170000D01*
%TO.C,R6*%
X103822500Y-71215000D02*
X103822500Y-64675000D01*
X101917500Y-71215000D02*
X103822500Y-71215000D01*
X103822500Y-64675000D02*
X101917500Y-64675000D01*
X102870000Y-71985000D02*
X102870000Y-71215000D01*
X101917500Y-64675000D02*
X101917500Y-71215000D01*
X102870000Y-63905000D02*
X102870000Y-64675000D01*
%TO.C,R8*%
X179324000Y-62000000D02*
X179324000Y-62770000D01*
X178371500Y-69310000D02*
X180276500Y-69310000D01*
X180276500Y-69310000D02*
X180276500Y-62770000D01*
X179324000Y-70080000D02*
X179324000Y-69310000D01*
X180276500Y-62770000D02*
X178371500Y-62770000D01*
X178371500Y-62770000D02*
X178371500Y-69310000D01*
%TO.C,C4*%
X120380000Y-69161000D02*
X120380000Y-69176000D01*
X115840000Y-71286000D02*
X115840000Y-71301000D01*
X120380000Y-71286000D02*
X120380000Y-71301000D01*
X115840000Y-71301000D02*
X120380000Y-71301000D01*
X115840000Y-69161000D02*
X120380000Y-69161000D01*
X115840000Y-69161000D02*
X115840000Y-69176000D01*
%TO.C,R13*%
X100965000Y-91670000D02*
X100965000Y-90900000D01*
X100965000Y-83590000D02*
X100965000Y-84360000D01*
X100012500Y-90900000D02*
X101917500Y-90900000D01*
X100012500Y-84360000D02*
X100012500Y-90900000D01*
X101917500Y-90900000D02*
X101917500Y-84360000D01*
X101917500Y-84360000D02*
X100012500Y-84360000D01*
%TO.C,R2*%
X104680000Y-76517500D02*
X111220000Y-76517500D01*
X111990000Y-75565000D02*
X111220000Y-75565000D01*
X111220000Y-76517500D02*
X111220000Y-74612500D01*
X103910000Y-75565000D02*
X104680000Y-75565000D01*
X104680000Y-74612500D02*
X104680000Y-76517500D01*
X111220000Y-74612500D02*
X104680000Y-74612500D01*
%TO.C,C15*%
X149440000Y-106370000D02*
X149425000Y-106370000D01*
X151565000Y-101830000D02*
X151565000Y-106370000D01*
X149425000Y-101830000D02*
X149425000Y-106370000D01*
X149440000Y-101830000D02*
X149425000Y-101830000D01*
X151565000Y-106370000D02*
X151550000Y-106370000D01*
X151565000Y-101830000D02*
X151550000Y-101830000D01*
%TO.C,D2*%
X187900000Y-103870000D02*
X187900000Y-105520000D01*
X205800000Y-105520000D02*
X205800000Y-100220000D01*
X187900000Y-105520000D02*
X205800000Y-105520000D01*
X187900000Y-100220000D02*
X187900000Y-101870000D01*
X205800000Y-100220000D02*
X187900000Y-100220000D01*
X187900000Y-101870000D02*
G75*
G02*
X187900000Y-103870000I0J-1000000D01*
G01*
%TO.C,VT1*%
X116170000Y-76845000D02*
X120020000Y-76845000D01*
X120412382Y-76257264D02*
G75*
G02*
X120019999Y-76844999I-2302382J1112264D01*
G01*
X115762226Y-74050214D02*
G75*
G02*
X117020000Y-72795001I2347774J-1094786D01*
G01*
X116170000Y-76845000D02*
G75*
G02*
X115787369Y-76267045I1940000J1700000D01*
G01*
X119170000Y-72795000D02*
G75*
G02*
X120446463Y-74055487I-1060000J-2350000D01*
G01*
%TO.C,VT2*%
X108540000Y-71511000D02*
X112390000Y-71511000D01*
X108132226Y-68716214D02*
G75*
G02*
X109390000Y-67461001I2347774J-1094786D01*
G01*
X108540000Y-71511000D02*
G75*
G02*
X108157369Y-70933045I1940000J1700000D01*
G01*
X112782382Y-70923264D02*
G75*
G02*
X112389999Y-71510999I-2302382J1112264D01*
G01*
X111540000Y-67461000D02*
G75*
G02*
X112816463Y-68721487I-1060000J-2350000D01*
G01*
%TO.C,R12*%
X154622500Y-100235000D02*
X152717500Y-100235000D01*
X154622500Y-106775000D02*
X154622500Y-100235000D01*
X153670000Y-99465000D02*
X153670000Y-100235000D01*
X152717500Y-106775000D02*
X154622500Y-106775000D01*
X153670000Y-107545000D02*
X153670000Y-106775000D01*
X152717500Y-100235000D02*
X152717500Y-106775000D01*
%TO.C,C8*%
X174315000Y-57350000D02*
X174315000Y-57365000D01*
X174315000Y-59475000D02*
X174315000Y-59490000D01*
X169775000Y-59490000D02*
X174315000Y-59490000D01*
X169775000Y-59475000D02*
X169775000Y-59490000D01*
X169775000Y-57350000D02*
X169775000Y-57365000D01*
X169775000Y-57350000D02*
X174315000Y-57350000D01*
%TO.C,Y1*%
X121920000Y-85725000D02*
X127000000Y-85725000D01*
X121920000Y-92075000D02*
X127000000Y-92075000D01*
X177800000Y-93662500D02*
X127000000Y-93662500D01*
X127000000Y-84137500D01*
X177800000Y-84137500D01*
X177800000Y-93662500D01*
%TO.C,R3*%
X112300000Y-77152500D02*
X112300000Y-79057500D01*
X118840000Y-79057500D02*
X118840000Y-77152500D01*
X118840000Y-77152500D02*
X112300000Y-77152500D01*
X111530000Y-78105000D02*
X112300000Y-78105000D01*
X119610000Y-78105000D02*
X118840000Y-78105000D01*
X112300000Y-79057500D02*
X118840000Y-79057500D01*
%TO.C,R4*%
X112300000Y-63817500D02*
X112300000Y-65722500D01*
X118840000Y-65722500D02*
X118840000Y-63817500D01*
X119610000Y-64770000D02*
X118840000Y-64770000D01*
X111530000Y-64770000D02*
X112300000Y-64770000D01*
X112300000Y-65722500D02*
X118840000Y-65722500D01*
X118840000Y-63817500D02*
X112300000Y-63817500D01*
%TO.C,VT3*%
X93716000Y-73996000D02*
X93716000Y-77846000D01*
X97766000Y-76996000D02*
G75*
G02*
X96505513Y-78272463I-2350000J1060000D01*
G01*
X96510786Y-73588226D02*
G75*
G02*
X97765999Y-74846000I-1094786J-2347774D01*
G01*
X94303736Y-78238382D02*
G75*
G02*
X93716001Y-77845999I1112264J2302382D01*
G01*
X93716000Y-73996000D02*
G75*
G02*
X94293955Y-73613369I1700000J-1940000D01*
G01*
%TO.C,C9*%
X179475000Y-79810000D02*
X179475000Y-79795000D01*
X174935000Y-79810000D02*
X174935000Y-79795000D01*
X174935000Y-77685000D02*
X174935000Y-77670000D01*
X179475000Y-79810000D02*
X174935000Y-79810000D01*
X179475000Y-77670000D02*
X174935000Y-77670000D01*
X179475000Y-77685000D02*
X179475000Y-77670000D01*
%TO.C,R7*%
X181864000Y-70080000D02*
X181864000Y-69310000D01*
X182816500Y-69310000D02*
X182816500Y-62770000D01*
X180911500Y-62770000D02*
X180911500Y-69310000D01*
X180911500Y-69310000D02*
X182816500Y-69310000D01*
X182816500Y-62770000D02*
X180911500Y-62770000D01*
X181864000Y-62000000D02*
X181864000Y-62770000D01*
%TO.C,C1*%
X109855000Y-93662500D02*
X120015000Y-93662500D01*
X120015000Y-82232500D01*
X109855000Y-82232500D01*
X109855000Y-93662500D01*
%TO.C,C7*%
X113340000Y-63300000D02*
X113340000Y-63285000D01*
X117880000Y-63300000D02*
X117880000Y-63285000D01*
X117880000Y-61160000D02*
X113340000Y-61160000D01*
X117880000Y-61175000D02*
X117880000Y-61160000D01*
X117880000Y-63300000D02*
X113340000Y-63300000D01*
X113340000Y-61175000D02*
X113340000Y-61160000D01*
%TO.C,X3*%
X212665000Y-61595000D02*
X212665000Y-58995000D01*
X212665000Y-64195000D02*
X212665000Y-62865000D01*
X215325000Y-61595000D02*
X212665000Y-61595000D01*
X215325000Y-58995000D02*
X212665000Y-58995000D01*
X213995000Y-64195000D02*
X212665000Y-64195000D01*
X215325000Y-61595000D02*
X215325000Y-58995000D01*
%TO.C,R5*%
X105410000Y-71985000D02*
X105410000Y-71215000D01*
X104457500Y-71215000D02*
X106362500Y-71215000D01*
X106362500Y-71215000D02*
X106362500Y-64675000D01*
X106362500Y-64675000D02*
X104457500Y-64675000D01*
X104457500Y-64675000D02*
X104457500Y-71215000D01*
X105410000Y-63905000D02*
X105410000Y-64675000D01*
%TO.C,C5*%
X115840000Y-66255000D02*
X115840000Y-66240000D01*
X120380000Y-68380000D02*
X120380000Y-68365000D01*
X120380000Y-66255000D02*
X120380000Y-66240000D01*
X120380000Y-66240000D02*
X115840000Y-66240000D01*
X115840000Y-68380000D02*
X115840000Y-68365000D01*
X120380000Y-68380000D02*
X115840000Y-68380000D01*
%TO.C,V3*%
X96520000Y-107545000D02*
X96520000Y-105625000D01*
X95400000Y-105625000D02*
X97640000Y-105625000D01*
X97640000Y-102225000D02*
X95400000Y-102225000D01*
X97640000Y-101985000D02*
X95400000Y-101985000D01*
X96520000Y-99465000D02*
X96520000Y-101385000D01*
X97640000Y-102105000D02*
X95400000Y-102105000D01*
X95400000Y-101385000D02*
X95400000Y-105625000D01*
X97640000Y-105625000D02*
X97640000Y-101385000D01*
X97640000Y-101385000D02*
X95400000Y-101385000D01*
%TO.C,D6*%
X185360000Y-78470000D02*
X185360000Y-80120000D01*
X205800000Y-74820000D02*
X185360000Y-74820000D01*
X205800000Y-80120000D02*
X205800000Y-74820000D01*
X185360000Y-80120000D02*
X205800000Y-80120000D01*
X185360000Y-74820000D02*
X185360000Y-76470000D01*
X185360000Y-76470000D02*
G75*
G02*
X185360000Y-78470000I0J-1000000D01*
G01*
%TO.C,C6*%
X103100000Y-77035000D02*
X103100000Y-77050000D01*
X103100000Y-77035000D02*
X107640000Y-77035000D01*
X107640000Y-79160000D02*
X107640000Y-79175000D01*
X107640000Y-77035000D02*
X107640000Y-77050000D01*
X103100000Y-79160000D02*
X103100000Y-79175000D01*
X103100000Y-79175000D02*
X107640000Y-79175000D01*
%TO.C,D5*%
X130110000Y-100210000D02*
X130110000Y-101860000D01*
X148010000Y-105510000D02*
X148010000Y-100210000D01*
X130110000Y-103860000D02*
X130110000Y-105510000D01*
X148010000Y-100210000D02*
X130110000Y-100210000D01*
X130110000Y-105510000D02*
X148010000Y-105510000D01*
X130110000Y-101860000D02*
G75*
G02*
X130110000Y-103860000I0J-1000000D01*
G01*
%TO.C,C2*%
X103705000Y-89940000D02*
X103720000Y-89940000D01*
X105830000Y-89940000D02*
X105845000Y-89940000D01*
X105845000Y-89940000D02*
X105845000Y-85400000D01*
X105830000Y-85400000D02*
X105845000Y-85400000D01*
X103705000Y-89940000D02*
X103705000Y-85400000D01*
X103705000Y-85400000D02*
X103720000Y-85400000D01*
%TO.C,V5*%
X183525000Y-59540000D02*
X183525000Y-57300000D01*
X183645000Y-59540000D02*
X183645000Y-57300000D01*
X178205000Y-58420000D02*
X180125000Y-58420000D01*
X184365000Y-57300000D02*
X180125000Y-57300000D01*
X180125000Y-59540000D02*
X184365000Y-59540000D01*
X180125000Y-57300000D02*
X180125000Y-59540000D01*
X186285000Y-58420000D02*
X184365000Y-58420000D01*
X183765000Y-59540000D02*
X183765000Y-57300000D01*
X184365000Y-59540000D02*
X184365000Y-57300000D01*
%TO.C,C11*%
X209350000Y-101870000D02*
X209350000Y-106410000D01*
X209350000Y-101870000D02*
X209335000Y-101870000D01*
X207210000Y-101870000D02*
X207210000Y-106410000D01*
X207225000Y-106410000D02*
X207210000Y-106410000D01*
X209350000Y-106410000D02*
X209335000Y-106410000D01*
X207225000Y-101870000D02*
X207210000Y-101870000D01*
%TO.C,R10*%
X145585000Y-77340000D02*
X124925000Y-77340000D01*
X145585000Y-80140000D02*
X145585000Y-77340000D01*
X124925000Y-80140000D02*
X145585000Y-80140000D01*
X142875000Y-80140000D02*
X142875000Y-77340000D01*
X124925000Y-77340000D02*
X124925000Y-80140000D01*
%TO.C,R1*%
X111530000Y-80645000D02*
X112300000Y-80645000D01*
X118840000Y-79692500D02*
X112300000Y-79692500D01*
X118840000Y-81597500D02*
X118840000Y-79692500D01*
X112300000Y-81597500D02*
X118840000Y-81597500D01*
X119610000Y-80645000D02*
X118840000Y-80645000D01*
X112300000Y-79692500D02*
X112300000Y-81597500D01*
%TO.C,C12*%
X209350000Y-63810000D02*
X209335000Y-63810000D01*
X207210000Y-63810000D02*
X207210000Y-68350000D01*
X209350000Y-63810000D02*
X209350000Y-68350000D01*
X209350000Y-68350000D02*
X209335000Y-68350000D01*
X207225000Y-63810000D02*
X207210000Y-63810000D01*
X207225000Y-68350000D02*
X207210000Y-68350000D01*
%TO.C,V4*%
X193030000Y-57300000D02*
X193030000Y-59540000D01*
X192790000Y-57300000D02*
X192790000Y-59540000D01*
X192190000Y-57300000D02*
X192190000Y-59540000D01*
X198350000Y-58420000D02*
X196430000Y-58420000D01*
X190270000Y-58420000D02*
X192190000Y-58420000D01*
X192190000Y-59540000D02*
X196430000Y-59540000D01*
X196430000Y-57300000D02*
X192190000Y-57300000D01*
X196430000Y-59540000D02*
X196430000Y-57300000D01*
X192910000Y-57300000D02*
X192910000Y-59540000D01*
%TO.C,D4*%
X185360000Y-87510000D02*
X185360000Y-89160000D01*
X205800000Y-92810000D02*
X205800000Y-87510000D01*
X185360000Y-92810000D02*
X205800000Y-92810000D01*
X205800000Y-87510000D02*
X185360000Y-87510000D01*
X185360000Y-91160000D02*
X185360000Y-92810000D01*
X185360000Y-89160000D02*
G75*
G02*
X185360000Y-91160000I0J-1000000D01*
G01*
%TO.C,C17*%
X99140000Y-83550000D02*
G75*
G02*
X93900000Y-83550000I-2620000J0D01*
G01*
X93900000Y-83550000D02*
G75*
G02*
X99140000Y-83550000I2620000J0D01*
G01*
%TO.C,V2*%
X125580000Y-105625000D02*
X125580000Y-101385000D01*
X124460000Y-107545000D02*
X124460000Y-105625000D01*
X125580000Y-101385000D02*
X123340000Y-101385000D01*
X124460000Y-99465000D02*
X124460000Y-101385000D01*
X123340000Y-105625000D02*
X125580000Y-105625000D01*
X123340000Y-101385000D02*
X123340000Y-105625000D01*
X125580000Y-102105000D02*
X123340000Y-102105000D01*
X125580000Y-101985000D02*
X123340000Y-101985000D01*
X125580000Y-102225000D02*
X123340000Y-102225000D01*
%TO.C,D1*%
X125035000Y-62120000D02*
X125035000Y-75040000D01*
X175955000Y-67580000D02*
X175955000Y-62120000D01*
X175955000Y-62120000D02*
X125035000Y-62120000D01*
X125035000Y-75040000D02*
X175955000Y-75040000D01*
X175955000Y-75040000D02*
X175955000Y-69580000D01*
X175955000Y-69580000D02*
G75*
G02*
X175955000Y-67580000I0J1000000D01*
G01*
%TD*%
M02*
