%TF.GenerationSoftware,KiCad,Pcbnew,8.0.1*%
%TF.CreationDate,2024-05-17T17:30:14+02:00*%
%TF.ProjectId,modul_MH106,6d6f6475-6c5f-44d4-9831-30362e6b6963,rev?*%
%TF.SameCoordinates,Original*%
%TF.FileFunction,Soldermask,Bot*%
%TF.FilePolarity,Negative*%
%FSLAX46Y46*%
G04 Gerber Fmt 4.6, Leading zero omitted, Abs format (unit mm)*
G04 Created by KiCad (PCBNEW 8.0.1) date 2024-05-17 17:30:14*
%MOMM*%
%LPD*%
G01*
G04 APERTURE LIST*
%ADD10C,2.575000*%
%ADD11C,0.300000*%
%ADD12R,1.600000X1.600000*%
%ADD13O,1.600000X1.600000*%
%ADD14C,1.600000*%
%ADD15R,1.700000X1.700000*%
%ADD16O,1.700000X1.700000*%
%ADD17R,1.500000X1.500000*%
%ADD18C,1.500000*%
%ADD19C,2.500000*%
%ADD20C,3.000000*%
G04 APERTURE END LIST*
D10*
X97847500Y-90170000D02*
G75*
G02*
X95272500Y-90170000I-1287500J0D01*
G01*
X95272500Y-90170000D02*
G75*
G02*
X97847500Y-90170000I1287500J0D01*
G01*
D11*
X95186428Y-81386900D02*
X94043571Y-81386900D01*
X94614999Y-81958328D02*
X94614999Y-80815471D01*
D12*
%TO.C,V6*%
X186690000Y-96520000D03*
D13*
X196850000Y-96520000D03*
%TD*%
%TO.C,R16*%
X199072500Y-96520000D03*
D14*
X209232500Y-96520000D03*
%TD*%
%TO.C,R15*%
X100330000Y-76835000D03*
D13*
X100330000Y-66675000D03*
%TD*%
D14*
%TO.C,C16*%
X175895000Y-101600000D03*
X175895000Y-106600000D03*
%TD*%
D12*
%TO.C,R9*%
X154305000Y-78740000D03*
D13*
X156845000Y-78740000D03*
X159385000Y-78740000D03*
X161925000Y-78740000D03*
X164465000Y-78740000D03*
X167005000Y-78740000D03*
X169545000Y-78740000D03*
X172085000Y-78740000D03*
%TD*%
D15*
%TO.C,X5*%
X97130000Y-62845000D03*
D16*
X97130000Y-60305000D03*
%TD*%
D14*
%TO.C,C3*%
X107315000Y-90170000D03*
X107315000Y-85170000D03*
%TD*%
D15*
%TO.C,X4*%
X97180000Y-66695000D03*
D16*
X97180000Y-69235000D03*
%TD*%
D12*
%TO.C,D3*%
X189230000Y-68580000D03*
D13*
X191770000Y-68580000D03*
X194310000Y-68580000D03*
X196850000Y-68580000D03*
X199390000Y-68580000D03*
X201930000Y-68580000D03*
X204470000Y-68580000D03*
X204470000Y-60960000D03*
X201930000Y-60960000D03*
X199390000Y-60960000D03*
X196850000Y-60960000D03*
X194310000Y-60960000D03*
X191770000Y-60960000D03*
X189230000Y-60960000D03*
%TD*%
D14*
%TO.C,R11*%
X121920000Y-98425000D03*
D13*
X121920000Y-108585000D03*
%TD*%
D12*
%TO.C,A1*%
X100330000Y-106680000D03*
D13*
X102870000Y-106680000D03*
X105410000Y-106680000D03*
X107950000Y-106680000D03*
X110490000Y-106680000D03*
X113030000Y-106680000D03*
X115570000Y-106680000D03*
X115570000Y-99060000D03*
X113030000Y-99060000D03*
X110490000Y-99060000D03*
X107950000Y-99060000D03*
X105410000Y-99060000D03*
X102870000Y-99060000D03*
X100330000Y-99060000D03*
%TD*%
D14*
%TO.C,C10*%
X119380000Y-100370000D03*
X119380000Y-105370000D03*
%TD*%
%TO.C,R14*%
X96520000Y-95885000D03*
D13*
X106680000Y-95885000D03*
%TD*%
D12*
%TO.C,D7*%
X156845000Y-106680000D03*
D13*
X159385000Y-106680000D03*
X161925000Y-106680000D03*
X164465000Y-106680000D03*
X167005000Y-106680000D03*
X169545000Y-106680000D03*
X172085000Y-106680000D03*
X172085000Y-99060000D03*
X169545000Y-99060000D03*
X167005000Y-99060000D03*
X164465000Y-99060000D03*
X161925000Y-99060000D03*
X159385000Y-99060000D03*
X156845000Y-99060000D03*
%TD*%
D14*
%TO.C,C14*%
X208280000Y-76280000D03*
X208280000Y-81280000D03*
%TD*%
D12*
%TO.C,V1*%
X127000000Y-98425000D03*
D13*
X127000000Y-108585000D03*
%TD*%
D14*
%TO.C,C13*%
X208280000Y-88940000D03*
X208280000Y-93940000D03*
%TD*%
%TO.C,R6*%
X102870000Y-62865000D03*
D13*
X102870000Y-73025000D03*
%TD*%
D14*
%TO.C,R8*%
X179324000Y-60960000D03*
D13*
X179324000Y-71120000D03*
%TD*%
D14*
%TO.C,C4*%
X115610000Y-70231000D03*
X120610000Y-70231000D03*
%TD*%
%TO.C,R13*%
X100965000Y-92710000D03*
D13*
X100965000Y-82550000D03*
%TD*%
D14*
%TO.C,R2*%
X102870000Y-75565000D03*
D13*
X113030000Y-75565000D03*
%TD*%
D14*
%TO.C,C15*%
X150495000Y-101600000D03*
X150495000Y-106600000D03*
%TD*%
D12*
%TO.C,D2*%
X189230000Y-106680000D03*
D13*
X191770000Y-106680000D03*
X194310000Y-106680000D03*
X196850000Y-106680000D03*
X199390000Y-106680000D03*
X201930000Y-106680000D03*
X204470000Y-106680000D03*
X204470000Y-99060000D03*
X201930000Y-99060000D03*
X199390000Y-99060000D03*
X196850000Y-99060000D03*
X194310000Y-99060000D03*
X191770000Y-99060000D03*
X189230000Y-99060000D03*
%TD*%
D17*
%TO.C,VT1*%
X115570000Y-75145000D03*
D18*
X118110000Y-72605000D03*
X120650000Y-75145000D03*
%TD*%
D17*
%TO.C,VT2*%
X107940000Y-69811000D03*
D18*
X110480000Y-67271000D03*
X113020000Y-69811000D03*
%TD*%
D14*
%TO.C,R12*%
X153670000Y-98425000D03*
D13*
X153670000Y-108585000D03*
%TD*%
D14*
%TO.C,C8*%
X169545000Y-58420000D03*
X174545000Y-58420000D03*
%TD*%
D19*
%TO.C,Y1*%
X121920000Y-92075000D03*
X121920000Y-85725000D03*
%TD*%
D14*
%TO.C,R3*%
X120650000Y-78105000D03*
D13*
X110490000Y-78105000D03*
%TD*%
D14*
%TO.C,R4*%
X110490000Y-64770000D03*
D13*
X120650000Y-64770000D03*
%TD*%
D17*
%TO.C,VT3*%
X95416000Y-73396000D03*
D18*
X97956000Y-75936000D03*
X95416000Y-78476000D03*
%TD*%
D14*
%TO.C,C9*%
X179705000Y-78740000D03*
X174705000Y-78740000D03*
%TD*%
%TO.C,R7*%
X181864000Y-71120000D03*
D13*
X181864000Y-60960000D03*
%TD*%
D20*
%TO.C,C1*%
X117475000Y-92075000D03*
X112395000Y-92075000D03*
X114935000Y-83502500D03*
%TD*%
D14*
%TO.C,C7*%
X118110000Y-62230000D03*
X113110000Y-62230000D03*
%TD*%
D15*
%TO.C,X3*%
X213995000Y-62865000D03*
D16*
X213995000Y-60325000D03*
%TD*%
D14*
%TO.C,R5*%
X105410000Y-73025000D03*
D13*
X105410000Y-62865000D03*
%TD*%
D14*
%TO.C,C5*%
X120610000Y-67310000D03*
X115610000Y-67310000D03*
%TD*%
D12*
%TO.C,V3*%
X96520000Y-98425000D03*
D13*
X96520000Y-108585000D03*
%TD*%
D12*
%TO.C,D6*%
X186690000Y-81280000D03*
D13*
X189230000Y-81280000D03*
X191770000Y-81280000D03*
X194310000Y-81280000D03*
X196850000Y-81280000D03*
X199390000Y-81280000D03*
X201930000Y-81280000D03*
X204470000Y-81280000D03*
X204470000Y-73660000D03*
X201930000Y-73660000D03*
X199390000Y-73660000D03*
X196850000Y-73660000D03*
X194310000Y-73660000D03*
X191770000Y-73660000D03*
X189230000Y-73660000D03*
X186690000Y-73660000D03*
%TD*%
D14*
%TO.C,C6*%
X102870000Y-78105000D03*
X107870000Y-78105000D03*
%TD*%
D12*
%TO.C,D5*%
X131440000Y-106670000D03*
D13*
X133980000Y-106670000D03*
X136520000Y-106670000D03*
X139060000Y-106670000D03*
X141600000Y-106670000D03*
X144140000Y-106670000D03*
X146680000Y-106670000D03*
X146680000Y-99050000D03*
X144140000Y-99050000D03*
X141600000Y-99050000D03*
X139060000Y-99050000D03*
X136520000Y-99050000D03*
X133980000Y-99050000D03*
X131440000Y-99050000D03*
%TD*%
D14*
%TO.C,C2*%
X104775000Y-90170000D03*
X104775000Y-85170000D03*
%TD*%
D12*
%TO.C,V5*%
X187325000Y-58420000D03*
D13*
X177165000Y-58420000D03*
%TD*%
D14*
%TO.C,C11*%
X208280000Y-101640000D03*
X208280000Y-106640000D03*
%TD*%
D12*
%TO.C,R10*%
X144145000Y-78740000D03*
D13*
X141605000Y-78740000D03*
X139065000Y-78740000D03*
X136525000Y-78740000D03*
X133985000Y-78740000D03*
X131445000Y-78740000D03*
X128905000Y-78740000D03*
X126365000Y-78740000D03*
%TD*%
D14*
%TO.C,R1*%
X110490000Y-80645000D03*
D13*
X120650000Y-80645000D03*
%TD*%
D14*
%TO.C,C12*%
X208280000Y-63580000D03*
X208280000Y-68580000D03*
%TD*%
D12*
%TO.C,V4*%
X189230000Y-58420000D03*
D13*
X199390000Y-58420000D03*
%TD*%
D12*
%TO.C,D4*%
X186690000Y-93970000D03*
D13*
X189230000Y-93970000D03*
X191770000Y-93970000D03*
X194310000Y-93970000D03*
X196850000Y-93970000D03*
X199390000Y-93970000D03*
X201930000Y-93970000D03*
X204470000Y-93970000D03*
X204470000Y-86350000D03*
X201930000Y-86350000D03*
X199390000Y-86350000D03*
X196850000Y-86350000D03*
X194310000Y-86350000D03*
X191770000Y-86350000D03*
X189230000Y-86350000D03*
X186690000Y-86350000D03*
%TD*%
D18*
%TO.C,C17*%
X96520000Y-82550000D03*
X96520000Y-84550000D03*
%TD*%
D12*
%TO.C,V2*%
X124460000Y-98425000D03*
D13*
X124460000Y-108585000D03*
%TD*%
D12*
%TO.C,D1*%
X174625000Y-60960000D03*
D13*
X172085000Y-60960000D03*
X169545000Y-60960000D03*
X167005000Y-60960000D03*
X164465000Y-60960000D03*
X161925000Y-60960000D03*
X159385000Y-60960000D03*
X156845000Y-60960000D03*
X154305000Y-60960000D03*
X151765000Y-60960000D03*
X149225000Y-60960000D03*
X146685000Y-60960000D03*
X144145000Y-60960000D03*
X141605000Y-60960000D03*
X139065000Y-60960000D03*
X136525000Y-60960000D03*
X133985000Y-60960000D03*
X131445000Y-60960000D03*
X128905000Y-60960000D03*
X126365000Y-60960000D03*
X126365000Y-76200000D03*
X128905000Y-76200000D03*
X131445000Y-76200000D03*
X133985000Y-76200000D03*
X136525000Y-76200000D03*
X139065000Y-76200000D03*
X141605000Y-76200000D03*
X144145000Y-76200000D03*
X146685000Y-76200000D03*
X149225000Y-76200000D03*
X151765000Y-76200000D03*
X154305000Y-76200000D03*
X156845000Y-76200000D03*
X159385000Y-76200000D03*
X161925000Y-76200000D03*
X164465000Y-76200000D03*
X167005000Y-76200000D03*
X169545000Y-76200000D03*
X172085000Y-76200000D03*
X174625000Y-76200000D03*
%TD*%
D15*
%TO.C,X1*%
X214020000Y-72390000D03*
D16*
X214020000Y-74930000D03*
X214020000Y-77470000D03*
X214020000Y-80010000D03*
X214020000Y-82550000D03*
X214020000Y-85090000D03*
X214020000Y-87630000D03*
%TD*%
D15*
%TO.C,X2*%
X214020000Y-90170000D03*
D16*
X214020000Y-92710000D03*
X214020000Y-95250000D03*
X214020000Y-97790000D03*
X214020000Y-100330000D03*
X214020000Y-102870000D03*
X214020000Y-105410000D03*
%TD*%
M02*
