%TF.GenerationSoftware,KiCad,Pcbnew,8.0.1*%
%TF.CreationDate,2024-05-17T17:30:14+02:00*%
%TF.ProjectId,modul_MH106,6d6f6475-6c5f-44d4-9831-30362e6b6963,rev?*%
%TF.SameCoordinates,Original*%
%TF.FileFunction,Legend,Bot*%
%TF.FilePolarity,Positive*%
%FSLAX46Y46*%
G04 Gerber Fmt 4.6, Leading zero omitted, Abs format (unit mm)*
G04 Created by KiCad (PCBNEW 8.0.1) date 2024-05-17 17:30:14*
%MOMM*%
%LPD*%
G01*
G04 APERTURE LIST*
%ADD10C,0.150000*%
%ADD11C,0.120000*%
G04 APERTURE END LIST*
D10*
X210274819Y-71580476D02*
X211274819Y-72247142D01*
X210274819Y-72247142D02*
X211274819Y-71580476D01*
X211274819Y-73151904D02*
X211274819Y-72580476D01*
X211274819Y-72866190D02*
X210274819Y-72866190D01*
X210274819Y-72866190D02*
X210417676Y-72770952D01*
X210417676Y-72770952D02*
X210512914Y-72675714D01*
X210512914Y-72675714D02*
X210560533Y-72580476D01*
X210274819Y-89360476D02*
X211274819Y-90027142D01*
X210274819Y-90027142D02*
X211274819Y-89360476D01*
X210370057Y-90360476D02*
X210322438Y-90408095D01*
X210322438Y-90408095D02*
X210274819Y-90503333D01*
X210274819Y-90503333D02*
X210274819Y-90741428D01*
X210274819Y-90741428D02*
X210322438Y-90836666D01*
X210322438Y-90836666D02*
X210370057Y-90884285D01*
X210370057Y-90884285D02*
X210465295Y-90931904D01*
X210465295Y-90931904D02*
X210560533Y-90931904D01*
X210560533Y-90931904D02*
X210703390Y-90884285D01*
X210703390Y-90884285D02*
X211274819Y-90312857D01*
X211274819Y-90312857D02*
X211274819Y-90931904D01*
D11*
%TO.C,X1*%
X212690000Y-73660000D02*
X212690000Y-88960000D01*
X212690000Y-71060000D02*
X212690000Y-72390000D01*
X215350000Y-73660000D02*
X212690000Y-73660000D01*
X215350000Y-88960000D02*
X212690000Y-88960000D01*
X215350000Y-73660000D02*
X215350000Y-88960000D01*
X214020000Y-71060000D02*
X212690000Y-71060000D01*
%TO.C,X2*%
X215350000Y-91440000D02*
X212690000Y-91440000D01*
X212690000Y-88840000D02*
X212690000Y-90170000D01*
X215350000Y-91440000D02*
X215350000Y-106740000D01*
X214020000Y-88840000D02*
X212690000Y-88840000D01*
X215350000Y-106740000D02*
X212690000Y-106740000D01*
X212690000Y-91440000D02*
X212690000Y-106740000D01*
%TD*%
M02*
