M48
; DRILL file {KiCad 8.0.1} date 2024-05-17T17:30:30+0200
; FORMAT={-:-/ absolute / metric / decimal}
; #@! TF.CreationDate,2024-05-17T17:30:30+02:00
; #@! TF.GenerationSoftware,Kicad,Pcbnew,8.0.1
; #@! TF.FileFunction,Plated,1,2,PTH
FMAT,2
METRIC
; #@! TA.AperFunction,Plated,PTH,ViaDrill
T1C0.500
; #@! TA.AperFunction,Plated,PTH,ComponentDrill
T2C0.800
; #@! TA.AperFunction,Plated,PTH,ComponentDrill
T3C1.000
; #@! TA.AperFunction,Plated,PTH,ComponentDrill
T4C1.200
; #@! TA.AperFunction,Plated,PTH,ViaDrill
T5C3.000
%
G90
G05
T1
X119.062Y-97.472
X123.19Y-59.055
X123.19Y-67.31
X123.19Y-80.645
X125.095Y-93.345
X128.905Y-94.615
X130.81Y-93.345
X132.715Y-89.535
X133.985Y-67.945
X135.255Y-92.075
X136.525Y-88.265
X139.065Y-85.725
X139.065Y-90.805
X140.335Y-65.532
X141.605Y-85.725
X141.605Y-92.075
X144.145Y-70.485
X144.145Y-89.535
X147.955Y-65.532
X150.495Y-67.945
X156.845Y-85.725
X158.115Y-95.885
X159.385Y-67.945
X159.385Y-83.185
X159.385Y-85.725
X161.925Y-69.215
X161.925Y-89.535
X161.925Y-92.075
X164.465Y-66.675
X164.465Y-86.995
X167.005Y-64.135
X170.815Y-62.865
X172.085Y-65.405
X178.435Y-102.235
X179.705Y-81.915
X179.705Y-104.775
X180.975Y-80.645
X180.975Y-106.68
X181.356Y-76.835
X182.245Y-100.965
X182.88Y-74.93
X183.515Y-98.425
X184.785Y-99.695
X186.69Y-77.47
X190.5Y-71.755
X190.5Y-79.375
X190.5Y-102.235
X194.31Y-103.505
X195.58Y-79.375
X198.12Y-83.82
X204.47Y-102.235
T2
X95.416Y-73.396
X95.416Y-78.476
X96.52Y-82.55
X96.52Y-84.55
X96.52Y-95.885
X96.52Y-98.425
X96.52Y-108.585
X97.956Y-75.936
X100.33Y-66.675
X100.33Y-76.835
X100.33Y-99.06
X100.33Y-106.68
X100.965Y-82.55
X100.965Y-92.71
X102.87Y-62.865
X102.87Y-73.025
X102.87Y-75.565
X102.87Y-78.105
X102.87Y-99.06
X102.87Y-106.68
X104.775Y-85.17
X104.775Y-90.17
X105.41Y-62.865
X105.41Y-73.025
X105.41Y-99.06
X105.41Y-106.68
X106.68Y-95.885
X107.315Y-85.17
X107.315Y-90.17
X107.87Y-78.105
X107.94Y-69.811
X107.95Y-99.06
X107.95Y-106.68
X110.48Y-67.271
X110.49Y-64.77
X110.49Y-78.105
X110.49Y-80.645
X110.49Y-99.06
X110.49Y-106.68
X113.02Y-69.811
X113.03Y-75.565
X113.03Y-99.06
X113.03Y-106.68
X113.11Y-62.23
X115.57Y-75.145
X115.57Y-99.06
X115.57Y-106.68
X115.61Y-67.31
X115.61Y-70.231
X118.11Y-62.23
X118.11Y-72.605
X119.38Y-100.37
X119.38Y-105.37
X120.61Y-67.31
X120.61Y-70.231
X120.65Y-64.77
X120.65Y-75.145
X120.65Y-78.105
X120.65Y-80.645
X121.92Y-85.725
X121.92Y-92.075
X121.92Y-98.425
X121.92Y-108.585
X124.46Y-98.425
X124.46Y-108.585
X126.365Y-60.96
X126.365Y-76.2
X126.365Y-78.74
X127.0Y-98.425
X127.0Y-108.585
X128.905Y-60.96
X128.905Y-76.2
X128.905Y-78.74
X131.44Y-99.05
X131.44Y-106.67
X131.445Y-60.96
X131.445Y-76.2
X131.445Y-78.74
X133.98Y-99.05
X133.98Y-106.67
X133.985Y-60.96
X133.985Y-76.2
X133.985Y-78.74
X136.52Y-99.05
X136.52Y-106.67
X136.525Y-60.96
X136.525Y-76.2
X136.525Y-78.74
X139.06Y-99.05
X139.06Y-106.67
X139.065Y-60.96
X139.065Y-76.2
X139.065Y-78.74
X141.6Y-99.05
X141.6Y-106.67
X141.605Y-60.96
X141.605Y-76.2
X141.605Y-78.74
X144.14Y-99.05
X144.14Y-106.67
X144.145Y-60.96
X144.145Y-76.2
X144.145Y-78.74
X146.68Y-99.05
X146.68Y-106.67
X146.685Y-60.96
X146.685Y-76.2
X149.225Y-60.96
X149.225Y-76.2
X150.495Y-101.6
X150.495Y-106.6
X151.765Y-60.96
X151.765Y-76.2
X153.67Y-98.425
X153.67Y-108.585
X154.305Y-60.96
X154.305Y-76.2
X154.305Y-78.74
X156.845Y-60.96
X156.845Y-76.2
X156.845Y-78.74
X156.845Y-99.06
X156.845Y-106.68
X159.385Y-60.96
X159.385Y-76.2
X159.385Y-78.74
X159.385Y-99.06
X159.385Y-106.68
X161.925Y-60.96
X161.925Y-76.2
X161.925Y-78.74
X161.925Y-99.06
X161.925Y-106.68
X164.465Y-60.96
X164.465Y-76.2
X164.465Y-78.74
X164.465Y-99.06
X164.465Y-106.68
X167.005Y-60.96
X167.005Y-76.2
X167.005Y-78.74
X167.005Y-99.06
X167.005Y-106.68
X169.545Y-58.42
X169.545Y-60.96
X169.545Y-76.2
X169.545Y-78.74
X169.545Y-99.06
X169.545Y-106.68
X172.085Y-60.96
X172.085Y-76.2
X172.085Y-78.74
X172.085Y-99.06
X172.085Y-106.68
X174.545Y-58.42
X174.625Y-60.96
X174.625Y-76.2
X174.705Y-78.74
X175.895Y-101.6
X175.895Y-106.6
X177.165Y-58.42
X179.324Y-60.96
X179.324Y-71.12
X179.705Y-78.74
X181.864Y-60.96
X181.864Y-71.12
X186.69Y-73.66
X186.69Y-81.28
X186.69Y-86.35
X186.69Y-93.97
X186.69Y-96.52
X187.325Y-58.42
X189.23Y-58.42
X189.23Y-60.96
X189.23Y-68.58
X189.23Y-73.66
X189.23Y-81.28
X189.23Y-86.35
X189.23Y-93.97
X189.23Y-99.06
X189.23Y-106.68
X191.77Y-60.96
X191.77Y-68.58
X191.77Y-73.66
X191.77Y-81.28
X191.77Y-86.35
X191.77Y-93.97
X191.77Y-99.06
X191.77Y-106.68
X194.31Y-60.96
X194.31Y-68.58
X194.31Y-73.66
X194.31Y-81.28
X194.31Y-86.35
X194.31Y-93.97
X194.31Y-99.06
X194.31Y-106.68
X196.85Y-60.96
X196.85Y-68.58
X196.85Y-73.66
X196.85Y-81.28
X196.85Y-86.35
X196.85Y-93.97
X196.85Y-96.52
X196.85Y-99.06
X196.85Y-106.68
X199.072Y-96.52
X199.39Y-58.42
X199.39Y-60.96
X199.39Y-68.58
X199.39Y-73.66
X199.39Y-81.28
X199.39Y-86.35
X199.39Y-93.97
X199.39Y-99.06
X199.39Y-106.68
X201.93Y-60.96
X201.93Y-68.58
X201.93Y-73.66
X201.93Y-81.28
X201.93Y-86.35
X201.93Y-93.97
X201.93Y-99.06
X201.93Y-106.68
X204.47Y-60.96
X204.47Y-68.58
X204.47Y-73.66
X204.47Y-81.28
X204.47Y-86.35
X204.47Y-93.97
X204.47Y-99.06
X204.47Y-106.68
X208.28Y-63.58
X208.28Y-68.58
X208.28Y-76.28
X208.28Y-81.28
X208.28Y-88.94
X208.28Y-93.94
X208.28Y-101.64
X208.28Y-106.64
X209.232Y-96.52
T3
X97.13Y-60.305
X97.13Y-62.845
X97.18Y-66.695
X97.18Y-69.235
X213.995Y-60.325
X213.995Y-62.865
X214.02Y-72.39
X214.02Y-74.93
X214.02Y-77.47
X214.02Y-80.01
X214.02Y-82.55
X214.02Y-85.09
X214.02Y-87.63
X214.02Y-90.17
X214.02Y-92.71
X214.02Y-95.25
X214.02Y-97.79
X214.02Y-100.33
X214.02Y-102.87
X214.02Y-105.41
T4
X112.395Y-92.075
X114.935Y-83.502
X117.475Y-92.075
T5
X96.52Y-90.17
M30
